<svg xmlns="http://www.w3.org/2000/svg" width="20" height="20"><path fill="none" stroke="#fff" stroke-linecap="round" stroke-linejoin="round" stroke-miterlimit="20" stroke-width="1.5" d="M5.496 1v0h9.009C17 1 19 3 19 5.496v9.009C19 17 17 19 14.504 19H5.496A4.48 4.48 0 011 14.504V5.496C1 3 3 1 5.496 1z"/><path fill="none" stroke="#fff" stroke-linecap="round" stroke-linejoin="round" stroke-miterlimit="20" stroke-width="1.5" d="M14.95 4.712a.339.339 0 00-.337.338c0 .186.152.338.387.338.136 0 .287-.152.287-.338a.337.337 0 00-.338-.338m-2.403 2.743a3.515 3.515 0 010 5.09 3.515 3.515 0 01-5.092 0 3.515 3.515 0 010-5.09 3.515 3.515 0 015.092 0"/></svg>