<svg xmlns="http://www.w3.org/2000/svg" width="22" height="20"><path fill="none" stroke="#fff" stroke-linecap="round" stroke-linejoin="round" stroke-miterlimit="20" stroke-width="1.5" d="M20.583 4.375c-.229-1.004-.907-1.796-1.769-2.068C17.255 1.82 11 1.82 11 1.82v0s-6.252 0-7.814.487c-.859.268-1.537 1.06-1.769 2.068C1 6.197 1 10 1 10v0s0 3.807.417 5.629c.229 1.004.907 1.796 1.77 2.068 1.561.487 7.813.487 7.813.487v0s6.255 0 7.814-.487c.859-.268 1.537-1.06 1.769-2.068C21 13.807 21 10 21 10v0s0-3.803-.417-5.625z"/><path fill="none" stroke="#fff" stroke-linecap="round" stroke-linejoin="round" stroke-miterlimit="20" stroke-width="1.5" d="M9 13v0l5.196-3v0L9 7v0z"/></svg>