<svg xmlns="http://www.w3.org/2000/svg" width="76" height="108"><g fill="none" fill-rule="evenodd"><path fill="#3B2483" fill-rule="nonzero" d="M0 0h76v108H0z"/><path fill="#FFF" d="M3.561 45.47V3.56h68.881v100.883H43.5v-1.32h27.618V4.887H4.886v40.585h1.228c4.442 0 6.881 2.67 6.881 7.09l-.044 28.265H8.134l.027-28.264c.02-1.414-.688-2.247-2.026-2.247H3.578v-4.84l-.017-.007zm4.817 58.893h.45l.647-1.466.689 1.466h.45l-.88-1.898.867-1.832h-.475l-.61 1.383-.636-1.383h-.464l.836 1.78-.881 1.95h.007zm4.056.059a.953.953 0 00.603-.166.85.85 0 00.302-.477c.066-.25.096-.506.09-.764v-1.037a2.719 2.719 0 00-.09-.764.85.85 0 00-.302-.477 1.162 1.162 0 00-1.198 0 .875.875 0 00-.306.477c-.064.25-.094.506-.09.764v1.037c-.004.258.026.515.09.764a.875.875 0 00.306.477c.175.12.384.178.595.166zm0-.346a.453.453 0 00.344-.128.673.673 0 00.138-.366c.018-.177.026-.355.024-.532v-1.082a4.828 4.828 0 00-.024-.533.67.67 0 00-.138-.363.443.443 0 00-.344-.131.429.429 0 00-.344.131.67.67 0 00-.134.363 4.745 4.745 0 00-.027.533v1.082c-.001.177.008.355.027.532.008.133.054.26.134.366a.44.44 0 00.344.128zm2.065 1.525h.471v-1.525c.08.09.172.171.272.239.114.08.25.121.389.117.2.012.396-.06.543-.197.142-.153.236-.344.272-.55a3.9 3.9 0 00.08-.829v-.788a4.63 4.63 0 00-.035-.54 1.853 1.853 0 00-.12-.48.847.847 0 00-.255-.346.686.686 0 00-.434-.124.744.744 0 00-.423.114 1.16 1.16 0 00-.289.252v-.307h-.47v4.963zm1.06-1.542a.381.381 0 00.32-.135.88.88 0 00.14-.404c.026-.216.038-.433.035-.65v-.802a4.37 4.37 0 00-.034-.609.745.745 0 00-.145-.376.405.405 0 00-.327-.132.614.614 0 00-.344.097c-.09.055-.172.12-.248.194v2.544a.943.943 0 00.252.19.685.685 0 00.344.083h.007zm2.976.373a.963.963 0 00.605-.166.889.889 0 00.303-.477c.064-.249.094-.506.09-.764v-1.037a2.854 2.854 0 00-.09-.764.889.889 0 00-.303-.477.963.963 0 00-.605-.166.943.943 0 00-.592.166.858.858 0 00-.306.477c-.064.25-.095.507-.09.764v1.037c-.005.258.026.515.09.764.045.19.153.358.306.477.173.12.382.179.592.166zm0-.345a.45.45 0 00.344-.128.645.645 0 00.137-.367c.02-.176.028-.354.028-.532v-1.082c0-.178-.009-.356-.028-.532a.645.645 0 00-.137-.363.44.44 0 00-.344-.132.422.422 0 00-.344.132.67.67 0 00-.135.363 4.715 4.715 0 00-.027.532v1.082c0 .178.008.356.027.532a.68.68 0 00.135.367c.09.091.216.138.344.128zm2.085.297h3v-3.75h-.458v3.394h-.794v-3.395h-.455v3.395h-.819v-3.395h-.447v3.73l-.027.021zm4.16 0h.388l1.228-2.866v2.866h.4v-3.75h-.379l-1.242 2.872v-2.873h-.396v3.751zm3.172 0h.392l1.249-2.887v2.866h.399v-3.73h-.4l-1.241 2.873v-2.873h-.4v3.751zm1.032-4.148a.77.77 0 00.574-.204.818.818 0 00.203-.57h-.295a.52.52 0 01-.142.373.47.47 0 01-.344.117.46.46 0 01-.344-.117.489.489 0 01-.134-.374h-.285c-.004.21.07.412.206.57a.751.751 0 00.568.205h-.007zm3.172 5.03h.344l.045-.9h1.968l.038.9h.344v-1.245h-.375v-3.388h-1.548l-.056.871a11.74 11.74 0 01-.1 1.079 4.35 4.35 0 01-.158.722 1.652 1.652 0 01-.227.457c-.08.111-.18.206-.296.28v1.22l.021.004zm.489-1.242h1.441v-3.038h-.708l-.056.619a20.42 20.42 0 01-.089 1.037 4.69 4.69 0 01-.13.691c-.04.154-.104.301-.19.436a.935.935 0 01-.261.259l-.007-.004zm4.128.401a.963.963 0 00.606-.165.865.865 0 00.3-.478 2.73 2.73 0 00.092-.764v-1.037a2.709 2.709 0 00-.093-.764.865.865 0 00-.299-.477 1.168 1.168 0 00-1.2 0 .872.872 0 00-.304.477 2.709 2.709 0 00-.092.764v1.037c-.006.258.025.516.092.764a.872.872 0 00.303.478.96.96 0 00.595.165zm0-.345a.453.453 0 00.344-.128.673.673 0 00.138-.367c.018-.176.026-.354.024-.532v-1.082a4.828 4.828 0 00-.024-.532.67.67 0 00-.138-.363.443.443 0 00-.344-.132.436.436 0 00-.344.132.67.67 0 00-.134.363 4.828 4.828 0 00-.024.532v1.082a4.96 4.96 0 00.024.532c.008.133.054.26.134.367.092.09.217.137.344.128zm2.065.297h.389v-2.607l.77 2.22h.148l.778-2.233v2.62h.406l-.038-3.744h-.344l-.867 2.562-.867-2.562h-.344l-.031 3.73v.014zm2.553-18.021l-2.106 5.97v-6.613h-1.473v9.458c-.034 1.265 1.421 1.22 1.766.239l1.968-5.483V96.1h1.465v-9.572c0-1.076-1.297-1.162-1.627-.197l.007.024zm-11.64 0l-2.102 5.97v-6.613h-1.497v9.458c-.034 1.265 1.421 1.22 1.762.239l1.971-5.483V96.1h1.47v-9.572c0-1.076-1.294-1.162-1.628-.197l.024.024zM8.134 96.104H9.61v-2.558h1.748v2.545h1.479V85.72h-1.48v6.51h-1.76v-6.51H8.12v10.37l.014.014zm9.417-9.762l-2.103 5.97v-6.6h-1.472v9.46c-.035 1.264 1.42 1.22 1.761.238l1.972-5.483V96.1h1.47v-9.572c0-1.076-1.298-1.162-1.628-.197v.01zm-2.994-31.459h4.817c.086-2.845 2.082-4.445 4.817-4.445 2.818 0 4.817 1.728 4.817 4.611 0 3.18-2.952 5.158-5.24 6.887-4.428 3.342-9.235 6.976-9.231 16.441a2.414 2.414 0 002.408 2.42H33.74v-4.874H20.303c-.52 0-.746 0-.62-.692.94-4.84 4.085-7.232 7.02-9.448 3.74-2.82 7.187-5.652 7.187-10.768 0-5.532-4.208-9.486-9.665-9.486-2.917 0-5.191 1.01-6.815 2.568a9.54 9.54 0 00-2.842 6.752l-.01.034zm37.204-6.713c-3.596-3.554-10.095-3.592-13.732-.08-4.208 4.062-3.62 11.516 1.19 14.865l-3.591 8.836c-1.865 4.588 1.08 9.037 6.041 8.958h6.562c4.837 0 8.044-4.598 6.241-9.137-.998-2.514-2.212-5.134-3.138-7.125l-.753-1.615c4.727-3.39 5.322-10.602 1.18-14.688v-.014zm-6.881 2.202c-5.53 0-6.266 6.69-2.567 8.777 1.586.896 2.136 1.829 2.216 2.714.103 1.148-1.105 3.599-1.528 4.643l-2.89 7.104c-.564 1.383.03 2.31 1.527 2.275h6.606c1.432 0 2.288-1.12 1.752-2.476-.826-2.074-2.085-4.791-3.045-6.855-.61-1.32-1.72-3.294-1.538-4.74.134-1.078.664-1.922 1.889-2.592 3.901-2.137 3.076-8.84-2.409-8.84l-.013-.01zm4.847 45.705h1.518l.237-2.545h1.72l.248 2.545h1.507l-1.094-8.988a1.517 1.517 0 00-1.538-1.383 1.569 1.569 0 00-1.507 1.41l-1.098 8.96h.007zm1.886-3.855h1.459l-.214-2.243-.175-2.365c-.048-.657-.623-.664-.688 0l-.183 2.365-.213 2.243h.014zm-7.46 3.869h1.477v-2.545h1.761v2.545h1.47V85.72h-1.48v6.51h-1.762v-6.51h-1.476v10.37h.01zm-10.321 0h1.476v-9.054h1.679V85.72h-4.83v1.317h1.678v9.054h-.003zm-13.491 0h1.504v-2.334l.877-1.977 1.232 4.31h1.51l-1.744-5.918 1.62-4.452h-1.596l-1.992 5.4.161-5.4h-1.562l-.01 10.37z"/></g></svg>