<svg xmlns="http://www.w3.org/2000/svg" width="143" height="87"><g fill="#00754A" fill-rule="evenodd"><path d="M141.614 83.746c0 1.032-.84 1.87-1.876 1.87H84.326a3.23 3.23 0 00.597-1.87v-47.63c0-.963-.424-1.87-1.163-2.49L72.578 24.25 99.332 1.822a1.878 1.878 0 012.414 0l39.2 32.862c.423.355.668.88.668 1.432v47.63zM3.262 85.616a1.874 1.874 0 01-1.876-1.87v-47.63c0-.552.246-1.077.67-1.432L41.255 1.822a1.878 1.878 0 012.414 0l39.2 32.862c.422.355.668.88.668 1.432v47.63c0 1.032-.84 1.87-1.877 1.87H3.262zm138.575-51.99L102.638.763a3.27 3.27 0 00-4.199 0L71.5 23.347 44.562.764a3.27 3.27 0 00-4.2 0L1.164 33.625A3.242 3.242 0 000 36.116v47.63A3.262 3.262 0 003.262 87h136.476A3.262 3.262 0 00143 83.746v-47.63a3.24 3.24 0 00-1.163-2.49z"/><path d="M92.504 64.74c.084.222.2.41.359.58.263.294.696.578 1.382.578.96 0 1.583-.621 1.763-1.58h-2.185v-.788h2.174c-.169-.895-.791-1.527-1.752-1.527-.675 0-1.086.263-1.34.527a1.765 1.765 0 00-.349.526h-.843c.094-.337.253-.641.474-.916.37-.452.992-.926 2.058-.926 1.478 0 2.639 1.158 2.639 2.738 0 1.577-1.16 2.736-2.639 2.736-1.076 0-1.73-.485-2.1-.969a2.667 2.667 0 01-.486-.979h.845zm5.916-3.421h.844v2.105h1.056l1.689-2.105h1.002l-1.953 2.474 2.111 2.789h-1.055l-1.794-2.369h-1.056v2.369h-.844zm8.12 4.579c1.097 0 1.9-.8 1.9-1.947s-.803-1.948-1.9-1.948c-1.098 0-1.9.801-1.9 1.948 0 1.148.802 1.947 1.9 1.947m0-4.684c1.582 0 2.744 1.157 2.744 2.737 0 1.578-1.162 2.736-2.744 2.736-1.583 0-2.745-1.158-2.745-2.736 0-1.58 1.162-2.737 2.745-2.737m-14.459 10.68h.845v2.105h1.056l1.689-2.105h1.002l-1.953 2.473 2.111 2.79h-1.055l-1.794-2.369h-1.056v2.369h-.845zm8.534 4.473c.634 0 .95-.315.95-.788 0-.475-.316-.791-.95-.791h-1.741v1.58h1.741zm-.052-2.315c.538 0 .79-.263.79-.684 0-.421-.252-.684-.79-.684h-1.69v1.368h1.69zm-2.534-2.158h2.586c1.014 0 1.583.568 1.583 1.315 0 .948-.707 1.148-.792 1.148v.01c.054 0 1.003.2 1.003 1.263 0 .895-.633 1.526-1.783 1.526h-2.597v-5.262zm8.245 4.579c1.013 0 1.794-.8 1.794-1.948 0-1.146-.78-1.948-1.794-1.948s-1.795.802-1.795 1.948c0 1.148.78 1.948 1.795 1.948m-.106-4.684c1.013 0 1.594.526 1.794.8l.095.157h.011v-.853h.844v5.264h-.844v-.843h-.011l-.095.148c-.19.284-.78.8-1.794.8-1.382 0-2.533-1.158-2.533-2.737 0-1.579 1.15-2.736 2.533-2.736m7.23 4.684c1.013 0 1.793-.8 1.793-1.948 0-1.146-.78-1.948-1.794-1.948-1.013 0-1.794.802-1.794 1.948 0 1.148.78 1.948 1.794 1.948zm-2.64-4.58h.845v.842h.011l.105-.158c.17-.262.77-.788 1.783-.788 1.384 0 2.534 1.157 2.534 2.736 0 1.579-1.15 2.736-2.534 2.736-1.002 0-1.614-.515-1.783-.8l-.105-.147h-.01v2.843h-.845v-7.264zm6.072.001h4.539v.789h-1.847v4.474h-.845v-4.474h-1.847zm7.97 4.579c1.014 0 1.795-.8 1.795-1.948 0-1.146-.781-1.948-1.795-1.948-1.014 0-1.794.802-1.794 1.948 0 1.148.78 1.948 1.794 1.948m-.105-4.684c1.013 0 1.593.526 1.794.8l.094.157h.012v-.853h.843v5.264h-.843v-.843h-.012l-.094.148c-.19.284-.781.8-1.794.8-1.383 0-2.534-1.158-2.534-2.737 0-1.579 1.151-2.736 2.534-2.736m5.448.105h2.216l1.478 5.263h-.897l-1.214-4.474h-.95l-1.214 4.474h-.897zm-99.798 1.278c0 1.154-.718 1.871-1.631 1.871-.914 0-1.468-.57-1.468-1.546v-4.799h-2.774v5.206c0 2.294 1.207 3.497 3.181 3.497.914 0 1.535-.34 1.942-.683a2.21 2.21 0 00.587-.699h.163v1.138h2.774v-8.459h-2.774v4.474zm20.122 1.871c-1.06 0-1.794-.732-1.794-2.116 0-1.382.733-2.115 1.794-2.115 1.06 0 1.795.733 1.795 2.115 0 1.384-.735 2.116-1.795 2.116zm.897-6.588c-.865 0-1.468.357-1.908.698a2.761 2.761 0 00-.62.683h-.163v-4.47h-2.774v11.791h2.774V76.02h.162c.164.277.376.504.621.699.44.342 1.043.683 1.908.683 2.024 0 3.751-1.692 3.751-4.474 0-2.781-1.727-4.472-3.751-4.472zm-32.876.243H15.55l-2.123 3.599a.88.88 0 00-.005.884l2.291 3.975h3.017l-2.69-4.472 2.447-3.986zm21.087 6.344c-1.06 0-1.793-.731-1.793-2.115 0-1.382.733-2.115 1.793-2.115s1.795.733 1.795 2.115c0 1.384-.734 2.115-1.795 2.115zm.986-6.588c-.865 0-1.468.358-1.908.7a2.743 2.743 0 00-.62.682h-.164v-4.47h-2.773v11.791h2.773V76.02h.163c.163.276.376.504.621.699.44.341 1.043.683 1.908.683 2.023 0 3.751-1.692 3.751-4.474 0-2.781-1.728-4.473-3.751-4.473zm-20.723 8.703h2.774V65.366h-2.774v11.791zm-9.968 0h2.774V65.365H9.87v11.79zm62.003-24.643c-1.044 0-1.68.39-2.072.78a2.738 2.738 0 00-.539.766H69.1a2.474 2.474 0 00-.555-.765c-.407-.391-1.076-.781-2.136-.781-.914 0-1.501.358-1.893.7a2.476 2.476 0 00-.554.683h-.164v-1.139h-2.772v8.46h2.772v-4.556c0-1.154.637-1.789 1.55-1.789.832 0 1.305.488 1.305 1.545v4.8h2.774v-4.556c0-1.154.636-1.789 1.55-1.789.831 0 1.304.488 1.304 1.545v4.8h2.774v-5.206c0-2.294-1.207-3.498-3.181-3.498zm-38.57 6.751c-.834 0-1.143-.308-1.143-.813 0-.504.31-.814 1.076-.814h1.86c0 .976-.636 1.627-1.794 1.627zm1.793 1.952h2.773v-5.205c0-2.131-1.403-3.498-4.078-3.498-1.876 0-2.904.764-3.475 1.513a3.51 3.51 0 00-.686 1.497h2.774a1.38 1.38 0 01.277-.406c.212-.196.54-.407 1.11-.407.8 0 1.305.454 1.305 1.22v.325h-2.528c-2.121 0-3.264 1.139-3.264 2.684 0 1.48 1.044 2.522 2.856 2.522 1.06 0 1.76-.342 2.202-.683.26-.196.457-.423.604-.7h.13v1.138zm-21.09-12.523a.73.73 0 01.734.731.73.73 0 01-.733.733.731.731 0 110-1.464zm0 2.602c1.158 0 1.958-.813 1.958-1.87 0-1.057-.8-1.87-1.957-1.87-1.159 0-1.959.813-1.959 1.87 0 1.057.8 1.87 1.959 1.87zm39.096 4.797c.18-.732.8-1.382 1.713-1.382s1.533.65 1.713 1.382h-3.426zm1.713-3.58c-2.61 0-4.65 2.05-4.65 4.474 0 2.425 2.04 4.475 4.65 4.475 1.859 0 3.034-.765 3.686-1.546.392-.44.686-.96.881-1.545h-2.936c-.081.179-.18.325-.327.455-.244.244-.651.44-1.304.44-.979 0-1.615-.635-1.794-1.79h6.443v-.489c0-2.423-1.974-4.473-4.65-4.473zm-41.38 6.752c-.831 0-1.142-.308-1.142-.813 0-.504.31-.814 1.077-.814h1.86c0 .976-.637 1.627-1.794 1.627zm-.733-3.01c-2.12 0-3.263 1.14-3.263 2.685 0 1.48 1.044 2.522 2.854 2.522 1.06 0 1.762-.342 2.203-.683a2.08 2.08 0 00.603-.7h.13v1.138h2.774v-5.205c0-2.131-1.403-3.498-4.078-3.498-1.877 0-2.903.764-3.475 1.513-.343.44-.571.928-.685 1.497h2.774c.065-.147.163-.293.277-.406.212-.196.538-.407 1.109-.407.799 0 1.305.454 1.305 1.22v.325h-2.528zm7.135 4.962h2.774V49.425h-2.774v11.792zm24.268-2.115c-1.06 0-1.795-.731-1.795-2.115 0-1.381.735-2.114 1.795-2.114s1.794.733 1.794 2.114c0 1.384-.734 2.115-1.794 2.115zm4.567 2.115V49.425h-2.773v4.472h-.163a2.705 2.705 0 00-.62-.683c-.44-.342-1.06-.7-1.909-.7-2.023 0-3.751 1.692-3.751 4.473 0 2.783 1.728 4.475 3.751 4.475.849 0 1.468-.342 1.909-.683.245-.196.457-.423.62-.7h.163v1.138h2.773zm-19.972.001l-2.69-4.474 2.446-3.986H25.52l-2.123 3.6a.876.876 0 00-.004.883l2.29 3.977H28.7z"/></g></svg>