<svg width="168" height="36" fill="none" xmlns="http://www.w3.org/2000/svg"><path d="M120.374 35.183h-7.744V.191h7.744v34.992zm46.489-18.406c-.315-.104-1.733-.455-2.999-.455-2.979 0-4.629 2.093-4.948 2.486v16.374h-7.588V10.324h7.274l.096 3.226c1.259-2.167 3.422-3.9 7.021-3.9a9.73 9.73 0 012.281.275l-1.137 6.852zM97.828 35.98c-6.12 0-9.86-1.938-10.123-2.07l2.412-5.394c.259.155 3.126 1.962 6.712 1.962 2.85 0 4.013-1.049 4.013-2.126 0-1.155-.838-1.64-3.34-2.433-5.411-1.71-8.48-3.982-8.48-8.401 0-4.034 3.272-7.954 9.887-7.954 5.889 0 9.548 1.935 9.965 2.16l-2.266 5.227c-.216-.13-2.856-1.892-6.223-1.892-2.205 0-3.142.915-3.142 2.022 0 1.422 1.274 1.949 3.927 2.761 6.732 2.063 8.308 4.894 8.308 8.087 0 4.158-3.543 8.05-11.65 8.05zm-19.858-.796V18.989c0-1.791-.764-3.32-3.208-3.32-1.79 0-3.374 1.542-3.697 1.828v17.687h-7.592V10.326h7.293l.076 3.028c.341-.465 2.58-3.802 6.59-3.802 5.64 0 8.144 4.034 8.144 8.753v16.879H77.97z" fill="#EE3224"/><path fill-rule="evenodd" clip-rule="evenodd" d="M135.84 9.547c-6.701 0-12.016 4.968-12.016 13.207 0 8.249 5.108 13.21 13.131 13.21 5.155 0 9.074-2.002 9.656-2.329l-2.524-5.062-.044.028c-.409.267-2.981 1.943-6.321 1.943-4.346 0-6.039-2.878-6.154-5.443h16.158l.018-.157a18 18 0 00.132-2.19c0-8.035-5.133-13.207-12.036-13.207zm.017 5.42c2.752 0 4.34 2.295 4.34 5.324h-8.694c0-2.804 1.411-5.324 4.354-5.324zm-87.872-5.42c-6.7 0-12.016 4.968-12.016 13.207 0 8.249 5.106 13.21 13.131 13.21 5.153 0 9.075-2.002 9.655-2.329l-2.522-5.062-.05.031c-.425.277-2.988 1.94-6.313 1.94-4.348 0-6.04-2.878-6.157-5.443h16.159l.018-.157c.05-.437.131-1.159.131-2.19 0-8.035-5.132-13.207-12.036-13.207zm.016 5.42c2.754 0 4.341 2.295 4.341 5.324H43.65c0-2.804 1.411-5.324 4.352-5.324z" fill="#EE3224"/><path d="M25.561 32.08c-.267.28-3.453 3.92-9.565 3.92C7.713 36 0 29.102 0 18 0 7.137 7.233 0 17.238 0c9.652 0 13.11 6.494 13.79 7.56l-6.363 4.003c-.399-.664-2.513-4.705-7.452-4.705-5.324 0-8.798 4.513-8.798 11.142 0 6.289 3.166 11.14 8.798 11.14 5.14 0 7.717-4.27 8.079-7.652H17.22v-5.355h15.296V35.18h-6.604l-.286-3.1h-.065z" fill="#EE3224"/></svg>