<svg xmlns="http://www.w3.org/2000/svg" width="142" height="101"><path fill-rule="evenodd" d="M71.025 68.996V82.99c0 .7.6 1.28 1.331 1.28l13.42-.06v-2.56h-12.09v-4.384h9.361V74.72h-9.36v-4.443h12.089v-2.56h-13.42c-.732 0-1.33.58-1.33 1.28zM2.63 67.716v7.003h8.909v-7.003H14.2V84.21h-2.661v-6.944h-8.91v6.944H0V67.716h2.63zm118.316 4.89l-9.333 11.11c-.734 1.014-2.425.528-2.425-.725V67.716h2.661V79.38l9.334-11.11c.734-1.014 2.425-.527 2.425.726V84.21h-2.662V72.607zm8.965 2.113h9.36v2.548h-9.36v4.444H142v2.5h-13.42c-.732 0-1.33-.579-1.33-1.28V68.996c0-.7.598-1.28 1.33-1.28H142v2.56h-12.09v4.443zm-26.042 12.508v-2.992h-12.88v2.992h-2.66c-.032-1.41.007-2.856.007-4.272 0-.707.592-1.28 1.323-1.28h.626c.322 0 .514.014.636-.188.4-.597.569-1.704.712-2.464l1.931-10.251c.12-.64.72-1.08 1.38-1.043l8.259-.007c.734 0 1.33.57 1.33 1.274v12.68h.666c.731 0 1.324.572 1.324 1.28 0 .88.005 3.063.007 4.271h-2.661zm-10.14-5.552h8.143V70.27h-5.896l-1.698 9.012c-.153.809-.275 1.607-.55 2.393zm-44.291-.268c-1.607 1.773-3.956 2.804-6.409 2.804-4.687 0-8.488-3.764-8.488-8.253 0-4.489 3.8-8.128 8.488-8.128 2.513 0 4.911 1.082 6.518 2.93l-2.037 1.623c-1.112-1.278-2.745-2.004-4.48-2.004-3.219 0-5.827 2.498-5.827 5.58 0 3.08 2.608 5.704 5.826 5.704 1.696 0 3.29-.692 4.402-1.918l2.007 1.662zm7.412-12.635c.12-.64.72-1.08 1.38-1.043l8.259-.007c.734 0 1.33.57 1.33 1.274V84.21h-2.661v-14h-5.896l-1.857 9.852c-.149.79-.446 4.199-4.077 4.133H52.01v-2.478l1.297-.001c1.11-.041 1.303-1.082 1.483-2.032l2.06-10.913zm-36.714.11c.06-.65.63-1.16 1.325-1.16l7.446.015c.696-.086 1.348.366 1.473 1.035l2.9 15.44h-2.69l-.623-3.337H20.57l-.637 3.336h-2.696l2.899-15.33zm7.833 1.388h-5.401l-1.518 8.056h8.437L27.97 70.27zM52.658 9.126c-2.196-1.691-5.23-2.387-7.946-2.849V19.87c3.148.103 5.652 1.539 7.946 3.515V9.126zm41.685 23.932c-1.163 0-2.107.91-2.107 2.038 0 1.126.943 2.038 2.107 2.038 1.164 0 2.108-.912 2.108-2.038 0-1.127-.944-2.038-2.108-2.038zm-7.182 4.5l.6.727-.847.648 1.936 2.432 1.96-2.46-.83-.636.601-.726.825.613.755-.948c-.438-.38-.927-1.185-.905-2.112 0-1.325.903-2.49 2.21-2.864h-9.232c1.307.374 2.21 1.54 2.21 2.864a2.93 2.93 0 01-.904 2.111l.778.978.843-.628zm8.06-5.326a3.05 3.05 0 012.067 1.963v-1.963H95.22zm2.067 3.764c-.405 1.239-1.597 2.086-2.945 2.086-.5 0-.973-.116-1.39-.32l-.777.975.833.632-.571.755-.858-.64-2.113 2.655 7.78 9.77a.476.476 0 01.04.059V35.996zm0 16.432a.475.475 0 01-.123.139l-2.26 1.739h2.383v-1.878zm-3.33 1.878l-.963-1.148a.462.462 0 01.07-.664l.818-.647-.457-.559-.834.634a.501.501 0 01-.687-.08l-1.02-1.216a.461.461 0 01.071-.665l2.21-1.63-4.315-5.418-4.316 5.417 2.21 1.631a.461.461 0 01.07.665l-1.006 1.199a.5.5 0 01-.7.097l-.835-.634-.456.559.817.647c.209.164.24.462.07.664l-.963 1.148h10.216zm-11.163 0l-2.26-1.739a.474.474 0 01-.137-.166v1.905h2.397zm-2.397-2.311a.473.473 0 01.055-.086l7.781-9.77-2.09-2.626-.857.635-.569-.752.83-.63-.8-1.004c-.418.204-.89.32-1.391.32-1.366 0-2.57-.87-2.959-2.132v16.045zm0-17.754c.297-.964 1.085-1.724 2.082-2.01h-2.082v2.01zm15.783 17.876l-2.42-3.037-1.8 1.328.404.483.84-.636a.5.5 0 01.684.078l1.05 1.285a.461.461 0 01-.066.664l-.814.645.42.5 1.702-1.31zM83.357 33.524c.896 0 1.625.704 1.625 1.572 0 .868-.729 1.571-1.625 1.571-.897 0-1.625-.703-1.625-1.571 0-.867.73-1.572 1.625-1.572zm0 .948a.633.633 0 00-.645.624c0 .345.288.624.645.624a.634.634 0 00.645-.624.635.635 0 00-.645-.624zm0-1.414c-1.163 0-2.108.911-2.108 2.038 0 1.126.944 2.038 2.108 2.038 1.164 0 2.107-.912 2.107-2.038 0-1.127-.944-2.038-2.107-2.038zm.582 16.022l-2.42 3.037 1.703 1.31.42-.5-.814-.645a.461.461 0 01-.067-.664l1.05-1.285a.5.5 0 01.684-.078l.84.636.405-.483-1.801-1.328zm10.404-14.608a.634.634 0 00-.644.624c0 .345.288.624.644.624a.634.634 0 00.646-.624c0-.3-.304-.624-.646-.624zm0-.948c.896 0 1.625.705 1.625 1.572 0 .868-.728 1.571-1.625 1.571-.896 0-1.624-.703-1.624-1.571s.728-1.572 1.624-1.572zM63.598 23.041h14.804V1.45c0-1.577 2.248-2.002 2.877-.565l2.656 4.83c.247.45.534.841.528 1.368-.013 1.159-1.069 1.06-1.069 2.16 0 .737.617 1.334 1.379 1.334.764 0 1.383-.593 1.383-1.334 0-1.1-1.056-1.001-1.07-2.16-.004-.461.265-.993.44-1.426L87.408.97c.496-1.243 2.306-1.214 2.787.007.605 1.532 1.196 3.053 1.807 4.574.175.445.486 1.06.48 1.532-.012 1.159-1.069 1.06-1.069 2.16 0 .737.617 1.334 1.379 1.334.764 0 1.383-.593 1.383-1.334 0-1.1-1.056-1.001-1.069-2.16-.005-.497.216-1.041.5-1.517L96.5.719c.77-1.27 2.777-.724 2.78.73l.005 53.34c0 .8-.67 1.45-1.498 1.45H79.899c-.827 0-1.497-.65-1.497-1.45V33.2H63.598v21.59c0 .8-.67 1.45-1.497 1.45H44.213c-.827 0-1.498-.65-1.498-1.45V1.45c0-.941.91-1.624 1.846-1.41 2.959.486 6.069 1.164 8.596 2.805 2.557-1.66 5.705-2.333 8.698-2.82.915-.148 1.74.536 1.74 1.426l.003 21.59zm7.564 1.932l-8.562 3.47v2.584l14.918-6.054h-6.356zM62.6 27.398l5.982-2.425H62.6v2.425zm8.356 3.868l8.444-3.427v-2.583l-14.81 6.01h6.366zm8.444-2.38l-5.867 2.38H79.4v-2.38zm-17.8-.284H44.712v2.663h16.89v-2.663zm-16.889-.967h16.89v-2.663h-16.89v2.663zm46.602-2.663l5.974 2.421v-2.42h-5.974zm5.974 3.467l-8.553-3.467h-6.357l14.91 6.05V28.44zm-10.925 2.826l-5.965-2.42v2.42h5.965zm-5.965-3.467l8.543 3.467h6.367l-14.91-6.05v2.583zm-27.24 19.147c-4.323 0-8.15 3.1-8.429 7.361h16.858c-.279-4.26-4.106-7.361-8.43-7.361zm6.09 1.112l2.354-4.895v-7.83l-3.4 12.009c.367.216.716.456 1.047.716zm2.354-2.605l-1.58 3.287a8.874 8.874 0 011.58 2.105v-5.392zm-16.889-2.29l2.354 4.895a9.43 9.43 0 011.277-.848l-3.63-12.077v8.03zm1.581 5.577l-1.58-3.287v5.392a8.877 8.877 0 011.58-2.105zm12.018-16.507l-2.263 14.167c.433.13.852.289 1.255.472l4.146-14.64H58.31zm-3.231 13.93l2.225-13.93h-3.64l-.01 13.758a10.1 10.1 0 011.425.171zm-5.664-13.93l1.95 13.905c.422-.076.854-.125 1.294-.147l.01-13.758h-3.254zm.976 14.13l-1.98-14.13h-3.536l4.37 14.536a9.85 9.85 0 011.146-.405zm30.006-26.486h16.89V3.226L95.08 6.87a3.22 3.22 0 011.057 2.372c0 1.803-1.511 3.267-3.375 3.267s-3.376-1.464-3.376-3.267a3.2 3.2 0 011.017-2.335l-1.607-4.076-1.644 4.09c.64.614 1 1.448 1 2.32 0 1.804-1.51 3.268-3.375 3.268-1.864 0-3.375-1.464-3.375-3.267 0-.861.35-1.684.975-2.296l-1.979-3.575v16.504zm16.89.966h-16.89v1.102h16.89v-1.102zm0 2.069h-16.89v1.096h16.89v-1.096zm-52.576-2.077v3.173h7.17c-2.075-1.765-4.337-3.07-7.17-3.173zm9.753 3.173H61.6v-3.153c-2.821.207-5.022 1.415-7.136 3.153zM61.6 19.89V6.277c-2.715.462-5.75 1.158-7.945 2.85v14.281c2.344-1.96 4.792-3.307 7.945-3.519zm0-14.59V4.196c-2.715.462-5.75 1.158-7.945 2.85v.886C55.97 6.41 58.878 5.754 61.6 5.297zm0-2.08V2.021c-2.716.462-5.75 1.158-7.945 2.849v.982c2.315-1.523 5.223-2.179 7.945-2.635zM44.711 5.3c2.723.456 5.63 1.112 7.946 2.635v-.888c-2.196-1.691-5.23-2.387-7.946-2.849v1.101zm7.946.554v-.982c-2.196-1.691-5.23-2.387-7.946-2.849v1.196c2.723.456 5.63 1.112 7.946 2.635zm-7.379 88.073h.73l-1.898 2.357 2.054 2.526h-.778l-2.006-2.473v2.473h-.666v-4.883h.666V96.3l1.898-2.375zm5.58 4.883h-.674v-4.25h-1.32c-.072 1.056-.172 1.896-.301 2.516-.127.622-.294 1.075-.498 1.364-.206.288-.466.432-.781.432a.925.925 0 01-.345-.053v-.548a.736.736 0 00.2.026c.308 0 .553-.36.734-1.082.182-.721.32-1.818.413-3.288h2.572v4.883zm1.317-4.883h.714l.962 2.784c.213.636.343 1.095.395 1.376h.031c.034-.15.108-.41.22-.777.11-.366.473-1.495 1.088-3.383h.715l-1.89 5.56c-.188.55-.407.94-.656 1.169a1.31 1.31 0 01-.921.345c-.203 0-.405-.024-.602-.075v-.593c.147.035.311.054.493.054.458 0 .784-.285.98-.855l.245-.695-1.774-4.91zm5.212 1.956c0-1.07.14-1.903.424-2.502.284-.598.733-.972 1.35-1.12a52.975 52.975 0 012.02-.442l.125.651a34.34 34.34 0 00-1.99.41c-.387.098-.679.33-.872.696-.194.365-.301.862-.319 1.491h.048a1.78 1.78 0 011.464-.801c.54 0 .961.195 1.264.584.302.388.453.928.453 1.616 0 .764-.175 1.36-.526 1.789-.35.429-.838.644-1.464.644-.617 0-1.102-.263-1.453-.789-.349-.526-.524-1.268-.524-2.227zm2.037 2.396c.817 0 1.223-.578 1.223-1.732 0-1.103-.37-1.653-1.11-1.653-.203 0-.4.047-.588.14a1.986 1.986 0 00-.517.372 1.929 1.929 0 00-.363.477c0 .781.11 1.376.333 1.785.221.407.562.611 1.022.611zm4.358-4.352v2.045h2.463v-2.045h.666v4.883h-.666v-2.2h-2.463v2.2h-.666v-4.883h.666zm5.81 2.018h1.2c.558 0 .972.115 1.242.345.268.231.402.575.402 1.031 0 .491-.142.86-.427 1.112-.285.25-.704.377-1.257.377h-1.826v-4.883h.666v2.018zm4.248 2.865h-.666v-4.883h.666v4.883zm-4.248-2.228v1.609h1.127c.706 0 1.06-.275 1.06-.824 0-.274-.082-.473-.245-.598-.163-.125-.441-.187-.834-.187h-1.108zm6.889-2.655v3.096l-.029.81-.012.254 2.38-4.16h.83v4.883h-.622v-2.985l.012-.589.02-.578-2.375 4.152h-.83v-4.883h.626zm1.256-.646c-.496 0-.856-.107-1.084-.318-.227-.213-.354-.563-.382-1.05h.626c.025.31.098.525.22.647.121.122.334.182.635.182.276 0 .479-.065.612-.196.133-.13.214-.342.242-.632h.63c-.031.468-.167.813-.405 1.035-.237.222-.603.332-1.094.332zm9.882 7.217h-.646V98.81H83.9v1.688h-.642V98.17h.345c.359-.54.64-1.173.842-1.902.204-.727.31-1.508.318-2.343h2.227v4.245h.63v2.326zm-1.272-2.326V94.51h-.987a8.995 8.995 0 01-.342 2.002c-.195.676-.436 1.23-.725 1.66h2.054zm6.549-1.807c0 .795-.181 1.417-.541 1.864-.362.447-.86.67-1.497.67-.393 0-.742-.103-1.048-.308a1.968 1.968 0 01-.705-.882c-.167-.383-.25-.832-.25-1.344 0-.797.18-1.418.538-1.862.358-.444.855-.666 1.492-.666.616 0 1.104.228 1.467.683.363.455.544 1.069.544 1.845zm-3.35 0c0 .623.112 1.097.337 1.424.224.327.554.49.991.49.436 0 .767-.163.993-.487.226-.325.338-.8.338-1.427 0-.623-.112-1.094-.338-1.416-.226-.321-.56-.482-1-.482-.438 0-.767.158-.988.476-.222.317-.333.792-.333 1.422zm7.403 1.731l.123-.413.172-.526 1.193-3.22h.847v4.873h-.59v-4.032l-.082.259-.23.681-1.138 3.092h-.557l-1.135-3.101a9.986 9.986 0 01-.293-.93v4.03h-.593v-4.873h.813l1.152 3.096c.115.327.22.681.318 1.064z"/></svg>