<svg xmlns="http://www.w3.org/2000/svg" width="154" height="59"><path d="M142.731 16.229v11.216h-1.925V16.213h-11.253v-1.918h11.268V3.07h1.925v11.24H154v1.918zM127.89 52.702a11.203 11.203 0 01-1.744 3.155 8.825 8.825 0 01-2.891 2.202 9.84 9.84 0 01-8.343 0A9.026 9.026 0 01112 55.857a11.757 11.757 0 01-1.728-3.155 12.77 12.77 0 01-.62-4.274 12.85 12.85 0 01.62-4.275C110.682 43 111.272 42 112 41a9.06 9.06 0 012.911-2.204 9.835 9.835 0 018.343 0A8.878 8.878 0 01126.145 41c.748 1 1.337 2 1.744 3.153.452 1.379.663 2.847.624 4.275a12.645 12.645 0 01-.624 4.274zm-4.304-4.274c0-.929-.088-1.858-.273-2.767a4.708 4.708 0 00-1.155-2.302 4.648 4.648 0 00-1.282-.91 4.523 4.523 0 00-1.787-.368A4.224 4.224 0 00116 43.359c-.57.641-1 1.442-1.131 2.302a14.149 14.149 0 000 5.533c.131.86.56 1.658 1.131 2.303a4.417 4.417 0 002.307 1.228 4.222 4.222 0 003.85-1.228 4.726 4.726 0 001.155-2.303c.185-.91.273-1.838.273-2.766zM120.855 28l-.007-12.412a4.807 4.807 0 00-.701-2.782c-.473-.672-1.355-1.01-2.637-1.01a3.133 3.133 0 00-2.137.718c-.585.486-1.047 1.132-1.373 1.838a7.647 7.647 0 00-.567 2.648c-.05 1-.077 1.876-.077 2.728v8.2h-4.851V7.84h4.085l.35 2.594a5.422 5.422 0 012.54-2.34 8.116 8.116 0 013.397-.768 7.286 7.286 0 012.89.541 6.18 6.18 0 012.134 1.49c.598.643 1.099 1.438 1.34 2.282.315.925.473 1.903.465 2.882V28zM96.25 44h.02c-.062.608.24 1.191.73 1.492.528.265 1.06.445 1.61.508l1.155.148.932.12c.303.038.635.084.97.133l1.244.192c1.475.2 2.855.841 3.957 1.838a5.019 5.019 0 011.54 3.838 6.282 6.282 0 01-.485 2.552 6.086 6.086 0 01-1.259 1.857 7.146 7.146 0 01-3.026 1.78c-1.26.371-2.57.542-3.884.542-1.225 0-2.445-.177-3.608-.56a7.67 7.67 0 01-4.423-3.811 5.622 5.622 0 01-.62-2.629h4.52c.004.455.11.904.311 1.313.176.4.44.757.77 1.043.386.309.828.54 1.296.644.58.189 1.176.262 1.773.246.45 0 .893-.034 1.336-.095.462-.065.891-.151 1.34-.384a2.66 2.66 0 001.028-.767 2.02 2.02 0 00.408-1.317 1.938 1.938 0 00-.543-1.431 2.63 2.63 0 00-1.475-.695 58.468 58.468 0 00-2.795-.33 20.513 20.513 0 01-2.795-.445 6.092 6.092 0 01-3.338-1.953 5.24 5.24 0 01-1.278-3.423 5.61 5.61 0 01.581-2.651c.37-.755.87-1.346 1.475-1.873a7.979 7.979 0 012.695-1.493c1.116-.389 2.29-.537 3.465-.522a10.694 10.694 0 013.511.584 6.818 6.818 0 012.814 1.776 7.55 7.55 0 011.298 1.953c.32.687.5 1.432.5 2.188h-4.635a2.21 2.21 0 00-.235-1.044c-.13-.324-.35-.599-.581-.852a3.008 3.008 0 00-1.155-.68 4.607 4.607 0 00-1.494-.249c-.362 0-.712.012-1.047.039a3.265 3.265 0 00-1.047.272c-.433.146-.806.45-1.11.81-.3.336-.458.839-.446 1.336zM106 18.546v.833H92.508c0 .752.13 1.497.385 2.207A4.35 4.35 0 0094 23.324c.378.348.802.676 1.26.87.538.265 1.13.397 1.74.385a5.933 5.933 0 001.714-.215c.466-.15.887-.414 1.224-.768.47-.471.806-1.06.97-1.703h4.682a5.694 5.694 0 01-.59 1.953 9.371 9.371 0 01-1.115 1.761 7.313 7.313 0 01-3.08 2.164 10.656 10.656 0 01-3.727.66 8.92 8.92 0 01-3.63-.679A10.587 10.587 0 0190.713 26a10.01 10.01 0 01-2.31-3.566 12.315 12.315 0 01-.797-4.525 13.581 13.581 0 01.72-4.505 9.167 9.167 0 012.19-3.541A8.608 8.608 0 0193.255 8 9.477 9.477 0 0197 7.31c1.41-.01 2.84.3 4.151.91a7.772 7.772 0 013.184 2.78 9.55 9.55 0 011.417 3.429c.248 1.193.312 2.402.308 3.571-.06.209-.06.378-.06.546zm-4.791-2.686A5.265 5.265 0 00100 12.341c-.385-.341-.816-.662-1.294-.851a4.73 4.73 0 00-1.801-.311 4.365 4.365 0 00-1.983.426 3.955 3.955 0 00-1.394 1.12c-.346.41-.608.883-.77 1.393a6.852 6.852 0 00-.273 1.742zm-1.57-14.735a.65.65 0 01.082.5c-.041.172-.15.32-.302.375L94 5.204A.66.66 0 0193.103 5c-.193-.284-.103-.676.167-.878L98.352.404a.656.656 0 01.506-.113.751.751 0 01.43.29zM85.55 12.107c-1.705 0-3 .541-3.88 1.624a6.253 6.253 0 00-1.321 4.063V27.93h-4.89V7.825h4.104L80 10.84a4.529 4.529 0 012.302-2.513 7.763 7.763 0 013.395-.768c.509 0 1.013.038 1.513.115v4.636a7.908 7.908 0 00-1.67-.192zm-7.68 26.267l.007.027c1.122-.401 2.29-.537 3.465-.522a10.736 10.736 0 013.515.583 6.845 6.845 0 012.814 1.777c.532.58.97 1.239 1.328 1.953a5.65 5.65 0 01.455 2.187h-4.62a2.24 2.24 0 00-.235-1.044 2.955 2.955 0 00-.6-.851 2.803 2.803 0 00-1.136-.68 4.604 4.604 0 00-1.494-.25c-.37 0-.712.013-1.051.04a3.596 3.596 0 00-1.047.272c-.431.134-.811.451-1.105.81-.301.324-.46.838-.447 1.324-.061.596.28 1.18.77 1.48a4.75 4.75 0 001.571.52l1.155.137.932.119c.312.038.635.084.97.134l1.243.192c1.476.2 2.856.84 3.958 1.838a5.018 5.018 0 011.54 3.837 6.246 6.246 0 01-.485 2.552 6.05 6.05 0 01-1.263 1.857 7.148 7.148 0 01-3.026 1.78 13.69 13.69 0 01-3.87.554c-1.215 0-2.444-.192-3.606-.576a7.657 7.657 0 01-4.424-3.81A5.609 5.609 0 0172.56 52h4.543c.005.44.11.888.308 1.297.176.4.439.757.77 1.044.385.31.818.54 1.301.659.574.174 1.17.243 1.764.231.446 0 .897-.034 1.34-.096a5.457 5.457 0 001.34-.384A3.442 3.442 0 0084.999 54c.24-.394.385-.86.362-1.332a1.938 1.938 0 00-.542-1.431 2.656 2.656 0 00-1.475-.695c-.909-.13-1.84-.238-2.795-.33-.94-.088-1.871-.212-2.795-.445a6.023 6.023 0 01-3.338-1.953 5.17 5.17 0 01-1.278-3.423 5.61 5.61 0 01.581-2.652c.37-.739.87-1.346 1.475-1.872a8.081 8.081 0 012.675-1.493zM68 15.419c0-1.24-.224-2.199-.648-2.882-.423-.683-1.247-1.024-2.464-1.024a3.246 3.246 0 00-1.786.487c-.5.341-.917.779-1.225 1.29a6.212 6.212 0 00-.716 1.71 8.174 8.174 0 00-.23 1.942V27.93h-4.813V15.42c.058-1.002-.118-2-.643-2.882-.424-.683-1.247-1.024-2.475-1.024a3.267 3.267 0 00-1.775.487c-.5.344-.923.78-1.225 1.29a5.734 5.734 0 00-.754 1.71A8.61 8.61 0 0049 16.942V27.93h-4.798V7.799H48.2l.384 2.685c.578-.933 1.417-1.715 2.31-2.283a6.388 6.388 0 013.465-.89 6.782 6.782 0 013.57.87A5.81 5.81 0 0160.14 10.6a6.112 6.112 0 012.464-2.436 7.579 7.579 0 013.63-.852c2.172 0 3.765.689 4.91 1.953 1.097 1.305 1.647 2.997 1.647 5.088V27.93H68zM43.66 30.534c1.224 1.689.785 3.466-.193 4.405a3.313 3.313 0 01-2.272.937 3.666 3.666 0 01-2.144-.718 1 1 0 01-.285-.28c-1.244-1.692-.766-3.442.181-4.424.97-.983 2.737-1.454 4.435-.185l.281.284zm-1.013 3.603c.577-.568.943-1.669.1-2.87l-.089-.088c-1.205-.852-2.298-.495-2.887.092-.59.587-.959 1.729-.066 2.92l.023.023c1.22.875 2.334.507 2.919-.077zM41.71 19.38H28.205c0 .752.131 1.497.385 2.207a4.33 4.33 0 001.105 1.738c.378.35.801.676 1.305.87a3.447 3.447 0 001.683.385 5.968 5.968 0 001.729-.215 2.946 2.946 0 001.22-.768c.47-.471.805-1.06.97-1.703h4.674a5.464 5.464 0 01-.6 1.953 9.046 9.046 0 01-1.11 1.761 7.238 7.238 0 01-3.08 2.164 10.781 10.781 0 01-3.726.66 8.881 8.881 0 01-3.627-.679c-2.349-.998-4.133-2.925-5.043-5.318a12.314 12.314 0 01-.797-4.525c-.009-1.532.24-3.054.707-4.505a9.59 9.59 0 012.223-3.541A8.324 8.324 0 0129 8a9.108 9.108 0 013.664-.69 9.695 9.695 0 014.192.91C38.161 8.84 39.264 9.811 40 11c.743 1 1.222 2.209 1.446 3.429A20.23 20.23 0 0141.757 18a4.14 4.14 0 00-.038.546zm-4.805-3.519c-.026-1.47-.438-2.644-1.243-3.519-.352-.341-.782-.663-1.26-.851a4.75 4.75 0 00-1.805-.311 4.35 4.35 0 00-1.979.426 3.997 3.997 0 00-1.397 1.12 4.264 4.264 0 00-.77 1.393 6.681 6.681 0 00-.27 1.742zm-7.218 15.2l.015 27.421h-4.85v-19.57L17.71 58.098H14L6.907 38.68v19.804h-4.85V31.06h6.752L16 50.596l7.285-19.536zM6.503 10.223l.015.004c.565.502 1.27.773 2.022.91.878.13 1.886.245 2.968.349a64.73 64.73 0 013.007.349c1.009.165 1.994.425 2.93.829.883.336 1.69.927 2.383 1.596a7.218 7.218 0 011.628 2.375c.412.994.62 2.061.605 3.136.029 1.142-.19 2.229-.643 3.326a8.378 8.378 0 01-1.648 2.399 9.028 9.028 0 01-3.85 2.26c-1.567.46-3.195.69-4.832.68-1.478 0-2.949-.216-4.365-.638-1.434-.428-2.723-1.176-3.85-2.187a8.86 8.86 0 01-2.056-2.767A8.217 8.217 0 010 19.23h5.144c-.01.646.12 1.287.385 1.877.25.55.594 1.052 1.016 1.485a4.37 4.37 0 002.172 1.186c1.705.401 3.483.388 5.182-.039a4.233 4.233 0 002.826-2.214A2.499 2.499 0 0017 20a2.592 2.592 0 00-.941-2.298 5.203 5.203 0 00-2.272-.986 25.206 25.206 0 00-3.08-.384A38.125 38.125 0 017.681 16 10.778 10.778 0 015 15.17a7.383 7.383 0 01-2.224-1.535 6.75 6.75 0 01-1.513-2.28 7.71 7.71 0 01-.566-3.039 6.666 6.666 0 01.662-2.978 8.942 8.942 0 011.745-2.436A9.408 9.408 0 016.599.768 13.6 13.6 0 0111.165 0c1.45 0 2.891.233 4.266.691a9.124 9.124 0 013.434 1.996A9.562 9.562 0 0120.86 5.3c.509.996.781 2.095.797 3.212h-5.102a3.912 3.912 0 00-.385-1.45c-.17-.469-.512-.899-.87-1.27a4.37 4.37 0 00-1.863-1.083 7.633 7.633 0 00-2.31-.384 9.656 9.656 0 00-2.387.311A3.951 3.951 0 006 6.84a2.97 2.97 0 00-.267 1.316c-.052.767.267 1.52.77 2.068zm25.96 39.912l-.015-.004a5.81 5.81 0 011.455-1.918A5.845 5.845 0 0136.075 47a8.778 8.778 0 012.695-.606L44.707 46v-1.268A3.505 3.505 0 0044 42.43c-.425-.58-1.338-.871-2.708-.871a4.245 4.245 0 00-2.657.733 2.787 2.787 0 00-1.032 2.13H32.93c.071-1.026.318-2.03.794-2.94.436-.807 1.054-1.482 1.805-2.03a7.927 7.927 0 012.599-1.182c1.04-.27 2.11-.391 3.184-.384a11.281 11.281 0 014.62.91A5.501 5.501 0 0148.86 42a7.19 7.19 0 01.485 2c.061.694.096 1.38.096 2v7.497a1.53 1.53 0 00.25.986c.237.216.555.32.874.288.143.007.289-.004.434-.039a.489.489 0 00.19-.038v3.561c-.347.153-.705.288-1.07.403a4.883 4.883 0 01-1.336.138 3.316 3.316 0 01-2.449-.852 3.226 3.226 0 01-.97-1.944 5.881 5.881 0 01-2.31 2.098c-1.17.614-2.48.902-3.804.902a9.356 9.356 0 01-3.184-.534 6.741 6.741 0 01-2.268-1.393 5.745 5.745 0 01-1.378-2.01c-.31-.758-.42-1.563-.42-2.381a5.323 5.323 0 01.464-2.548zm4.212 2.437a2.245 2.245 0 00.87 1.838c.57.444 1.275.683 1.999.675a5.68 5.68 0 003.726-1.178c.96-.786 1.437-1.907 1.437-3.426v-.925l-5.12.383a3.937 3.937 0 00-2.022.737c-.565.444-.93 1.155-.89 1.896zM57.765 41a5.324 5.324 0 012.542-2.388 8.108 8.108 0 013.395-.768 7.095 7.095 0 012.892.541 6.174 6.174 0 013.472 3.772c.316.925.474 1.904.466 2.843v13.47h-4.85V46.129A4.933 4.933 0 0065 43.347c-.493-.672-1.375-1.005-2.657-1.005a3.217 3.217 0 00-2.133.713 5.086 5.086 0 00-1.359 1.838 7.271 7.271 0 00-.581 2.61c-.05.994-.077 1.915-.077 2.767v8.219h-4.85V38.374h4.072zm77.713 0c.522-1.082 1.462-1.903 2.522-2.388a8.258 8.258 0 013.414-.768 7.095 7.095 0 012.892.541c.808.342 1.54.852 2.136 1.493.558.659 1.055 1.435 1.336 2.28.316.924.474 1.903.466 2.842v13.47h-4.85V46.129a4.821 4.821 0 00-.698-2.782c-.473-.672-1.355-1.005-2.637-1.005a3.221 3.221 0 00-2.137.713 5.086 5.086 0 00-1.359 1.838c-.353.827-.563 1.712-.563 2.61a38.122 38.122 0 00-.095 2.767v8.219h-4.843V38.374h4.073z"/></svg>