<svg xmlns="http://www.w3.org/2000/svg" viewBox="0 0 98.35 98.67"><path d="M92.47 74.28l5.88-5.8v-.71l-5.88 5.81-2.86-2.83-6.5-6.4-5 5 14.36 14.17 5.88-5.81V77l-5.88 5.81L78.81 69.3l4.32-4.3 5.81 5.72zm5.88-25.08L87.44 60l5 5 5.88-5.81v-.7l-5.88 5.81-4.28-4.3 10.19-10.09zm-9.3 39.52L79.7 98l-5.9-5.83L67.9 98l-2.85-2.83-6.5-6.4-5 5 4.68 4.63h.71l-4.68-4.63 4.32-4.27 5.81 5.72 3.2 3.16.35.35.35-.35 5.55-5.48 5.55 5.48.35.35.35-.35 3-3 .2-.2 5.78-5.7 4.31 4.27-4.68 4.63h.71l4.68-4.63zM73.8 73.57l-10.92 10.8 5 5 5.9-5.83 5.9 5.83 5-5zm0 9.24l-5.9 5.83-4.31-4.27L73.8 74.28 84 84.37l-4.3 4.27zm-9.36-18.48l-9.35 9.25-5.9-5.83-5.89 5.83-2.86-2.83L34 64.33l-5 5 14.3 14.19 5.89-5.83 5.9 5.83L69.47 69.3zM49.19 77l-5.89 5.82L29.63 69.3 34 65l5.81 5.72 3.56 3.51 5.89-5.82 5.9 5.82 3.38-3.34.17-.16L64.44 65l4.31 4.27-13.66 13.55zm0-27.81L38.27 60l5 5 5.89-5.83L55.09 65l5-5zm0 9.24l-5.89 5.82L39 60l10.19-10.11L59.41 60l-4.32 4.27zm-9.32 30.3L30.52 98l-5.89-5.83-5.9 5.83-2.86-2.83-6.51-6.4-5 5L9 98.32h.72l-4.65-4.63 4.31-4.27 5.81 5.72 3.21 3.16.35.35.35-.35 5.55-5.48 5.54 5.48.35.35.36-.35 3-3 .19-.2 5.78-5.7 4.32 4.27-4.68 4.63h.71l4.68-4.63zM24.63 73.57L13.7 84.37l5 5 5.9-5.83 5.89 5.83 5-5zm0 9.24l-5.9 5.83-4.32-4.27 10.22-10.09 10.21 10.09-4.32 4.27zm-9.37-18.48l-9.35 9.25L0 67.75v.71l5.89 5.82 3.41-3.34.14-.15L15.26 65l4.32 4.27L5.91 82.82 0 77v.7l5.89 5.83 14.4-14.23zM0 49.18v.71L10.23 60l-4.32 4.25L0 58.42v.7L5.91 65l5-5zm92.45-24.06l5.9-5.83v-.7l-5.9 5.83-2.86-2.83-6.5-6.4-5 5 14.36 14.17 5.9-5.83v-.71l-5.9 5.83-13.66-13.52 4.32-4.26 5.81 5.72zM98.35 0L87.42 10.82l5 5L98.35 10v-.7l-5.9 5.82-4.31-4.26L98.35.72zm-9.7 0l-9 8.88-5.9-5.83-5.9 5.83L58.91 0h-.71l9.68 9.58 5.9-5.83 5.9 5.83L89.36 0zm-9.32 0l.35.35L80 0zm-11.8 0l.35.35.35-.35zM89 39.56l-9.35 9.25L73.78 43l-5.9 5.83L65 46l-6.5-6.4-5 5 14.38 14.15 5.9-5.83 5.9 5.83 14.37-14.23zM73.78 52.21L67.88 58 54.22 44.52l4.32-4.26L64.35 46l3.55 3.51 5.9-5.83 5.9 5.83 3.38-3.34.16-.17L89 40.26l4.31 4.26L79.68 58zm0-27.8l-10.92 10.8 5 5 5.9-5.83 5.9 5.83 5-5zm0 9.24l-5.9 5.82-4.31-4.26 10.21-10.1L84 35.21l-4.32 4.26zm-9.36-18.48l-9.35 9.25-5.9-5.83-5.89 5.83-2.87-2.83-6.5-6.4-5 5 14.37 14.17 5.89-5.83 5.9 5.83 14.38-14.23zM49.17 27.82l-5.89 5.83-13.67-13.52 4.32-4.26 5.81 5.72 3.56 3.51 5.89-5.83 5.9 5.83 3.38-3.34.15-.15 5.83-5.75 4.31 4.26-13.69 13.53zm0-27.8l-10.92 10.8 5 5L49.17 10l5.9 5.83 5-5zm0 9.24l-5.89 5.82L39 10.82 49.17.72l10.22 10.1-4.32 4.26zM39.48 0l-9 8.88-5.87-5.83-5.9 5.83L9.74 0H9l9.69 9.58 5.9-5.83 5.91 5.83L40.19 0zm-9.33 0l.35.35.35-.35zM18.36 0l.35.35.35-.35zm21.49 39.56l-9.35 9.25L24.61 43l-5.9 5.83L15.85 46l-6.51-6.4-5 5 14.37 14.15 5.9-5.83 5.89 5.83 14.38-14.23zM24.61 52.21L18.71 58 5.05 44.52l4.31-4.26L15.17 46l3.56 3.51 5.9-5.83 5.89 5.83 3.39-3.34L34 46l5.82-5.75 4.32 4.26L30.5 58zm0-27.8l-10.93 10.8 5 5 5.9-5.83 5.89 5.83 5-5zm0 9.24l-5.9 5.82-4.32-4.26 10.22-10.1 10.21 10.1-4.32 4.26zm-9.37-18.48l-9.35 9.25L0 18.59v.7l5.89 5.83 3.39-3.34.14-.15 5.82-5.75 4.32 4.26L5.89 33.65 0 27.82v.71l5.89 5.83 14.38-14.23zM0 0v.7l10.21 10.1-4.32 4.28L0 9.26V10l5.89 5.83 5-5z" fill="#006d6a" id="Layer_2" data-name="Layer 2"/></svg>