<svg xmlns="http://www.w3.org/2000/svg" width="50" height="50"><g fill="none" fill-rule="evenodd"><circle cx="25" cy="25" r="20.833" stroke="#FFF" stroke-linecap="round" stroke-linejoin="round" stroke-width="2"/><path stroke="#FFF" stroke-linecap="round" stroke-linejoin="round" stroke-width="2" d="M21.875 18.681l-8.447 5.631a2.083 2.083 0 00-.928 1.734v3.394a1.042 1.042 0 001.483.944l7.892-3.69m6.25 0l7.892 3.69a1.042 1.042 0 001.483-.944v-3.394a2.08 2.08 0 00-.928-1.733l-8.447-5.632m0 0v-5.14c0-1.725-1.4-3.124-3.125-3.124h0a3.125 3.125 0 00-3.125 3.125v5.139m0 8.013v4.327l-2.292 1.718a2.083 2.083 0 00-.833 1.667v2.052a1.042 1.042 0 001.294 1.01L25 36.23l4.956 1.238a1.042 1.042 0 001.294-1.01v-2.052c0-.656-.309-1.273-.834-1.667l-2.291-1.718v-4.327"/><path d="M50 0H0v50h50z"/></g></svg>