<svg xmlns="http://www.w3.org/2000/svg" width="50" height="50"><g fill="none" fill-rule="evenodd"><path d="M0 0h50v50H0z"/><path stroke="#323232" stroke-linecap="round" stroke-linejoin="round" stroke-width="2" d="M14.583 10.417h4.167c1.15 0 2.083.932 2.083 2.083v4.167H12.5V12.5h0c0-1.15.933-2.083 2.083-2.083h0zm2.084-4.167v4.167M25 31.25v-12.5h0c0-1.15-.933-2.083-2.083-2.083h-12.5 0c-1.15 0-2.084.932-2.084 2.083 0 0 0 0 0 0v25m30.188-6.25v6.25"/><rect width="10.417" height="14.583" x="33.333" y="22.917" stroke="#323232" stroke-linecap="round" stroke-linejoin="round" stroke-width="2" rx="1.381"/><path stroke="#323232" stroke-linecap="round" stroke-linejoin="round" stroke-width="2" d="M16.667 37.5h12.5m-10.229 6.25V37.5m8.145 6.25V37.5"/><circle cx="35.417" cy="10.417" r="4.167" stroke="#323232" stroke-linecap="round" stroke-linejoin="round" stroke-width="2"/><path stroke="#323232" stroke-linecap="round" stroke-linejoin="round" stroke-width="2" d="M13.542 29.167h6.25m-6.25-6.25h6.25M45.833 43.75H4.167"/></g></svg>