<svg xmlns="http://www.w3.org/2000/svg" width="50" height="50"><g fill="none" fill-rule="evenodd"><path d="M0 0h50v50H0z"/><path stroke="#FFF" stroke-linecap="round" stroke-linejoin="round" stroke-width="2" d="M43.75 34.375v7.292c0 1.15-.933 2.083-2.083 2.083H37.5a2.083 2.083 0 01-2.083-2.083v-3.125m-20.834 0v3.125c0 1.15-.932 2.083-2.083 2.083H8.333a2.083 2.083 0 01-2.083-2.083v-7.292"/><path stroke="#FFF" stroke-linecap="round" stroke-linejoin="round" stroke-width="2" d="M6.25 34.375v-5.739c0-1.659.659-3.25 1.831-4.424l2.336-2.337h29.166l2.336 2.335a6.252 6.252 0 011.831 4.421v5.744a4.167 4.167 0 01-4.167 4.167H10.417a4.167 4.167 0 01-4.167-4.167zm37.5-14.583l-4.167 1.041m-29.166 0L6.25 19.792"/><path stroke="#FFF" stroke-linecap="round" stroke-linejoin="round" stroke-width="2" d="M10.417 21.875v-1.054l1.741-6.536a5.21 5.21 0 015.035-3.868H32.99a5.208 5.208 0 015.066 4l1.527 6.404v1.054M12.5 30.208h4.167m16.666 0H37.5"/></g></svg>