<svg xmlns="http://www.w3.org/2000/svg" width="50" height="50"><g fill="none" fill-rule="evenodd"><path d="M0 0h50v50H0z"/><path stroke="#0F9589" stroke-linecap="round" stroke-linejoin="round" stroke-width="2" d="M34.375 45.833a9.376 9.376 0 11.002-18.751 9.376 9.376 0 01-.002 18.751"/><path stroke="#0F9589" stroke-linecap="round" stroke-linejoin="round" stroke-width="2" d="M37.5 20.833v-4.525a4.17 4.17 0 00-1.22-2.945L30.386 7.47a4.168 4.168 0 00-2.945-1.221H12.5a4.166 4.166 0 00-4.167 4.167v29.166A4.166 4.166 0 0012.5 43.75h8.333"/><path stroke="#0F9589" stroke-linecap="round" stroke-linejoin="round" stroke-width="2" d="M37.5 16.667h-8.333a2.084 2.084 0 01-2.084-2.084V6.25m10.744 28.483L33.51 39.05l-2.587-2.592"/></g></svg>