<svg xmlns="http://www.w3.org/2000/svg" width="139" height="90"><path d="M31 15.511L20.107 26.396l-4.593-4.574-4.595 4.574L0 15.511l3.638-3.623 4.798 4.756-.015.016 2.498 2.488 4.595-4.575 4.593 4.575 2.5-2.488-.003-.001.284-.308 4.5-4.463zm-20.081-3.687l-3.64-3.625L15.514 0l8.234 8.2-3.64 3.624-4.595-4.576zM127 53l-5.062-13.505L116.928 53zm11.946 13.47h-7.728l-2.484-7.115-13.514-.044-2.453 7.16h-7.536L117.26 33.5h9.611zM89.353 49.55l11.912 16.921H93L83.517 53h-3.843v13.47h-7.166V33.5h7.166v13.335h3.843L93.083 33.5h7.85zM63.583 33.5v32.97h-7.196V39.851H46.235l-.114 9.23-.04 2.638L46 54.234v1.376c-.13 4.105-1 6.942-2.72 8.51-1.684 1.567-4.28 2.35-7.672 2.35h-1.266v-6.35h.122c1.398 0 2.536-.325 3.288-.97.794-.647 1.248-1.924 1.248-3.831V55l.061-2.81.121-6.642.018-1.281.014-1.402.012-1.917.004-1.8V33.5zm-59.982 0h23.8v6.352H10.89v6.983h15.833V53H10.89v7.12h16.365v6.35H3.601zm-.035 54.262V77.116h1.896v4.383H7l3-4.383h2.282l-3.698 5.213 3.839 5.433H10.09L7 83.284H5.462v4.478zm17.817.156a6.042 6.042 0 01-2.105-.352c-.637-.235-1.184-.566-1.64-1.041-.455-.46-.81-1.03-1.064-1.714-.253-.684-.38-1.474-.38-2.372 0-.877.127-1.66.38-2.348.254-.69.609-1.263 1.065-1.722a4.524 4.524 0 011.638-1.05c.638-.239 1.34-.319 2.106-.319.777 0 1.487.08 2.129.32.642.24 1.189.59 1.64 1.049.45.459.848 1.033 1.056 1.722.254.688.38 1.471.38 2.348 0 .898-.126 1.688-.38 2.372-.208.683-.606 1.255-1.057 1.714-.45.475-.997.806-1.64 1.04a6.01 6.01 0 01-1.871.349zm0-1.706c1.046 0 1.855-.342 2.424-1.025.57-.685.855-1.6.855-2.748 0-1.158-.286-2.077-.855-2.756-.57-.683-1.378-1.017-2.424-1.017-1.036 0-1.84.334-2.383 1.017-.608.679-.895 1.597-.895 2.756 0 1.148.287 2.063.895 2.748.508.643 1.253.983 2.203 1.021zm10.375 1.55V77.116h4.506c1.16 0 2.069.285 2.736.884.648.538 1 1.391 1 2.529 0 1.127-.354 1.983-1 2.567-.68.585-1.628.904-2.86.904h-2.486v3.762zm1.896-5.464h2.44c.683 0 1.18-.151 1.49-.454.312-.302.467-.736.467-1.3 0-.615-.153-1.061-.458-1.338-.306-.277-.806-.415-1.5-.415h-2.44zm11.276 5.464V77.116h8.887v10.646h-1.895V78.9h-5.096v8.86zm19.262.156a6.036 6.036 0 01-2.105-.352c-.637-.235-1.183-.566-1.64-1.041a4.837 4.837 0 01-1.063-1.714c-.254-.684-.384-1.474-.384-2.372 0-.877.13-1.66.384-2.348a4.823 4.823 0 011.063-1.722 4.526 4.526 0 011.64-1.05c.637-.239 1.339-.319 2.105-.319.808 0 1.486.08 2.129.32.679.24 1.189.59 1.679 1.049.41.459.763 1.033 1 1.722.27.688.397 1.471.397 2.348 0 .898-.126 1.688-.397 2.372a5.028 5.028 0 01-1 1.714c-.49.475-1 .806-1.68 1.04a6.01 6.01 0 01-1.871.349zm0-1.706c1.047 0 1.808-.342 2.424-1.025.57-.685.855-1.6.855-2.748 0-1.158-.286-2.077-.855-2.756-.616-.683-1.377-1.017-2.424-1.017-1.035 0-1.84.334-2.416 1.017-.575.679-.862 1.597-.862 2.756 0 1.148.287 2.063.862 2.748.541.643 1.287.983 2.224 1.021zm10.375 1.55V77.116h4.506c1.16 0 2.069.285 2.727.884.657.538.987 1.391.987 2.529 0 1.127-.332 1.983-.995 2.567-.663.585-1.61.904-2.843.904h-2.486v3.762zm1.896-5.464h2.44c.683 0 1.18-.151 1.49-.454.311-.302.467-.736.467-1.3 0-.615-.153-1.061-.458-1.338-.306-.277-.806-.415-1.5-.415h-2.44zm15.828-5.182l3.993 10.646h-2.02l-.978-2.693H88.81l-.948 2.693h-1.989l3.962-10.646zm-2.859 6.23h3.232L91 78.824zm20.46-6.23V86h1.46v4h-1.834v-2.238H101V77.116h1.884V86H108v-8.884zm13.45 10.646v-8.079L118 87.762h-2V77.116h1.904v8.016l5.236-8.016h2.082v10.646zm15.658 0h-1.896v-3.82h-2.33l-2.377 3.82h-2.16l2.58-4.04c-.705-.218-1.244-.597-1.617-1.134-.372-.538-.559-1.24-.559-2.106 0-1.117.359-1.957.995-2.482.662-.602 1.574-.884 2.734-.884H139zm-4.49-8.955c-.683 0-1.178.138-1.51.415-.28.277-.433.712-.433 1.307 0 .574.15 1.004.433 1.291.318.288.816.43 1.51.43h2.594v-3.443z"/></svg>