<svg xmlns="http://www.w3.org/2000/svg" width="181" height="117"><path fill="#fff" d="M40.403 20.164l-14.22 14.151-5.982-5.946-5.983 5.946L0 20.165l4.738-4.71L11 21.637v.022l3.218 3.234 5.983-5.948 5.982 5.948 3.254-3.234-.002-.003.369-.4 5.86-5.801zm-26.185-4.793l-4.74-4.712L20.202 0l10.722 10.66-4.74 4.71-5.982-5.947zm151.159 53.534l-6.594-17.562-6.525 17.562zm15.553 17.507h-10.064l-3.234-9.25L150 77.104l-3.16 9.307H137l15.69-42.862h12.515zm-64.578-21.998l15.51 21.998h-10.747l-12.362-17.523h-5.005v17.523h-9.33V43.55h9.33v17.335h5.005l12.456-17.335h10.221zM82.796 43.55v42.861h-9.372V51.807H60.206l-.15 11.998-.056 3.43-.06 3.269-.044 1.789c-.165 5.337-1.345 9.024-3.538 11.062-2.193 2.038-5.523 3.056-9.991 3.056h-1.649v-8.256h.16c1.82 0 3.247-.421 4.281-1.261 1.034-.84 1.573-2.5 1.615-4.98l.01-.464.08-3.603.136-8.635v-1.665l.063-1.822.015-2.493.005-2.338V43.55zm-78.107 0h30.99v8.257H14.181v9.078H34.8v8.004H14.18v9.266h21.31v8.257H4.688zm-.046 70.54v-13.84h2.47v5.7h2.062l3.885-5.7H16L11.178 107l4.998 7.09h-3.035l-3.986-5.82H7.112v5.82zm23.201.203c-.998 0-1.911-.152-2.742-.458-.828-.305-1.54-.755-2.102-1.353-.625-.597-1.087-1.34-1.418-2.228-.33-.888-.495-1.917-.495-3.084 0-1.17.165-2.17.495-3.052.33-.896.793-1.642 1.418-2.239.561-.597 1.274-1.051 2.102-1.363a7.753 7.753 0 012.742-.516c1.012 0 1.936.204 2.772.516a5.768 5.768 0 012.135 1.363c.587.597 1.045 1.343 1.375 2.24.331.881.496 1.881.496 3.051 0 1.167-.165 2.196-.496 3.084-.33.889-.788 1.631-1.375 2.228a5.661 5.661 0 01-2.135 1.353 7.836 7.836 0 01-2.438.453zm0-2.218c1.362 0 2.415-.444 3.156-1.332.742-.89 1.114-2.08 1.114-3.573 0-1.505-.372-2.7-1.114-3.582-.741-.881-1.794-1.322-3.156-1.322-1.349 0-2.397.441-3.146 1.322-.749.882-1.123 2.077-1.123 3.582 0 1.493.374 2.683 1.123 3.573.705.836 1.675 1.257 2.911 1.328zm13.51 2.015v-13.84h5.868c1.51 0 2.694.371 3.55 1.11.857.74 1.285 1.849 1.285 3.327 0 1.466-.432 2.579-1.295 3.313-.863.785-2.097 1.165-3.703 1.165h-3.236v4.925zm2.469-7.09H47c.889 0 1.537-.209 1.941-.603.405-.397.607-.956.607-1.689 0-.8-.199-1.38-.548-1.708-.447-.392-1.097-.571-2-.571h-3.177zm14.682 7.09v-13.84h11.573v13.84H67.61v-11.519H61v11.52zm25.083.203c-.998 0-1.911-.152-2.74-.458a5.639 5.639 0 01-2.136-1.353c-.593-.597-1.055-1.34-1.385-2.228-.327-.888-.496-1.917-.496-3.084 0-1.17.169-2.17.496-3.052.33-.896.792-1.642 1.385-2.239a5.744 5.744 0 012.135-1.363 7.745 7.745 0 012.741-.516c1.012 0 1.936.204 2.772.516a5.767 5.767 0 012.135 1.363c.587.597 1.045 1.343 1.375 2.24.331.881.496 1.881.496 3.051 0 1.167-.165 2.196-.496 3.084-.33.889-.788 1.631-1.375 2.228a5.661 5.661 0 01-2.135 1.353 7.836 7.836 0 01-2.438.453zm0-2.218c1.412 0 2.412-.444 3.156-1.332.742-.89 1.114-2.08 1.114-3.573 0-1.505-.372-2.7-1.114-3.582-.744-.881-1.744-1.322-3.156-1.322-1.348 0-2.397.441-3.146 1.322-.749.882-1.123 2.077-1.123 3.582 0 1.493.374 2.683 1.123 3.573.705.836 1.675 1.257 2.912 1.328zm13.51 2.015v-13.84H103c1.476 0 2.66.371 3.516 1.11.857.74 1.285 1.849 1.285 3.327 0 1.466-.432 2.579-1.295 3.313-.863.785-2.097 1.165-3.703 1.165h-3.236v4.925zm2.469-7.09h3.176c.89 0 1.538-.209 1.942-.603.405-.397.607-.956.607-1.689 0-.8-.199-1.38-.596-1.708-.399-.392-1.05-.571-1.953-.571h-3.176zm20.61-6.75l5.2 13.84h-2.63l-1.275-3.5h-5.826l-1.234 3.5h-2.59L117 100.25zm-3.722 8.1h4.208l-2.124-5.88zm26.64-8.1v11.52H145V117h-2.39v-2.91h-11.108v-13.84H134v11.52h6.627v-11.52zm17.517 13.84v-10.502l-6.92 10.502h-2.61v-13.84h2.448v10.421l6.818-10.42h2.711v13.84zm20.388 0h-2.468v-4.965h-3.035l-3.096 4.965h-2.812l3.36-5.25c-.949-.285-1.62-.778-2.106-1.476-.485-.698-.727-1.611-.727-2.737 0-1.453.43-2.544 1.294-3.277.863-.733 2.05-1.1 3.59-1.1h6zm-5.847-11.64c-.89 0-1.534.178-1.932.55-.398.348-.597.915-.597 1.688 0 .746.195 1.312.586 1.678.392.374 1.04.56 1.943.56h3.379v-4.477z"/></svg>