<svg xmlns="http://www.w3.org/2000/svg" width="50" height="50"><g fill="none" fill-rule="evenodd"><g stroke="#0F9589" stroke-linecap="round" stroke-linejoin="round" stroke-width="2"><path d="M38.363 13.363L32.47 7.47a4.168 4.168 0 00-2.946-1.221h-14.94a4.166 4.166 0 00-4.167 4.167v29.166a4.166 4.166 0 004.167 4.167h20.833a4.166 4.166 0 004.167-4.167V16.308c0-1.104-.44-2.164-1.221-2.945h0z"/><path d="M39.584 16.667H31.25a2.084 2.084 0 01-2.083-2.084V6.25m-7.625 28.229h6.917m-5.889-7.914V24.13c0-.67.543-1.214 1.214-1.214h2.433c.67 0 1.215.543 1.215 1.214v2.434c0 .67-.544 1.214-1.215 1.214h-2.433a1.217 1.217 0 01-1.215-1.214zm-5.903 9.72v-2.433c0-.67.544-1.214 1.215-1.214h2.433c.67 0 1.215.543 1.215 1.214v2.433c0 .671-.544 1.215-1.215 1.215h-2.433a1.215 1.215 0 01-1.215-1.215zm11.806 0v-2.433c0-.67.544-1.214 1.215-1.214h2.433c.671 0 1.215.543 1.215 1.214v2.433a1.218 1.218 0 01-1.217 1.215h-2.433a1.214 1.214 0 01-1.213-1.215h0zm1.194-3.639l-3.146-4.917m-6.187 4.917l3.146-4.917"/></g><path d="M0 0h50v50H0z"/></g></svg>