<svg xmlns="http://www.w3.org/2000/svg" width="64" height="63"><path fill="#FFF" d="M31.938 62.782c4.291 0 8.328-.818 12.11-2.454a31.754 31.754 0 009.983-6.78 32.297 32.297 0 006.782-10c1.646-3.782 2.468-7.819 2.468-12.11 0-4.292-.822-8.328-2.468-12.11a32.297 32.297 0 00-6.782-10c-2.874-2.885-6.208-5.145-10-6.78C40.24.911 36.199.093 31.907.093c-4.292 0-8.329.818-12.11 2.453a31.754 31.754 0 00-9.984 6.781 32.073 32.073 0 00-6.766 10C1.412 23.11.594 27.146.594 31.438c0 4.291.818 8.328 2.453 12.11a31.941 31.941 0 006.781 10 31.941 31.941 0 0010 6.78c3.782 1.636 7.818 2.453 12.11 2.453zm0-4.032c-3.792 0-7.334-.708-10.625-2.125a27.593 27.593 0 01-8.688-5.875 27.328 27.328 0 01-5.86-8.703c-1.405-3.302-2.108-6.838-2.108-10.61 0-3.77.703-7.307 2.109-10.609a27.642 27.642 0 015.844-8.718 27.021 27.021 0 018.687-5.875c3.302-1.407 6.839-2.11 10.61-2.11 3.791 0 7.333.703 10.625 2.11a27.432 27.432 0 018.703 5.875 27.6 27.6 0 015.89 8.718c1.417 3.302 2.125 6.839 2.125 10.61 0 3.77-.703 7.307-2.11 10.61a27.328 27.328 0 01-5.858 8.702c-2.5 2.5-5.407 4.459-8.72 5.875-3.312 1.417-6.853 2.125-10.624 2.125zm-5.969-15.062l17.875-10.625c.604-.375.901-.896.89-1.563-.01-.666-.307-1.177-.89-1.531L25.969 19.25c-.604-.375-1.219-.437-1.844-.187s-.937.719-.937 1.406v22c0 .688.302 1.156.906 1.406.604.25 1.23.188 1.875-.187z"/></svg>