<svg xmlns="http://www.w3.org/2000/svg" width="65" height="65" viewBox="0 0 65 65"><g><g><g/><g><path fill="none" stroke="#fff" stroke-linecap="round" stroke-linejoin="round" stroke-miterlimit="20" stroke-width="2.17" d="M50.11 60.938a9.48 9.48 0 0 0 9.478-9.479c0-5.235-4.244-9.459-9.479-9.459-5.235 0-9.479 4.224-9.479 9.46a9.48 9.48 0 0 0 9.48 9.478z"/></g><g><path fill="none" stroke="#fff" stroke-linecap="round" stroke-linejoin="round" stroke-miterlimit="20" stroke-width="2.17" d="M53.26 49.88v0l-3.948 3.95v0l-2.372-2.37v0"/></g><g><path fill="none" stroke="#fff" stroke-linecap="round" stroke-linejoin="round" stroke-miterlimit="20" stroke-width="2.17" d="M21.218 21.668H43.78c1.495 0 2.708-1.212 2.708-2.668v-2.301c0-3.699-1.488-7.268-4.097-9.892a13.99 13.99 0 0 0-9.892-4.097v0a13.99 13.99 0 0 0-9.892 4.097A14.077 14.077 0 0 0 18.51 16.7V19c0 1.456 1.213 2.668 2.708 2.668z"/></g><g><path fill="none" stroke="#fff" stroke-linecap="round" stroke-linejoin="round" stroke-miterlimit="20" stroke-width="2.17" d="M17.6 21.664h29.792"/></g><g><path fill="none" stroke="#fff" stroke-linecap="round" stroke-linejoin="round" stroke-miterlimit="20" stroke-width="2.17" d="M43.337 21.67v5.415c0 5.983-4.85 10.834-10.834 10.834v0c-5.983 0-10.833-4.85-10.833-10.834V21.67v0"/></g><g><path fill="none" stroke="#fff" stroke-linecap="round" stroke-linejoin="round" stroke-miterlimit="20" stroke-width="2.17" d="M26.815 36.3l-1.961 7.844"/></g><g><path fill="none" stroke="#fff" stroke-linecap="round" stroke-linejoin="round" stroke-miterlimit="20" stroke-width="2.17" d="M36.565 3.31V7c0 2.289-1.819 4.108-4.063 4.108v0c-2.243 0-4.062-1.82-4.062-4.108V3.31v0"/></g><g><path fill="none" stroke="#fff" stroke-linecap="round" stroke-linejoin="round" stroke-miterlimit="20" stroke-width="2.17" d="M38.194 36.3l1.08 4.32"/></g><g><path fill="none" stroke="#fff" stroke-linecap="round" stroke-linejoin="round" stroke-miterlimit="20" stroke-width="2.17" d="M35.213 46a15.05 15.05 0 0 1-11.004-2.259h0a2.455 2.455 0 0 0-1.84-.363l-7.708 1.541a8.114 8.114 0 0 0-6.531 7.967v1.277"/></g></g></g></svg>