<svg xmlns="http://www.w3.org/2000/svg" width="59" height="46" viewBox="0 0 59 46"><g><g><g><path fill="none" stroke="#fff" stroke-linecap="round" stroke-linejoin="round" stroke-miterlimit="20" stroke-width="2.17" d="M18.662 21.504a9.452 9.452 0 1 0 0-18.904 9.452 9.452 0 0 0 0 18.904z"/></g><g><path fill="none" stroke="#fff" stroke-linecap="round" stroke-linejoin="round" stroke-miterlimit="20" stroke-width="2.17" d="M43 21.502c3.78 0 6.812-3.032 6.812-6.771C49.812 11 46.78 8 43 8c-3.699 0-6.73 3-6.73 6.73 0 3.74 3.031 6.772 6.73 6.772z"/></g><g><path fill="none" stroke="#fff" stroke-linecap="round" stroke-linejoin="round" stroke-miterlimit="20" stroke-width="2.17" d="M2.42 43.172v0-2.755c0-5.958 4.829-10.787 10.787-10.787h10.926c5.958 0 10.787 4.829 10.787 10.787v2.755"/></g><g><path fill="none" stroke="#fff" stroke-linecap="round" stroke-linejoin="round" stroke-miterlimit="20" stroke-width="2.17" d="M43 29.63v0h3c6 0 10.812 4.829 10.812 10.787v2.755"/></g></g></g></svg>