<svg xmlns="http://www.w3.org/2000/svg" width="144" height="85"><g clip-path="url(#clip-6431FF17-5C5C-449C-A079-71F8547660A6)"><path fill="#eaeaea" d="M15.945 15.906l-7.321 7.343L0 14.687V13.6l8.624 8.547 6.325-6.286L0 1V0zm13.733 13.658L8.624 50.463 0 41.9v-1.043l8.624 8.562L28.639 29.58l-6.325-6.257-8.522 8.445-.205.233-4.963 4.893L0 28.33v-1.028l8.624 8.562 13.69-13.585zM44.657 58L51 51.711 36 36.878 21.07 51.71 27.393 58 36 49.42zm7.277-6.289l-7.321 7.343L36 50.492l-8.65 8.562L20 51.711 36 35.85zm-7.277 33.47l19.97-19.811-6.324-6.257-8.522 8.445-.131.25-4.964 4.905-8.624-8.562-8.638 8.562-5.213-5.155-8.507-8.43-6.31 6.256 20 19.798L36 76.678zM65.71 65.385l-21.054 20.9L36 77.72l-8.606 8.562-21.04-20.781 7.321-7.343 9.532 9.399 4.187 4.156L36 63.152l8.657 8.533L58.347 58.1zM27.907 0l-.513.514L26.882 0zm17.262 0l-.512.514L44.144 0zm13.675 0L44.657 14.07 36 5.507l-8.635 8.563L13.177 0h1.084l13.133 13L36 4.48 44.628 13 57.805 0zm21.787 22.147L87 15.891 72 1.057 57.102 15.891l6.267 6.256L72 13.6zM88 15.906l-7.369 7.343L72 14.687l-8.675 8.547L56 15.891 72 0zM80.631 49.42l20.045-19.87-6.311-6.257-8.536 8.445-.22.262-4.948 4.863L72 28.301l-8.602 8.562-5.212-5.155-8.507-8.4-6.325 6.256L63.369 49.42 72 40.858zm21.055-19.856L80.63 50.463 72 41.9l-8.631 8.562-21.04-20.81 7.32-7.344 9.518 9.4 4.202 4.155L72 27.303l8.631 8.562 13.69-13.585zM116.664 58L123 51.711l-15-14.833L93.077 51.71l6.31 6.29L108 49.42zM124 51.711l-7.365 7.343L108 50.492l-8.642 8.562L92 51.711l16-15.861zm-7.336 33.47l19.957-19.797-6.31-6.256-8.434 8.43-.235.25-4.949 4.905-8.638-8.562-8.639 8.562-5.197-5.155-8.507-8.43-6.325 6.256 20 19.798L108 76.678zm21.04-19.797l-21.04 20.9L108 77.72l-8.613 8.562-21.054-20.781 7.32-7.343 9.517 9.399 4.217 4.156L108 63.152l8.62 8.533L130.31 58.1zM99.9 0l-.513.514L98.875 0zm17.233 0l-.469.514-.512-.514zm13.704 0l-14.173 14.07L108 5.507l-8.613 8.563L85.214 0h1.04l13.09 13L108 4.48l8.62 8.52 13.178-13zM144 1.057L129.05 15.95l6.311 6.256L144 13.658v1.029l-8.682 8.547L128 15.891 144 0zm-13.807 30.651l-8.507-8.4-6.325 6.256 20 19.856L144 40.858V41.9l-8.639 8.562-21.025-20.81 7.321-7.344 9.517 9.4 4.187 4.156L144 27.301v1.028l-8.639 8.563zM16 88.12l-7.347 7.343L0 86.827v-1.028l8.653 8.562L15 88.119 0 73.271v-1.043zm13.708 13.659L8.624 122.677 0 114.114v-1.028l8.653 8.548 20.015-19.9-6.325-6.272L13.822 104l-.205.186-4.993 4.905L0 100.544V99.5l8.653 8.562 13.69-13.585zm14.978 28.403l6.314-6.27-14.938-14.82-14.963 14.82 6.325 6.27 8.638-8.562zm7.314-6.27l-7.358 7.342L36 122.691l-8.62 8.562-7.321-7.343L36.062 108zm13.74 13.658l-6.852 6.8h-1.04l6.853-6.8-6.325-6.272-8.463 8.372-.278.331-4.392 4.369-.528.514-.512-.514-8.111-8.049L28 144.37l-.547.514-.512-.514-4.7-4.641-8.507-8.401-6.31 6.271 6.808 6.8h-1.055l-6.793-6.683 7.32-7.343 9.532 9.4 4.188 4.156 8.638-8.562 8.624 8.562 13.69-13.615zm14.92-43.18L87 88.12 72 73.27 57.102 88.119l6.296 6.242L72 85.813zM88 88.12l-7.34 7.342L72 86.9l-8.646 8.562L56 88.12l16-15.876zm-7.34 33.514l20-19.9-6.31-6.272-8.35 8.416-.288.235-4.95 4.887-8.638-8.53-8.623 8.53-5.213-5.137-8.507-8.4-6.398 6.315 20.015 19.856L72 113.086zm21.055-19.856l-21.054 20.884L72 114.1l-8.602 8.562-20.937-20.84 7.32-7.344 9.43 9.43 4.187 4.155L72 99.501l8.66 8.562 13.69-13.585zm14.978 28.403l6.307-6.27-14.945-14.82-14.95 14.82 6.311 6.27 8.639-8.562zm7.307-6.27l-7.336 7.342-8.664-8.562-8.613 8.562-7.32-7.343L108.054 108zm13.763 13.775l-6.853 6.8h-1.04l6.853-6.8-6.31-6.271-8.463 8.371-.293.294-4.393 4.406-.512.514-.513-.514-8.125-8.048-8.114 8.048-.525.514-.475-.514-4.723-4.641-8.507-8.4-6.325 6.27 6.852 6.8h-1.04l-6.851-6.8 7.32-7.343 9.518 9.4 4.172 4.156 8.639-8.562 8.638 8.562 13.69-13.63zM144 73.3l-14.92 14.82 6.267 6.314L144 85.902v1.027l-8.653 8.533L128 88.12l16-15.861zm-13.778 30.563l-8.507-8.4-6.325 6.315 20 19.841 8.61-8.533v1.043l-8.61 8.533-21.025-20.811 7.321-7.343 9.517 9.4 4.188 4.155L144 99.531v1.042l-8.61 8.518z"/></g></svg>