<svg xmlns="http://www.w3.org/2000/svg" viewBox="0 0 98.35 98.67"><defs><style>.cls-1{fill:#006d6a;}</style></defs><g id="Layer_2" data-name="Layer 2"><path class="cls-1" d="M92.47,74.28l5.88-5.8v-.71l-5.88,5.81-2.86-2.83,0,0-6.5-6.4-5,5L92.47,83.52l5.88-5.81V77l-5.88,5.81L78.81,69.3,83.13,65l5.81,5.72,0,0ZM98.35,49.2,87.44,60l5,5,5.88-5.81v-.7l-5.88,5.81L88.16,60,98.35,49.91Zm-9.3,39.52L79.7,98l-5.9-5.83L67.9,98l-2.85-2.83v0l-6.5-6.4-5,5,4.68,4.63h.71l-4.68-4.63,4.32-4.27,5.81,5.72,0,0,3.2,3.16.35.35.35-.35,5.55-5.48,5.55,5.48.35.35.35-.35,3-3,.2-.2h0l5.78-5.7,4.31,4.27-4.68,4.63h.71l4.68-4.63ZM73.8,73.57,62.88,84.37l5,5,5.9-5.83,5.9,5.83,5-5Zm0,9.24-5.9,5.83-4.31-4.27L73.8,74.28,84,84.37,79.7,88.64ZM64.44,64.33l-9.35,9.25-5.9-5.83L43.3,73.58l-2.86-2.83,0,0L34,64.33l-5,5L43.3,83.52l5.89-5.83,5.9,5.83L69.47,69.3ZM49.19,77,43.3,82.82,29.63,69.3,34,65l5.81,5.72,0,0,3.56,3.51,5.89-5.82,5.9,5.82,3.38-3.34.17-.16h0L64.44,65l4.31,4.27L55.09,82.82Zm0-27.81L38.27,60l5,5,5.89-5.83L55.09,65l5-5Zm0,9.24L43.3,64.25,39,60,49.19,49.89,59.41,60l-4.32,4.27Zm-9.32,30.3L30.52,98l-5.89-5.83L18.73,98l-2.86-2.83,0,0-6.51-6.4-5,5L9,98.32h.72L5.07,93.69l4.31-4.27,5.81,5.72,0,0,3.21,3.16.35.35.35-.35,5.55-5.48,5.54,5.48.35.35.36-.35,3-3,.19-.2h0l5.78-5.7,4.32,4.27-4.68,4.63h.71l4.68-4.63ZM24.63,73.57,13.7,84.37l5,5,5.9-5.83,5.89,5.83,5-5Zm0,9.24-5.9,5.83-4.32-4.27L24.63,74.28,34.84,84.37l-4.32,4.27ZM15.26,64.33,5.91,73.58,0,67.75l0,0v.71l0,0,5.89,5.82L9.3,70.94l.14-.15L15.26,65l4.32,4.27L5.91,82.82,0,77l0,0v.7l0,0,5.89,5.83L20.29,69.3ZM0,49.18l0,0v.71l0,0L10.23,60,5.91,64.25,0,58.42l0,0v.7l0,0L5.91,65l5-5ZM92.45,25.12l5.9-5.83v-.7l-5.9,5.83-2.86-2.83,0,0-6.5-6.4-5,5L92.45,34.36l5.9-5.83v-.71l-5.9,5.83L78.79,20.13l4.32-4.26,5.81,5.72,0,0ZM98.35,0,87.42,10.82l5,5L98.35,10v-.7l-5.9,5.82-4.31-4.26L98.35.72Zm-9.7,0-9,8.88-5.9-5.83-5.9,5.83L58.91,0H58.2l9.68,9.58,5.9-5.83,5.9,5.83L89.36,0ZM79.33,0l.35.35L80,0ZM67.53,0l.35.35L68.23,0ZM89,39.56l-9.35,9.25L73.78,43l-5.9,5.83L65,46v0l-6.5-6.4-5,5L67.88,58.75l5.9-5.83,5.9,5.83L94.05,44.52ZM73.78,52.21,67.88,58,54.22,44.52l4.32-4.26L64.35,46l0,0,3.55,3.51,5.9-5.83,5.9,5.83,3.38-3.34.16-.17L89,40.26l4.31,4.26L79.68,58Zm0-27.8L62.86,35.21l5,5,5.9-5.83,5.9,5.83,5-5Zm0,9.24-5.9,5.82-4.31-4.26,10.21-10.1L84,35.21l-4.32,4.26ZM64.42,15.17l-9.35,9.25-5.9-5.83-5.89,5.83-2.87-2.83,0,0-6.5-6.4-5,5L43.28,34.36l5.89-5.83,5.9,5.83L69.45,20.13ZM49.17,27.82l-5.89,5.83L29.61,20.13l4.32-4.26,5.81,5.72,0,0,3.56,3.51,5.89-5.83,5.9,5.83,3.38-3.34.15-.15h0l5.83-5.75,4.31,4.26L55.07,33.65Zm0-27.8L38.25,10.82l5,5L49.17,10l5.9,5.83,5-5Zm0,9.24-5.89,5.82L39,10.82,49.17.72l10.22,10.1-4.32,4.26ZM39.48,0l-9,8.88L24.61,3.05l-5.9,5.83L9.74,0H9l9.69,9.58,5.9-5.83L30.5,9.58,40.19,0ZM30.15,0l.35.35L30.85,0ZM18.36,0l.35.35L19.06,0ZM39.85,39.56,30.5,48.81,24.61,43l-5.9,5.83L15.85,46l0,0-6.51-6.4-5,5L18.71,58.75l5.9-5.83,5.89,5.83L44.88,44.52ZM24.61,52.21,18.71,58,5.05,44.52l4.31-4.26L15.17,46l0,0,3.56,3.51,5.9-5.83,5.89,5.83,3.39-3.34L34,46h0l5.82-5.75,4.32,4.26L30.5,58Zm0-27.8L13.68,35.21l5,5,5.9-5.83,5.89,5.83,5-5Zm0,9.24-5.9,5.82-4.32-4.26,10.22-10.1,10.21,10.1L30.5,39.47ZM15.24,15.17,5.89,24.42,0,18.59v.7l5.89,5.83,3.39-3.34.14-.15h0l5.82-5.75,4.32,4.26L5.89,33.65,0,27.82v.71l5.89,5.83L20.27,20.13ZM0,0v.7l10.21,10.1L5.89,15.08,0,9.26V10l5.89,5.83,5-5Z"/></g></svg>