<svg xmlns="http://www.w3.org/2000/svg" width="50" height="50" viewBox="0 0 50 50"><g fill="none" fill-rule="evenodd"><circle cx="25" cy="25" r="20.833" stroke="#FFF" stroke-linecap="round" stroke-linejoin="round" stroke-width="2"/><path stroke="#FFF" stroke-linecap="round" stroke-linejoin="round" stroke-width="2" d="M21.875 18.6809583 13.4277083 24.3125C12.8481278 24.6988868 12.5 25.3493685 12.5 26.0459375L12.5 29.4402917C12.5 29.7964405 12.6819554 30.1279047 12.9824254 30.319111 13.2828953 30.5103172 13.660227 30.53476 13.9828542 30.3839167L21.875 26.694M28.125 26.694 36.0171458 30.3839167C36.339773 30.53476 36.7171047 30.5103172 37.0175746 30.319111 37.3180446 30.1279047 37.5 29.7964405 37.5 29.4402917L37.5 26.0459375C37.5 25.3493685 37.1518722 24.6988868 36.5722917 24.3125L28.125 18.6809583M28.125 18.6809583 28.125 13.5416667C28.125 11.8157768 26.7258898 10.4166667 25 10.4166667L25 10.4166667C23.2741102 10.4166667 21.875 11.8157768 21.875 13.5416667L21.875 18.6809583M21.875 26.694 21.875125 31.0210833 19.5834583 32.7393333C19.0587453 33.1328066 18.75 33.7503956 18.75 34.40625L18.75 36.4578333C18.75 36.7785848 18.8977704 37.0814506 19.1505809 37.2788547 19.4033913 37.4762587 19.7330485 37.5461861 20.0442292 37.4684167L25 36.2298958 29.9557708 37.4684167C30.2669515 37.5461861 30.5966087 37.4762587 30.8494191 37.2788547 31.1022296 37.0814506 31.25 36.7785848 31.25 36.4578333L31.25 34.40625C31.25 33.7504103 30.9411793 33.1328549 30.4164583 32.7394167L28.1247917 31.0211667 28.1249167 26.694"/><polygon points="50 0 0 0 0 50 50 50"/></g></svg>