<svg xmlns="http://www.w3.org/2000/svg" width="50" height="50" viewBox="0 0 50 50"><g fill="none" fill-rule="evenodd"><rect width="50" height="50"/><path stroke="#323232" stroke-linecap="round" stroke-linejoin="round" stroke-width="2" d="M14.5833333,10.4166667 L18.75,10.4166667 L18.7499999,10.4166667 C19.9005937,10.4166667 20.8333332,11.3494063 20.8333332,12.5 L20.8333332,16.6666667 L12.4999999,16.6666667 L12.4999999,12.5 L12.4999999,12.5000003 C12.4999999,11.3494066 13.4327395,10.4166667 14.5833332,10.4166667 L14.5833333,10.4166667 Z"/><line x1="16.667" x2="16.667" y1="6.25" y2="10.417" stroke="#323232" stroke-linecap="round" stroke-linejoin="round" stroke-width="2"/><path stroke="#323232" stroke-linecap="round" stroke-linejoin="round" stroke-width="2" d="M25,31.25 L25,18.75 L25,18.75 C25,17.5994063 24.0672604,16.6666667 22.9166667,16.6666667 L10.4166667,16.6666667 L10.4166666,16.6666667 C9.26607283,16.6666667 8.33333324,17.5994063 8.33333324,18.75 C8.33333324,18.75 8.33333324,18.75 8.33333324,18.75 L8.33333324,43.75"/><line x1="38.521" x2="38.521" y1="37.5" y2="43.75" stroke="#323232" stroke-linecap="round" stroke-linejoin="round" stroke-width="2"/><rect width="10.417" height="14.583" x="33.333" y="22.917" stroke="#323232" stroke-linecap="round" stroke-linejoin="round" stroke-width="2" rx="1.381"/><line x1="16.667" x2="29.167" y1="37.5" y2="37.5" stroke="#323232" stroke-linecap="round" stroke-linejoin="round" stroke-width="2"/><line x1="18.938" x2="18.938" y1="43.75" y2="37.5" stroke="#323232" stroke-linecap="round" stroke-linejoin="round" stroke-width="2"/><line x1="27.083" x2="27.083" y1="43.75" y2="37.5" stroke="#323232" stroke-linecap="round" stroke-linejoin="round" stroke-width="2"/><circle cx="35.417" cy="10.417" r="4.167" stroke="#323232" stroke-linecap="round" stroke-linejoin="round" stroke-width="2"/><line x1="13.542" x2="19.792" y1="29.167" y2="29.167" stroke="#323232" stroke-linecap="round" stroke-linejoin="round" stroke-width="2"/><line x1="13.542" x2="19.792" y1="22.917" y2="22.917" stroke="#323232" stroke-linecap="round" stroke-linejoin="round" stroke-width="2"/><line x1="45.833" x2="4.167" y1="43.75" y2="43.75" stroke="#323232" stroke-linecap="round" stroke-linejoin="round" stroke-width="2"/></g></svg>