<svg xmlns="http://www.w3.org/2000/svg" width="50" height="50" viewBox="0 0 50 50"><g fill="none" fill-rule="evenodd"><polygon points="0 0 50 0 50 50 0 50"/><path stroke="#FFF" stroke-linecap="round" stroke-linejoin="round" stroke-width="2" d="M43.75 34.375 43.75 41.6666667C43.75 42.8172599 42.8172599 43.75 41.6666667 43.75L37.5 43.75C36.3494068 43.75 35.4166667 42.8172599 35.4166667 41.6666667L35.4166667 38.5416667M14.5833333 38.5416667 14.5833333 41.6666667C14.5833333 42.8172599 13.6505932 43.75 12.5 43.75L8.33333333 43.75C7.1827401 43.75 6.25 42.8172599 6.25 41.6666667L6.25 34.375"/><path stroke="#FFF" stroke-linecap="round" stroke-linejoin="round" stroke-width="2" d="M6.25,34.375 L6.25,28.6363125 C6.25,26.9772877 6.90866595,25.3861312 8.08125,24.2125 L10.4166667,21.875 L39.5833333,21.875 L41.91875,24.2104167 C43.0912785,25.382944 43.75,26.9732326 43.75,28.6314375 L43.75,34.375 C43.75,36.6761865 41.8845198,38.5416667 39.5833333,38.5416667 L10.4166667,38.5416667 C8.11548021,38.5416667 6.25,36.6761865 6.25,34.375 Z"/><line x1="43.75" x2="39.583" y1="19.792" y2="20.833" stroke="#FFF" stroke-linecap="round" stroke-linejoin="round" stroke-width="2"/><line x1="10.417" x2="6.25" y1="20.833" y2="19.792" stroke="#FFF" stroke-linecap="round" stroke-linejoin="round" stroke-width="2"/><path stroke="#FFF" stroke-linecap="round" stroke-linejoin="round" stroke-width="2" d="M10.4166667,21.875 L10.4166667,20.8208333 L12.1583333,14.2854167 C12.7662691,12.0040869 14.8321821,10.4166667 17.193125,10.4166667 L32.9902917,10.4166667 C35.4012501,10.4166667 37.4970336,12.0714593 38.05625,14.4166667 L39.5833333,20.8208333 L39.5833333,21.875"/><line x1="12.5" x2="16.667" y1="30.208" y2="30.208" stroke="#FFF" stroke-linecap="round" stroke-linejoin="round" stroke-width="2"/><line x1="33.333" x2="37.5" y1="30.208" y2="30.208" stroke="#FFF" stroke-linecap="round" stroke-linejoin="round" stroke-width="2"/></g></svg>