<svg xmlns="http://www.w3.org/2000/svg" width="50" height="50" viewBox="0 0 50 50"><g fill="none" fill-rule="evenodd"><polygon points="0 0 50 0 50 50 0 50"/><path stroke="#0F9589" stroke-linecap="round" stroke-linejoin="round" stroke-width="2" d="M34.375,45.8333333 C29.1979167,45.8333333 25,41.6354167 25,36.4583333 C25,31.28125 29.1979167,27.0833333 34.375,27.0833333 C39.5541667,27.0833333 43.75,31.28125 43.75,36.4583333 C43.75,41.6354167 39.5541667,45.8333333 34.375,45.8333333"/><path stroke="#0F9589" stroke-linecap="round" stroke-linejoin="round" stroke-width="2" d="M37.5,20.8333333 L37.5,16.3083333 C37.5,15.2041667 37.0604167,14.14375 36.2791667,13.3625 L30.3875,7.47083333 C29.60625,6.68958333 28.5458333,6.25 27.4416667,6.25 L12.5,6.25 C10.1979167,6.25 8.33333333,8.11458333 8.33333333,10.4166667 L8.33333333,39.5833333 C8.33333333,41.8854167 10.1979167,43.75 12.5,43.75 L20.8333333,43.75"/><path stroke="#0F9589" stroke-linecap="round" stroke-linejoin="round" stroke-width="2" d="M37.5,16.6666667 L29.1666667,16.6666667 C28.0166667,16.6666667 27.0833333,15.7333333 27.0833333,14.5833333 L27.0833333,6.25"/><polyline stroke="#0F9589" stroke-linecap="round" stroke-linejoin="round" stroke-width="2" points="37.827 34.733 33.51 39.05 30.923 36.458"/></g></svg>