<svg xmlns="http://www.w3.org/2000/svg" width="24" height="24" viewBox="0 0 24 24"><g fill="none" fill-rule="evenodd"><g stroke="#323232" stroke-linecap="round" stroke-linejoin="round" stroke-width="1.5" transform="translate(3 4)"><path d="M16.0000001,17 L16.0000001,17 C17.1050001,17 18.0000001,16.1050001 18.0000001,15 L18.0000001,9.00000003 C18.0000001,8.44800004 17.5520001,8.00000003 17.0000001,8.00000003 L14.0000001,8.00000003 L14.0000001,15 C14.0000001,16.1050001 14.8950001,17 16.0000001,17 Z"/><line x1="4" x2="10" y1="4" y2="4"/><line x1="4" x2="10" y1="7.87" y2="7.87"/><line x1="4" x2="7" y1="12.06" y2="12.06"/><path d="M14,8 L14,1 C14,0.448000002 13.5520001,0 13,0 L1,0 C0.448000002,0 0,0.448000002 0,1 L0,15 C0,16.1050001 0.895000004,17 2,17 L16,17"/></g><polygon points="0 0 24 0 24 24 0 24"/></g></svg>