<svg xmlns="http://www.w3.org/2000/svg" width="50" height="50" viewBox="0 0 50 50"><g fill="none" fill-rule="evenodd"><g stroke="#0F9589" stroke-linecap="round" stroke-linejoin="round" stroke-width="2" transform="translate(10.417 6.25)"><path d="M27.9458333,7.1125 L22.0541667,1.22083333 C21.2729167,0.439583333 20.2125,0 19.1083333,0 L4.16666667,0 C1.86458333,0 0,1.86458333 0,4.16666667 L0,33.3333333 C0,35.6354167 1.86458333,37.5 4.16666667,37.5 L25,37.5 C27.3020833,37.5 29.1666667,35.6354167 29.1666667,33.3333333 L29.1666667,10.0583333 C29.1666667,8.95416667 28.7270833,7.89375 27.9458333,7.1125 L27.9458333,7.1125 Z"/><path d="M29.1666667,10.4166667 L20.8333333,10.4166667 C19.6833333,10.4166667 18.75,9.48333333 18.75,8.33333333 L18.75,0"/><line x1="11.125" x2="18.042" y1="28.229" y2="28.229"/><path d="M12.1520833 20.3145833 12.1520833 17.88125C12.1520833 17.2104167 12.6958333 16.6666667 13.3666667 16.6666667L15.8 16.6666667C16.4708333 16.6666667 17.0145833 17.2104167 17.0145833 17.88125L17.0145833 20.3145833C17.0145833 20.9854167 16.4708333 21.5291667 15.8 21.5291667L13.3666667 21.5291667C12.6958333 21.5270833 12.1520833 20.9833333 12.1520833 20.3145833ZM6.25 30.0354167 6.25 27.6020833C6.25 26.93125 6.79375 26.3875 7.46458333 26.3875L9.89791667 26.3875C10.56875 26.3875 11.1125 26.93125 11.1125 27.6020833L11.1125 30.0354167C11.1125 30.70625 10.56875 31.25 9.89791667 31.25L7.46458333 31.25C6.79375 31.25 6.25 30.70625 6.25 30.0354167ZM18.05625 30.0354167 18.05625 27.6020833C18.05625 26.93125 18.6 26.3875 19.2708333 26.3875L21.7041667 26.3875C22.375 26.3875 22.91875 26.93125 22.91875 27.6020833L22.91875 30.0354167C22.9166667 30.70625 22.3729167 31.25 21.7020833 31.25L19.26875 31.25C18.6 31.25 18.05625 30.70625 18.05625 30.0354167L18.05625 30.0354167Z"/><line x1="19.25" x2="16.104" y1="26.396" y2="21.479"/><line x1="9.917" x2="13.063" y1="26.396" y2="21.479"/></g><polygon points="0 0 50 0 50 50 0 50"/></g></svg>