<svg xmlns="http://www.w3.org/2000/svg" width="50" height="50" viewBox="0 0 50 50"><g fill="none" fill-rule="evenodd"><polygon points="0 0 50 0 50 50 0 50"/><path fill="#0F9589" d="M10.68125,20.9270833 L10.68125,20.56875 C10.68125,12.6604167 17.0916667,6.25 25,6.25 L25,6.25 C32.9083333,6.25 39.31875,12.6604167 39.31875,20.56875 L39.31875,20.9270833 C39.31875,28.1375 30.1895833,38.9916667 26.5104167,43.075 C25.7,43.975 24.3,43.975 23.4895833,43.075 C19.8104167,38.9916667 10.68125,28.1375 10.68125,20.9270833 Z"/><path fill="#FFF" d="M20.8333333,20.7395833 C20.8333333,23.0416667 22.6979167,24.90625 25,24.90625 L25,24.90625 C27.3020833,24.90625 29.1666667,23.0416667 29.1666667,20.7395833 L29.1666667,20.6625 C29.1666667,18.3604167 27.3020833,16.4958333 25,16.4958333 L25,16.4958333 C22.6979167,16.4958333 20.8333333,18.3604167 20.8333333,20.6625"/></g></svg>