<svg xmlns="http://www.w3.org/2000/svg" width="64" height="63" viewBox="0 0 64 63"><path fill="#FFF" d="M31.34375,62.6875 C35.6354167,62.6875 39.671875,61.8697917 43.453125,60.234375 C47.234375,58.5989583 50.5625,56.3385417 53.4375,53.453125 C56.3125,50.5677083 58.5729167,47.234375 60.21875,43.453125 C61.8645833,39.671875 62.6875,35.6354167 62.6875,31.34375 C62.6875,27.0520833 61.8645833,23.015625 60.21875,19.234375 C58.5729167,15.453125 56.3125,12.1197917 53.4375,9.234375 C50.5625,6.34895833 47.2291667,4.08854167 43.4375,2.453125 C39.6458333,0.817708333 35.6041667,0 31.3125,0 C27.0208333,0 22.984375,0.817708333 19.203125,2.453125 C15.421875,4.08854167 12.09375,6.34895833 9.21875,9.234375 C6.34375,12.1197917 4.08854167,15.453125 2.453125,19.234375 C0.817708333,23.015625 0,27.0520833 0,31.34375 C0,35.6354167 0.817708333,39.671875 2.453125,43.453125 C4.08854167,47.234375 6.34895833,50.5677083 9.234375,53.453125 C12.1197917,56.3385417 15.453125,58.5989583 19.234375,60.234375 C23.015625,61.8697917 27.0520833,62.6875 31.34375,62.6875 Z M31.34375,58.65625 C27.5520833,58.65625 24.0104167,57.9479167 20.71875,56.53125 C17.4270833,55.1145833 14.53125,53.15625 12.03125,50.65625 C9.53125,48.15625 7.578125,45.2552083 6.171875,41.953125 C4.765625,38.6510417 4.0625,35.1145833 4.0625,31.34375 C4.0625,27.5729167 4.765625,24.0364583 6.171875,20.734375 C7.578125,17.4322917 9.52604167,14.5260417 12.015625,12.015625 C14.5052083,9.50520833 17.4010417,7.546875 20.703125,6.140625 C24.0052083,4.734375 27.5416667,4.03125 31.3125,4.03125 C35.1041667,4.03125 38.6458333,4.734375 41.9375,6.140625 C45.2291667,7.546875 48.1302083,9.50520833 50.640625,12.015625 C53.1510417,14.5260417 55.1145833,17.4322917 56.53125,20.734375 C57.9479167,24.0364583 58.65625,27.5729167 58.65625,31.34375 C58.65625,35.1145833 57.953125,38.6510417 56.546875,41.953125 C55.140625,45.2552083 53.1875,48.15625 50.6875,50.65625 C48.1875,53.15625 45.28125,55.1145833 41.96875,56.53125 C38.65625,57.9479167 35.1145833,58.65625 31.34375,58.65625 Z M25.375,43.59375 L43.25,32.96875 C43.8541667,32.59375 44.1510417,32.0729167 44.140625,31.40625 C44.1302083,30.7395833 43.8333333,30.2291667 43.25,29.875 L25.375,19.15625 C24.7708333,18.78125 24.15625,18.71875 23.53125,18.96875 C22.90625,19.21875 22.59375,19.6875 22.59375,20.375 L22.59375,42.375 C22.59375,43.0625 22.8958333,43.53125 23.5,43.78125 C24.1041667,44.03125 24.7291667,43.96875 25.375,43.59375 Z" transform="translate(.594 .094)"/></svg>