<svg xmlns="http://www.w3.org/2000/svg" width="24" height="24" viewBox="0 0 24 24"><g><g><g/><g><g><path fill="none" stroke="#323232" stroke-linecap="round" stroke-linejoin="round" stroke-miterlimit="20" stroke-width="1.5" d="M19.71 9v0-5 0c0-.57-.45-1-1-1h-1.86v0h-.01c-.56 0-1 .43-1 1v1.66"/></g><g><path fill="none" stroke="#323232" stroke-linecap="round" stroke-linejoin="round" stroke-miterlimit="20" stroke-width="1.5" d="M3 10.067v0l7.698-6.598v0h-.01c.74-.65 1.85-.65 2.6-.01L21 10v0"/></g><g><path fill="none" stroke="#323232" stroke-linecap="round" stroke-linejoin="round" stroke-miterlimit="20" stroke-width="1.5" d="M4.5 8.79V19c0 1.09.89 2 2 2H9v0"/></g><g><path fill="none" stroke="#323232" stroke-linecap="round" stroke-linejoin="round" stroke-miterlimit="20" stroke-width="1.5" d="M19 12.38v0l-.505.55v0l.505-.56v0"/></g><g><path fill="none" stroke="#323232" stroke-linecap="round" stroke-linejoin="round" stroke-miterlimit="20" stroke-width="1.5" d="M15.521 16.21v0L17 20.62v0-.009c.071.28.381.389.661.389.12-.1.22-.18.339-.29l.851-1.52v0-.009c.08-.181.149-.26.33-.34l1.51-.91v0-.01c.25-.16.309-.49.18-.75-.07-.12-.18-.171-.3-.24l-4.42-1.48v0l-.01-.01c-.29-.1-.6.05-.69.34-.04.11-.04.219-.01.34z"/></g><g><path fill="none" stroke="#323232" stroke-linecap="round" stroke-linejoin="round" stroke-miterlimit="20" stroke-width="1.5" d="M20.67 20.67l-1.5-1.5"/></g><g><path fill="none" stroke="#323232" stroke-linecap="round" stroke-linejoin="round" stroke-miterlimit="20" stroke-width="1.5" d="M15.715 11l.01.78"/></g><g><path fill="none" stroke="#323232" stroke-linecap="round" stroke-linejoin="round" stroke-miterlimit="20" stroke-width="1.5" d="M12.38 12.38v0l.55.54v0l-.56-.54v0"/></g><g><path fill="none" stroke="#323232" stroke-linecap="round" stroke-linejoin="round" stroke-miterlimit="20" stroke-width="1.5" d="M11 15.71v0l.77-.02v0l-.77.01v0"/></g><g><path fill="none" stroke="#323232" stroke-linecap="round" stroke-linejoin="round" stroke-miterlimit="20" stroke-width="1.5" d="M12.38 19v0l.55-.505v0l-.56.505v0"/></g></g></g></g></svg>