<svg xmlns="http://www.w3.org/2000/svg" width="24" height="24" viewBox="0 0 24 24"><g fill="none" fill-rule="evenodd"><g stroke="#323232" stroke-width="1.5" transform="translate(3 3)"><path d="M16.842,5.29925 L10.842,0.63225 C9.759,-0.21075 8.242,-0.21075 7.158,0.63225 L1.158,5.29925 C0.427,5.86725 -4.4408921e-16,6.74125 -4.4408921e-16,7.66725 L-4.4408921e-16,15.00025 C-4.4408921e-16,16.65725 1.343,18.00025 3,18.00025 L15,18.00025 C16.657,18.00025 18,16.65725 18,15.00025 L18,7.66725 C18,6.74125 17.573,5.86725 16.842,5.29925 Z"/><line x1="6" x2="12" y1="14" y2="14" stroke-linecap="round" stroke-linejoin="round"/></g><polygon points="0 0 24 0 24 24 0 24"/></g></svg>