<svg xmlns="http://www.w3.org/2000/svg" width="50" height="50" viewBox="0 0 50 50"><g fill="none" fill-rule="evenodd"><polygon points="0 0 50 0 50 50 0 50"/><circle cx="25" cy="24.633" r="20.833" stroke="#FFF" stroke-linecap="round" stroke-linejoin="round" stroke-width="2"/><line x1="36.865" x2="32.139" y1="41.756" y2="34.666" stroke="#FFF" stroke-linecap="round" stroke-linejoin="round" stroke-width="2"/><line x1="17.861" x2="13.135" y1="34.666" y2="41.756" stroke="#FFF" stroke-linecap="round" stroke-linejoin="round" stroke-width="2"/><path stroke="#FFF" stroke-linecap="round" stroke-linejoin="round" stroke-width="2" d="M29.1666667,35.4166667 L20.8333333,35.4166667 C17.3815536,35.4166667 14.5833333,32.6184464 14.5833333,29.1666667 L14.5833333,19.7916667 C14.5833333,16.9151836 16.9151836,14.5833333 19.7916667,14.5833333 L30.2083333,14.5833333 C33.0848164,14.5833333 35.4166667,16.9151836 35.4166667,19.7916667 L35.4166667,29.1666667 C35.4166667,32.6184464 32.6184464,35.4166667 29.1666667,35.4166667 Z"/><line x1="35.417" x2="14.583" y1="23.264" y2="23.264" stroke="#FFF" stroke-linecap="round" stroke-linejoin="round" stroke-width="2"/><line x1="30.208" x2="29.167" y1="28.125" y2="28.125" stroke="#FFF" stroke-linecap="round" stroke-linejoin="round" stroke-width="2"/><line x1="19.792" x2="20.833" y1="28.125" y2="28.125" stroke="#FFF" stroke-linecap="round" stroke-linejoin="round" stroke-width="2"/></g></svg>