<svg xmlns="http://www.w3.org/2000/svg" width="76" height="108" viewBox="0 0 76 108"><g fill="none" fill-rule="evenodd"><rect width="76" height="108" fill="#3B2483" fill-rule="nonzero"/><path fill="#FFF" d="M3.56104849,45.4698633 L3.56104849,3.56070548 L72.4423921,3.56070548 L72.4423921,104.442752 L43.4998416,104.442752 L43.4998416,103.122179 L71.1177509,103.122179 L71.1177509,4.8881918 L4.88568971,4.8881918 L4.88568971,45.4733203 L6.11399339,45.4733203 C10.5558423,45.4733203 12.9952465,48.1421209 12.9952465,52.5636183 L12.9505184,80.8280145 L8.13364118,80.8280145 L8.16116619,52.5636183 C8.18180995,51.1497071 7.47304088,50.3165712 6.13463715,50.3165712 L3.57825162,50.3165712 L3.57825162,45.4767773 L3.56104849,45.4698633 Z M8.37792566,104.363241 L8.82864774,104.363241 L9.47548554,102.897474 L10.1636108,104.363241 L10.6143329,104.363241 L9.73353253,102.46535 L10.6005704,100.633142 L10.125764,100.633142 L9.51677305,102.015941 L8.88025714,100.633142 L8.41577256,100.633142 L9.25184481,102.413495 L8.37104441,104.363241 L8.37792566,104.363241 Z M12.4344244,104.42201 C12.6479504,104.435923 12.8599533,104.377497 13.036534,104.256074 C13.1886943,104.136436 13.2955359,103.968092 13.3393092,103.779008 C13.4051754,103.529921 13.4352983,103.272658 13.4287654,103.015012 L13.4287654,101.977914 C13.4352983,101.720268 13.4051754,101.463005 13.3393092,101.213918 C13.2955359,101.024834 13.1886943,100.85649 13.036534,100.736852 C12.6678721,100.515319 12.2078579,100.515319 11.839196,100.736852 C11.6871721,100.857243 11.5794221,101.025111 11.5329802,101.213918 C11.4688336,101.463332 11.4387392,101.720351 11.4435239,101.977914 L11.4435239,103.015012 C11.4387392,103.272575 11.4688336,103.529594 11.5329802,103.779008 C11.5794221,103.967815 11.6871721,104.135683 11.839196,104.256074 C12.0138797,104.376007 12.2232103,104.434364 12.4344244,104.42201 L12.4344244,104.42201 Z M12.4344244,104.07631 C12.5619106,104.084182 12.686803,104.037752 12.778487,103.948401 C12.859629,103.842734 12.9075479,103.715145 12.9161121,103.58196 C12.9337692,103.405073 12.9418093,103.227349 12.9401965,103.049582 L12.9401965,101.967543 C12.9419761,101.789773 12.9339356,101.61204 12.9161121,101.435165 C12.9070819,101.303134 12.8591763,101.176784 12.778487,101.072181 C12.6881265,100.980424 12.562629,100.932508 12.4344244,100.940815 C12.3059398,100.930591 12.1796647,100.978804 12.0903617,101.072181 C12.0109048,101.177188 11.9642098,101.303503 11.9561773,101.435165 C11.9370397,101.611963 11.9278501,101.789705 11.9286523,101.967543 L11.9286523,103.049582 C11.9280438,103.227416 11.9372328,103.405147 11.9561773,103.58196 C11.9637435,103.714775 12.0104516,103.842329 12.0903617,103.948401 C12.1810752,104.039288 12.3066801,104.085983 12.4344244,104.07631 L12.4344244,104.07631 Z M14.4988003,105.600845 L14.9701661,105.600845 L14.9701661,104.07631 C15.0504931,104.166921 15.1418081,104.247056 15.2419756,104.314843 C15.3555501,104.395157 15.4919405,104.43639 15.6307664,104.432381 C15.8311275,104.443881 16.0274786,104.372708 16.1743854,104.235332 C16.3157293,104.082199 16.4101056,103.891348 16.4461949,103.685669 C16.5021293,103.412764 16.5286603,103.134602 16.5253293,102.855991 L16.5253293,102.067796 C16.52437,101.88751 16.5128815,101.707437 16.4909231,101.528504 C16.4724576,101.36362 16.4319522,101.20199 16.3705012,101.047982 C16.316648,100.912658 16.2289522,100.793586 16.1158948,100.702282 C15.9893987,100.61306 15.8366915,100.569221 15.6823758,100.57783 C15.5331295,100.572475 15.3857142,100.612214 15.2591788,100.691911 C15.1495115,100.759253 15.0518263,100.84455 14.9701661,100.944272 L14.9701661,100.636599 L14.4988003,100.636599 L14.4988003,105.593931 L14.4988003,105.600845 Z M15.5585133,104.059025 C15.6805078,104.06817 15.7994791,104.018041 15.8784916,103.924202 C15.9580416,103.803156 16.0065071,103.664194 16.0195572,103.519734 C16.0451332,103.304082 16.0566266,103.086979 16.0539635,102.869819 L16.0539635,102.067796 C16.0566689,101.864426 16.0451719,101.661117 16.0195572,101.459364 C16.0069218,101.322768 15.9569069,101.192349 15.8750509,101.082552 C15.7916414,100.991111 15.6713557,100.942767 15.5481914,100.951186 C15.4265039,100.948582 15.306777,100.982265 15.2041288,101.047982 C15.1148038,101.103285 15.0317391,101.168198 14.9564036,101.241574 L14.9564036,103.785922 C15.0289401,103.862983 15.113843,103.927255 15.2075694,103.976057 C15.3130987,104.033373 15.4317074,104.061975 15.551632,104.059025 L15.5585133,104.059025 Z M18.5346553,104.432381 C18.7492549,104.446273 18.9623395,104.387883 19.1402055,104.266445 C19.2901771,104.144825 19.3964959,103.977305 19.4429807,103.789379 C19.5071273,103.539965 19.5372217,103.282945 19.532437,103.025383 L19.532437,101.988285 C19.5372217,101.730722 19.5071273,101.473703 19.4429807,101.224289 C19.3964959,101.036363 19.2901771,100.868843 19.1402055,100.747223 C18.9623395,100.625785 18.7492549,100.567395 18.5346553,100.581287 C18.3245137,100.568916 18.1162669,100.627308 17.9428675,100.747223 C17.789839,100.866692 17.6818438,101.034942 17.6366517,101.224289 C17.5725051,101.473703 17.5424107,101.730722 17.5471954,101.988285 L17.5471954,103.025383 C17.5424107,103.282945 17.5725051,103.539965 17.6366517,103.789379 C17.6818438,103.978726 17.789839,104.146976 17.9428675,104.266445 C18.1162669,104.38636 18.3245137,104.444751 18.5346553,104.432381 L18.5346553,104.432381 Z M18.5346553,104.086681 C18.6622054,104.094991 18.7872691,104.048497 18.8787179,103.958772 C18.9614025,103.853977 19.0095099,103.725885 19.016343,103.592331 C19.0352874,103.415518 19.0444765,103.237787 19.043868,103.059953 L19.043868,101.977914 C19.0446702,101.800076 19.0354806,101.622334 19.016343,101.445536 C19.0088076,101.313179 18.9607387,101.186398 18.8787179,101.082552 C18.7886134,100.990401 18.6629292,100.942413 18.5346553,100.951186 C18.4060282,100.939947 18.2793313,100.988321 18.1905926,101.082552 C18.1111357,101.187559 18.0644407,101.313874 18.0564082,101.445536 C18.0372706,101.622334 18.028081,101.800076 18.0288832,101.977914 L18.0288832,103.059953 C18.0282746,103.237787 18.0374637,103.415518 18.0564082,103.592331 C18.0639744,103.725146 18.1106825,103.8527 18.1905926,103.958772 C18.2807893,104.050467 18.4067797,104.097305 18.5346553,104.086681 L18.5346553,104.086681 Z M20.619675,104.383983 L23.6199013,104.383983 L23.6199013,100.633142 L23.162298,100.633142 L23.162298,104.027912 L22.3675132,104.027912 L22.3675132,100.633142 L21.9133505,100.633142 L21.9133505,104.027912 L21.0944814,104.027912 L21.0944814,100.633142 L20.6472,100.633142 L20.6472,104.363241 L20.619675,104.383983 Z M24.7793925,104.383983 L25.1681833,104.383983 L26.3964869,101.518133 L26.3964869,104.383983 L26.7955996,104.383983 L26.7955996,100.633142 L26.4171307,100.633142 L25.1750645,103.505906 L25.1750645,100.633142 L24.7793925,100.633142 L24.7793925,104.363241 L24.7793925,104.383983 Z M27.9516501,104.383983 L28.3438816,104.383983 L29.592829,101.497391 L29.592829,104.363241 L29.9919417,104.363241 L29.9919417,100.633142 L29.592829,100.633142 L28.3507628,103.505906 L28.3507628,100.633142 L27.9516501,100.633142 L27.9516501,104.363241 L27.9516501,104.383983 Z M28.9838381,100.235588 C29.1951207,100.249798 29.402915,100.176037 29.5584227,100.031625 C29.6964381,99.8747124 29.7691189,99.6704855 29.7614197,99.4612208 L29.4655258,99.4612208 C29.4699979,99.5996042 29.4192046,99.7340377 29.3244601,99.8345764 C29.2300181,99.9183866 29.1061107,99.9607155 28.9803975,99.9521142 C28.8545309,99.9619175 28.7301693,99.9194334 28.6363348,99.8345764 C28.5409133,99.7348888 28.4921338,99.5991643 28.5021504,99.4612208 L28.2165784,99.4612208 C28.2132215,99.6703959 28.2867187,99.873475 28.423016,100.031625 C28.5757532,100.176032 28.7814805,100.249945 28.9907194,100.235588 L28.9838381,100.235588 Z M32.1560958,105.265516 L32.5001584,105.265516 L32.5448866,104.366698 L34.512925,104.366698 L34.5507719,105.265516 L34.8948345,105.265516 L34.8948345,104.020998 L34.5198062,104.020998 L34.5198062,100.633142 L32.9715243,100.633142 L32.9164743,101.504305 C32.8923899,101.929516 32.8614242,102.289043 32.8166961,102.582888 C32.784543,102.827819 32.7315936,103.069538 32.6584273,103.3054 C32.6067528,103.468423 32.5301423,103.622373 32.4313459,103.761723 C32.3511736,103.872977 32.2507769,103.967986 32.135452,104.04174 L32.135452,105.262059 L32.1560958,105.265516 Z M32.6446648,104.024455 L34.0862873,104.024455 L34.0862873,100.985756 L33.3775182,100.985756 L33.3224682,101.604558 C33.2949432,102.012484 33.2674182,102.358183 33.2330119,102.641657 C33.2067992,102.875099 33.1630938,103.106221 33.1022681,103.333056 C33.0624584,103.487372 32.99859,103.634385 32.9130336,103.768637 C32.8438466,103.871631 32.754959,103.959766 32.651546,104.027912 L32.6446648,104.024455 Z M36.7734166,104.425467 C36.9880163,104.439359 37.2011008,104.380969 37.3789669,104.259531 C37.5290292,104.138612 37.6344211,103.970643 37.6783014,103.782465 C37.7454676,103.533573 37.7767519,103.276288 37.7711983,103.018469 L37.7711983,101.981371 C37.7767519,101.723552 37.7454676,101.466266 37.6783014,101.217375 C37.6344211,101.029197 37.5290292,100.861228 37.3789669,100.740309 C37.0090321,100.518918 36.5481231,100.518918 36.1781882,100.740309 C36.0272461,100.861054 35.9206988,101.028934 35.8754131,101.217375 C35.8082469,101.466266 35.7769627,101.723552 35.7825162,101.981371 L35.7825162,103.018469 C35.7769627,103.276288 35.8082469,103.533573 35.8754131,103.782465 C35.9206988,103.970906 36.0272461,104.138786 36.1781882,104.259531 C36.3530918,104.378988 36.5622582,104.437299 36.7734166,104.425467 L36.7734166,104.425467 Z M36.7734166,104.079767 C36.9009028,104.087639 37.0257953,104.041209 37.1174793,103.951858 C37.1986213,103.846191 37.2465401,103.718602 37.2551044,103.585417 C37.2727615,103.40853 37.2808015,103.230806 37.2791887,103.053039 L37.2791887,101.971 C37.2809684,101.79323 37.2729279,101.615497 37.2551044,101.438622 C37.2460741,101.306591 37.1981685,101.180241 37.1174793,101.075638 C37.0271188,100.983881 36.9016213,100.935965 36.7734166,100.944272 C36.6450729,100.935025 36.5191971,100.983085 36.429354,101.075638 C36.3498971,101.180645 36.3032021,101.30696 36.2951695,101.438622 C36.277346,101.615497 36.2693055,101.79323 36.2710852,101.971 L36.2710852,103.053039 C36.2694724,103.230806 36.2775124,103.40853 36.2951695,103.585417 C36.3027358,103.718232 36.3494438,103.845786 36.429354,103.951858 C36.5205628,104.041964 36.6458022,104.088523 36.7734166,104.079767 L36.7734166,104.079767 Z M38.8377926,104.377069 L39.2265834,104.377069 L39.2265834,101.770494 L39.9972837,103.989885 L40.1452307,103.989885 L40.9228123,101.756666 L40.9228123,104.377069 L41.3288062,104.377069 L41.2909593,100.633142 L40.9468966,100.633142 L40.0798588,103.194776 L39.2128209,100.633142 L38.8687582,100.633142 L38.8377926,104.363241 L38.8377926,104.377069 Z M41.3907375,86.3557505 L39.285074,92.3259819 L39.285074,85.7127493 L37.8124859,85.7127493 L37.8124859,95.1710893 C37.7780796,96.4363497 39.2334646,96.3914087 39.5775273,95.409622 L41.5455657,89.9268269 L41.5455657,96.1010211 L43.0112726,96.1010211 L43.0112726,86.5286002 C43.0112726,85.4534746 41.7141564,85.3670497 41.3838562,86.3315515 L41.3907375,86.3557505 Z M29.7510978,86.3557505 L27.648875,92.3259819 L27.648875,85.7127493 L26.1522025,85.7127493 L26.1522025,95.1710893 C26.1177962,96.4363497 27.5731812,96.3914087 27.9138033,95.409622 L29.8852823,89.9268269 L29.8852823,96.1010211 L31.3544298,96.1010211 L31.3544298,86.5286002 C31.3544298,85.4534746 30.0607542,85.3670497 29.7270134,86.3315515 L29.7510978,86.3557505 Z M8.13364118,96.1044781 L9.60966997,96.1044781 L9.60966997,93.5463013 L11.3575083,93.5463013 L11.3575083,96.0906501 L12.8369777,96.0906501 L12.8369777,85.7196633 L11.3575083,85.7196633 L11.3575083,92.229186 L9.59590747,92.229186 L9.59590747,85.7196633 L8.11987867,85.7196633 L8.11987867,96.0906501 L8.13364118,96.1044781 Z M17.5506361,86.3419225 L15.4484132,92.3121539 L15.4484132,85.7127493 L13.9758251,85.7127493 L13.9758251,95.1710893 C13.9414188,96.4363497 15.3968038,96.3914087 15.7374259,95.409622 L17.7089049,89.9268269 L17.7089049,96.1010211 L19.1780524,96.1010211 L19.1780524,86.5286002 C19.1780524,85.4534746 17.8809362,85.3670497 17.5506361,86.3315515 L17.5506361,86.3419225 Z M14.557291,54.8832624 L19.3741681,54.8832624 C19.4601838,52.038155 21.4557472,50.437566 24.1910453,50.437566 C27.0089185,50.437566 29.0079225,52.1660638 29.0079225,55.0491982 C29.0079225,58.2296341 26.0558649,60.2070356 23.7678483,61.9355334 C19.3397619,65.2784482 14.5332066,68.9117506 14.5366454,78.3770046 C14.5366454,79.7134767 15.6149419,80.7969015 16.9450858,80.7969015 L33.738784,80.7969015 L33.738784,75.9225377 L20.3031373,75.9225377 C19.7836027,75.9225377 19.5565213,75.9225377 19.6838245,75.2311386 C20.6231156,70.3913447 23.7678483,67.9991037 26.7027027,65.7831696 C30.4426638,62.9622611 33.8901716,60.1309817 33.8901716,55.0146282 C33.8901716,49.4834352 29.6822853,45.5286322 24.2254516,45.5286322 C21.3078003,45.5286322 19.0335461,46.538075 17.4095704,48.09718 C15.6030302,49.8761301 14.5797082,52.3071907 14.5676128,54.8486924 L14.557291,54.8832624 Z M51.7607859,48.1697769 C48.1653312,44.6159854 41.6659876,44.5779585 38.0292453,48.090266 C33.821359,52.1522358 34.4097062,59.6055184 39.2197021,62.9553471 L35.627688,71.7914279 C33.7628684,76.3788611 36.7080447,80.8280145 41.6694282,80.7485036 L48.2307031,80.7485036 C53.068224,80.7485036 56.274888,76.1506994 54.4719996,71.6116642 C53.4742179,69.0984283 52.2596768,66.4780257 51.3341482,64.4867962 L50.580651,62.8723792 C55.3080719,59.4810665 55.9033003,52.2697737 51.7607859,48.1836049 L51.7607859,48.1697769 Z M44.8795328,50.3718831 C39.3504459,50.3718831 38.6141518,57.0611696 42.3128254,59.149195 C43.8989542,60.0445568 44.4494545,60.9779456 44.5285889,61.8629365 C44.6318077,63.0106591 43.4241478,65.461669 43.0009507,66.5056816 L40.1108244,73.6098076 C39.5465616,74.9926059 40.14179,75.9190807 41.6384626,75.8845107 L48.2444656,75.8845107 C49.6757662,75.8845107 50.5324822,74.7644442 49.9957445,73.4093019 C49.1699941,71.3351045 47.9107248,68.617906 46.95079,66.5540796 C46.3417991,65.2335073 45.2304767,63.2595628 45.4128299,61.8145386 C45.5470144,60.735956 46.0768708,59.892449 47.3017339,59.2217919 C51.2034044,57.0853686 50.377654,50.3822541 44.8932953,50.3822541 L44.8795328,50.3718831 Z M49.7273756,96.0768221 L51.2446919,96.0768221 L51.4820952,93.5324734 L53.2024084,93.5324734 L53.4501336,96.0768221 L54.957128,96.0768221 L53.8630087,87.0886335 C53.7909379,86.2936113 53.1194225,85.6898438 52.3250487,85.7058353 C51.5423057,85.7310675 50.8985479,86.3335852 50.8180542,87.1162895 L49.7204944,96.0768221 L49.7273756,96.0768221 Z M51.612839,92.222272 L53.0716646,92.222272 L52.8583458,89.9786819 L52.6828738,87.6140969 C52.6347051,86.9572677 52.0601204,86.9503537 51.9947485,87.6140969 L51.8123953,89.9786819 L51.5990765,92.222272 L51.612839,92.222272 Z M44.1535606,96.0906501 L45.6295894,96.0906501 L45.6295894,93.5463013 L47.3911902,93.5463013 L47.3911902,96.0906501 L48.8603377,96.0906501 L48.8603377,85.7196633 L47.3808683,85.7196633 L47.3808683,92.229186 L45.6192675,92.229186 L45.6192675,85.7196633 L44.1432387,85.7196633 L44.1432387,96.0906501 L44.1535606,96.0906501 Z M33.8316809,96.0906501 L35.3077097,96.0906501 L35.3077097,87.0367786 L36.9867355,87.0367786 L36.9867355,85.7196633 L32.1560958,85.7196633 L32.1560958,87.0367786 L33.8351216,87.0367786 L33.8351216,96.0906501 L33.8316809,96.0906501 Z M20.3409842,96.0906501 L21.844538,96.0906501 L21.844538,93.7571781 L22.7218978,91.7797766 L23.9536421,96.0906501 L25.4640771,96.0906501 L23.7196795,90.1722736 L25.3402146,85.7196633 L23.7437639,85.7196633 L21.7516411,91.1194904 L21.9133505,85.7196633 L20.3513061,85.7196633 L20.3409842,96.0906501 Z"/></g></svg>