<svg xmlns="http://www.w3.org/2000/svg" width="143" height="87" viewBox="0 0 143 87"><g fill="#00754A" fill-rule="evenodd"><path d="M141.613625,83.7460133 C141.613625,84.7782858 140.774016,85.6165221 139.737883,85.6165221 L84.3256749,85.6165221 C84.7002395,85.0868033 84.9230324,84.4426032 84.9230324,83.7460133 L84.9230324,36.1159533 C84.9230324,35.1525637 84.4988502,34.2454446 83.7604229,33.625499 L72.5779677,24.2506412 L99.3316075,1.82199969 C100.029173,1.23601044 101.048767,1.23601044 101.746333,1.82199969 L140.945246,34.6839664 C141.369428,35.0390526 141.613625,35.5639204 141.613625,36.1159533 L141.613625,83.7460133 Z M3.26211697,85.6165221 C2.22598378,85.6165221 1.38637539,84.7782858 1.38637539,83.7460133 L1.38637539,36.1159533 C1.38637539,35.5639204 1.63154493,35.0390526 2.05572715,34.6839664 L41.25464,1.82199969 C41.9522057,1.23601044 42.9708268,1.23601044 43.6693654,1.82199969 L82.8682782,34.6839664 C83.2914875,35.0390526 83.5366571,35.5639204 83.5366571,36.1159533 L83.5366571,83.7460133 C83.5366571,84.7782858 82.6960758,85.6165221 81.6599426,85.6165221 L3.26211697,85.6165221 Z M141.83739,33.625499 L102.638478,0.763532351 C102.051822,0.270680465 101.305611,0 100.53897,0 C99.772329,0 99.0261185,0.270680465 98.4394628,0.763532351 L71.5,23.3474028 L44.5615101,0.763532351 C43.9748544,0.270680465 43.2286439,0 42.4610298,0 C41.6943885,0 40.9491509,0.270680465 40.3624952,0.763532351 L1.16358243,33.625499 C0.424182224,34.2454446 0,35.1525637 0,36.1159533 L0,83.7460133 C0,85.5398778 1.46323409,87 3.26211697,87 L139.737883,87 C141.536766,87 143,85.5398778 143,83.7460133 L143,36.1159533 C143,35.1525637 142.576791,34.2454446 141.83739,33.625499 L141.83739,33.625499 Z"/><path d="M92.5038303,64.740364 C92.5884722,64.9615652 92.7042467,65.1507505 92.8628286,65.319562 C93.1264832,65.6135268 93.5594214,65.8977898 94.2453124,65.8977898 C95.2055598,65.8977898 95.8282126,65.276874 96.0081982,64.3183353 L93.823076,64.3183353 L93.823076,63.5295783 L95.9974963,63.5295783 C95.8282126,62.6350715 95.2055598,62.0034837 94.2453124,62.0034837 C93.5701233,62.0034837 93.1585887,62.2664027 92.9046631,62.5302919 C92.7567831,62.6884314 92.6410085,62.8562727 92.5563667,63.05613 L91.7128667,63.05613 C91.8072375,62.7194772 91.9658194,62.4148404 92.1866666,62.1402792 C92.5563667,61.6881749 93.1790195,61.2137565 94.2453124,61.2137565 C95.7231399,61.2137565 96.8838037,62.3721525 96.8838037,63.9516069 C96.8838037,65.529121 95.7231399,66.687517 94.2453124,66.687517 C93.1692905,66.687517 92.5145322,66.2033967 92.1448321,65.7192765 C91.923012,65.4350135 91.7547012,65.1090327 91.6593575,64.740364 L92.5038303,64.740364 Z"/><polygon points="98.42 61.319 99.264 61.319 99.264 63.424 100.32 63.424 102.009 61.319 103.011 61.319 101.058 63.793 103.169 66.582 102.114 66.582 100.32 64.213 99.264 64.213 99.264 66.582 98.42 66.582"/><path d="M106.539592,65.8980808 C107.637018,65.8980808 108.439656,65.0986518 108.439656,63.9509278 C108.439656,62.804174 107.637018,62.0028046 106.539592,62.0028046 C105.442166,62.0028046 104.639528,62.804174 104.639528,63.9509278 C104.639528,65.0986518 105.442166,65.8980808 106.539592,65.8980808 M106.539592,61.2140476 C108.122492,61.2140476 109.284129,62.3714733 109.284129,63.9509278 C109.284129,65.5294121 108.122492,66.6868379 106.539592,66.6868379 C104.956692,66.6868379 103.795055,65.5294121 103.795055,63.9509278 C103.795055,62.3714733 104.956692,61.2140476 106.539592,61.2140476"/><polygon points="92.081 71.894 92.926 71.894 92.926 73.999 93.982 73.999 95.671 71.894 96.673 71.894 94.72 74.367 96.831 77.157 95.776 77.157 93.982 74.788 92.926 74.788 92.926 77.157 92.081 77.157"/><path d="M100.615245 76.3673997C101.2486 76.3673997 101.565764 76.0520909 101.565764 75.5786426 101.565764 75.1042242 101.2486 74.7879452 100.615245 74.7879452L98.8737631 74.7879452 98.8737631 76.3673997 100.615245 76.3673997ZM100.562709 74.0515779C101.10072 74.0515779 101.353673 73.7886589 101.353673 73.3676004 101.353673 72.9465419 101.10072 72.6836229 100.562709 72.6836229L98.8737631 72.6836229 98.8737631 74.0515779 100.562709 74.0515779ZM98.0292903 71.8938957 100.615245 71.8938957C101.629002 71.8938957 102.198145 72.4624217 102.198145 73.2094609 102.198145 74.1573277 101.490851 74.3571849 101.406209 74.3571849L101.406209 74.3668867C101.459718 74.3668867 102.409264 74.5677142 102.409264 75.6300622 102.409264 76.524569 101.775909 77.1561567 100.625947 77.1561567L98.0292903 77.1561567 98.0292903 71.8938957ZM106.273505 76.4725673C107.287262 76.4725673 108.068497 75.6731383 108.068497 74.5254143 108.068497 73.3786605 107.287262 72.5772911 106.273505 72.5772911 105.259749 72.5772911 104.479487 73.3786605 104.479487 74.5254143 104.479487 75.6731383 105.259749 76.4725673 106.273505 76.4725673M106.168433 71.788534C107.181216 71.788534 107.762035 72.3153422 107.962451 72.5889332L108.056822 72.7461025 108.068497 72.7461025 108.068497 71.8933136 108.911997 71.8933136 108.911997 77.1565448 108.068497 77.1565448 108.068497 76.3144278 108.056822 76.3144278 107.962451 76.4618953C107.772736 76.7461583 107.181216 77.2613244 106.168433 77.2613244 104.785949 77.2613244 103.635014 76.1038986 103.635014 74.5254143 103.635014 72.9459598 104.785949 71.788534 106.168433 71.788534M113.397334 76.4725673C114.411091 76.4725673 115.191353 75.6731383 115.191353 74.5254143 115.191353 73.3786605 114.411091 72.5772911 113.397334 72.5772911 112.383578 72.5772911 111.603316 73.3786605 111.603316 74.5254143 111.603316 75.6731383 112.383578 76.4725673 113.397334 76.4725673L113.397334 76.4725673ZM110.758843 71.8933136 111.603316 71.8933136 111.603316 72.7354306 111.614018 72.7354306 111.719091 72.5772911C111.888374 72.3153422 112.489623 71.788534 113.502407 71.788534 114.885864 71.788534 116.035826 72.9459598 116.035826 74.5254143 116.035826 76.1038986 114.885864 77.2613244 113.502407 77.2613244 112.500325 77.2613244 111.888374 76.7461583 111.719091 76.4618953L111.614018 76.3144278 111.603316 76.3144278 111.603316 79.1570578 110.758843 79.1570578 110.758843 71.8933136Z"/><polygon points="116.83 71.894 121.369 71.894 121.369 72.683 119.522 72.683 119.522 77.157 118.677 77.157 118.677 72.683 116.83 72.683"/><path d="M124.799858,76.4725673 C125.813615,76.4725673 126.59485,75.6731383 126.59485,74.5254143 C126.59485,73.3786605 125.813615,72.5772911 124.799858,72.5772911 C123.786102,72.5772911 123.00584,73.3786605 123.00584,74.5254143 C123.00584,75.6731383 123.786102,76.4725673 124.799858,76.4725673 M124.694786,71.788534 C125.70757,71.788534 126.288388,72.3153422 126.488804,72.5889332 L126.583175,72.7461025 L126.59485,72.7461025 L126.59485,71.8933136 L127.43835,71.8933136 L127.43835,77.1565448 L126.59485,77.1565448 L126.59485,76.3144278 L126.583175,76.3144278 L126.488804,76.4618953 C126.29909,76.7461583 125.70757,77.2613244 124.694786,77.2613244 C123.312302,77.2613244 122.161367,76.1038986 122.161367,74.5254143 C122.161367,72.9459598 123.312302,71.788534 124.694786,71.788534"/><polygon points="130.143 71.894 132.359 71.894 133.837 77.157 132.94 77.157 131.726 72.683 130.776 72.683 129.562 77.157 128.665 77.157"/><path d="M30.3454709,73.1716239 C30.3454709,74.3261391 29.6274744,75.0431028 28.713926,75.0431028 C27.8003776,75.0431028 27.2458274,74.4736066 27.2458274,73.4966345 L27.2458274,68.6981199 L24.4721038,68.6981199 L24.4721038,73.9041104 C24.4721038,76.197618 25.6794665,77.4006423 27.6534704,77.4006423 C28.5670189,77.4006423 29.1877259,77.0601088 29.5953689,76.717635 C29.8395655,76.5226286 30.0351174,76.2956063 30.1820246,76.0191048 L30.3454709,76.0191048 L30.3454709,77.1571269 L33.1191946,77.1571269 L33.1191946,68.6981199 L30.3454709,68.6981199 L30.3454709,73.1716239 Z M50.4668855,75.0431028 C49.40643,75.0431028 48.6728671,74.3106162 48.6728671,72.9271383 C48.6728671,71.5446306 49.40643,70.812144 50.4668855,70.812144 C51.5273411,70.812144 52.2618768,71.5446306 52.2618768,72.9271383 C52.2618768,74.3106162 51.5273411,75.0431028 50.4668855,75.0431028 L50.4668855,75.0431028 Z M51.3638947,68.4546045 C50.498991,68.4546045 49.8957961,68.811631 49.4560476,69.1531347 C49.2108781,69.3491112 48.9987869,69.5761336 48.8353406,69.836142 L48.6728671,69.836142 L48.6728671,65.3655485 L45.8991434,65.3655485 L45.8991434,77.1571269 L48.6728671,77.1571269 L48.6728671,76.0191048 L48.8353406,76.0191048 C48.9987869,76.2956063 49.2108781,76.5226286 49.4560476,76.717635 C49.8957961,77.0601088 50.498991,77.4006423 51.3638947,77.4006423 C53.3875163,77.4006423 55.1153779,75.7086469 55.1153779,72.9271383 C55.1153779,70.1456297 53.3875163,68.4546045 51.3638947,68.4546045 L51.3638947,68.4546045 Z M18.4878266,68.6981199 L15.5506565,68.6981199 L13.4277996,72.2965207 C13.2672719,72.5691416 13.2653262,72.9077347 13.4229351,73.1813257 L15.7141029,77.1561567 L18.7310503,77.1561567 L16.0409956,72.6836229 L18.4878266,68.6981199 Z M39.5753259,75.0421326 C38.5148703,75.0421326 37.7822804,74.3106162 37.7822804,72.9271383 C37.7822804,71.5446306 38.5148703,70.812144 39.5753259,70.812144 C40.6357814,70.812144 41.3703172,71.5446306 41.3703172,72.9271383 C41.3703172,74.3106162 40.6357814,75.0421326 39.5753259,75.0421326 L39.5753259,75.0421326 Z M40.5608685,68.4536343 C39.6959649,68.4536343 39.09277,68.811631 38.6530214,69.1531347 C38.4078519,69.3491112 38.1947879,69.5761336 38.0323144,69.836142 L37.868868,69.836142 L37.868868,65.3655485 L35.0961173,65.3655485 L35.0961173,77.1571269 L37.868868,77.1571269 L37.868868,76.0191048 L38.0323144,76.0191048 C38.1947879,76.2946361 38.4078519,76.5226286 38.6530214,76.717635 C39.09277,77.0591387 39.6959649,77.4006423 40.5608685,77.4006423 C42.5835173,77.4006423 44.3123517,75.7086469 44.3123517,72.9271383 C44.3123517,70.1456297 42.5835173,68.4536343 40.5608685,68.4536343 L40.5608685,68.4536343 Z M19.8382048,77.1571269 L22.6119285,77.1571269 L22.6119285,65.3655485 L19.8382048,65.3655485 L19.8382048,77.1571269 Z M9.86992258,77.1561567 L12.6436462,77.1561567 L12.6436462,65.3655485 L9.86992258,65.3655485 L9.86992258,77.1561567 Z M71.8725215,52.5135625 C70.8286052,52.5135625 70.1923318,52.9035752 69.801228,53.2945581 C69.5725977,53.5225506 69.393585,53.7835292 69.2622442,54.0600308 L69.0987978,54.0600308 C68.9684299,53.7835292 68.7894172,53.5225506 68.5442477,53.2945581 C68.1366047,52.9035752 67.4682258,52.5135625 66.4077702,52.5135625 C65.4942218,52.5135625 64.9065932,52.8715592 64.5154894,53.2140331 C64.2868591,53.4090394 64.1078464,53.6360617 63.9609393,53.8970404 L63.7974929,53.8970404 L63.7974929,52.758048 L61.0247421,52.758048 L61.0247421,61.2170551 L63.7974929,61.2170551 L63.7974929,56.6620559 C63.7974929,55.5075406 64.4337663,54.8730424 65.3473147,54.8730424 C66.1791399,54.8730424 66.6519669,55.3610433 66.6519669,56.4175703 L66.6519669,61.2170551 L69.4256906,61.2170551 L69.4256906,56.6620559 C69.4256906,55.5075406 70.0619639,54.8730424 70.9755123,54.8730424 C71.8073375,54.8730424 72.2801645,55.3610433 72.2801645,56.4175703 L72.2801645,61.2170551 L75.0538882,61.2170551 L75.0538882,56.0120347 C75.0538882,53.7175569 73.8465255,52.5135625 71.8725215,52.5135625 L71.8725215,52.5135625 Z M33.3020989,59.2650512 C32.4693007,59.2650512 32.1599201,58.9565337 32.1599201,58.4520396 C32.1599201,57.9475456 32.4693007,57.6380579 33.235942,57.6380579 L35.0961173,57.6380579 C35.0961173,58.6140598 34.4598439,59.2650512 33.3020989,59.2650512 L33.3020989,59.2650512 Z M35.0961173,61.2170551 L37.868868,61.2170551 L37.868868,56.0120347 C37.868868,53.8805473 36.4659534,52.5135625 33.7914651,52.5135625 C31.9147506,52.5135625 30.8873735,53.278065 30.3162841,54.0270446 C29.973825,54.4665366 29.7451947,54.9545375 29.6303931,55.5240337 L32.4041168,55.5240337 C32.4693007,55.3765662 32.5675631,55.2310391 32.6813919,55.1175279 C32.893483,54.9215514 33.2203757,54.7110221 33.7914651,54.7110221 C34.5902119,54.7110221 35.0961173,55.1650668 35.0961173,55.9305395 L35.0961173,56.2555501 L32.5675631,56.2555501 C30.446652,56.2555501 29.3044733,57.3945425 29.3044733,58.9400406 C29.3044733,60.4195664 30.3483896,61.4615407 32.1599201,61.4615407 C33.2203757,61.4615407 33.9208601,61.120037 34.3615815,60.7785334 C34.6223174,60.5825568 34.8188422,60.3555345 34.9657493,60.0790329 L35.0961173,60.0790329 L35.0961173,61.2170551 Z M14.0066722,48.6939603 C14.4143152,48.6939603 14.740235,49.0189709 14.740235,49.4254767 C14.740235,49.8319825 14.4143152,50.1579633 14.0066722,50.1579633 C13.5990291,50.1579633 13.2721364,49.8319825 13.2721364,49.4254767 C13.2721364,49.0189709 13.5990291,48.6939603 14.0066722,48.6939603 L14.0066722,48.6939603 Z M14.0066722,51.2959855 C15.1644172,51.2959855 15.9641369,50.4829739 15.9641369,49.4254767 C15.9641369,48.3689498 15.1644172,47.5559382 14.0066722,47.5559382 C12.8479542,47.5559382 12.0482345,48.3689498 12.0482345,49.4254767 C12.0482345,50.4829739 12.8479542,51.2959855 14.0066722,51.2959855 L14.0066722,51.2959855 Z M53.1024581,56.0925597 C53.2814708,55.3610433 53.9012049,54.7110221 54.8147533,54.7110221 C55.7283017,54.7110221 56.3480358,55.3610433 56.5280214,56.0925597 L53.1024581,56.0925597 Z M54.8147533,52.5135625 C52.204476,52.5135625 50.1652881,54.5635547 50.1652881,56.9870665 C50.1652881,59.4115485 52.204476,61.4615407 54.8147533,61.4615407 C56.6739557,61.4615407 57.8492128,60.6970382 58.5010525,59.9160426 C58.8931292,59.4765506 59.1869435,58.9565337 59.3824954,58.3705444 L56.4462982,58.3705444 C56.3645751,58.5500279 56.2663127,58.695555 56.1194055,58.8255592 C55.8752089,59.0700448 55.4675659,59.2650512 54.8147533,59.2650512 C53.8360209,59.2650512 53.1997476,58.6305529 53.0207349,57.4750675 L59.4642186,57.4750675 L59.4642186,56.9870665 C59.4642186,54.5635547 57.4902146,52.5135625 54.8147533,52.5135625 L54.8147533,52.5135625 Z M13.4355828,59.2650512 C12.6037576,59.2650512 12.293404,58.9565337 12.293404,58.4520396 C12.293404,57.9475456 12.6037576,57.6380579 13.3703988,57.6380579 L15.2296012,57.6380579 C15.2296012,58.6140598 14.5933278,59.2650512 13.4355828,59.2650512 L13.4355828,59.2650512 Z M12.7020199,56.2555501 C10.5811088,56.2555501 9.43893009,57.3945425 9.43893009,58.9400406 C9.43893009,60.4195664 10.4828464,61.4615407 12.293404,61.4615407 C13.3538596,61.4615407 14.0553169,61.120037 14.4960383,60.7785334 C14.7567742,60.5825568 14.9523261,60.3555345 15.0992332,60.0790329 L15.2296012,60.0790329 L15.2296012,61.2170551 L18.0033249,61.2170551 L18.0033249,56.0120347 C18.0033249,53.8805473 16.6004102,52.5135625 13.924949,52.5135625 C12.0482345,52.5135625 11.0218303,53.278065 10.449768,54.0270446 C10.107309,54.4665366 9.87867863,54.9545375 9.76484992,55.5240337 L12.5385736,55.5240337 C12.6037576,55.3765662 12.7020199,55.2310391 12.8158487,55.1175279 C13.0279398,54.9215514 13.3538596,54.7110221 13.924949,54.7110221 C14.7236958,54.7110221 15.2296012,55.1650668 15.2296012,55.9305395 L15.2296012,56.2555501 L12.7020199,56.2555501 Z M19.8372319,61.2170551 L22.6109556,61.2170551 L22.6109556,49.4254767 L19.8372319,49.4254767 L19.8372319,61.2170551 Z M44.105125,59.1020608 C43.0446695,59.1020608 42.3101338,58.3705444 42.3101338,56.9870665 C42.3101338,55.6055289 43.0446695,54.8730424 44.105125,54.8730424 C45.1646077,54.8730424 45.8991434,55.6055289 45.8991434,56.9870665 C45.8991434,58.3705444 45.1646077,59.1020608 44.105125,59.1020608 L44.105125,59.1020608 Z M48.6718942,61.2170551 L48.6718942,49.4254767 L45.8991434,49.4254767 L45.8991434,53.8970404 L45.7356971,53.8970404 C45.5732236,53.6360617 45.3611325,53.4090394 45.115963,53.2140331 C44.6752415,52.8715592 44.0555074,52.5135625 43.207143,52.5135625 C41.1844942,52.5135625 39.4556598,54.2055579 39.4556598,56.9870665 C39.4556598,59.7695452 41.1844942,61.4615407 43.207143,61.4615407 C44.0555074,61.4615407 44.6752415,61.120037 45.115963,60.7785334 C45.3611325,60.5825568 45.5732236,60.3555345 45.7356971,60.0790329 L45.8991434,60.0790329 L45.8991434,61.2170551 L48.6718942,61.2170551 Z M28.7003055,61.2180253 L26.0092779,56.7435511 L28.4561088,52.758048 L25.5189388,52.758048 L23.3960819,56.3574191 C23.2355542,56.6300399 23.2336084,56.9676629 23.3921903,57.2412539 L25.6823852,61.2180253 L28.7003055,61.2180253 Z"/></g></svg>