<svg width="168" height="36" viewBox="0 0 168 36" fill="none" xmlns="http://www.w3.org/2000/svg">
<path d="M120.374 35.183H112.63V0.190983H120.374V35.183Z" fill="#EE3224"/>
<path d="M166.863 16.7766C166.548 16.6731 165.13 16.3221 163.864 16.3221C160.885 16.3221 159.235 18.4146 158.916 18.8084V35.1816H151.328V10.3236H158.602L158.698 13.5501C159.957 11.3834 162.12 9.65089 165.719 9.65089C166.513 9.65089 167.327 9.75664 168 9.92539L166.863 16.7766Z" fill="#EE3224"/>
<path d="M97.8277 35.9791C91.7072 35.9791 87.9679 34.0419 87.7048 33.9091L90.1174 28.5159C90.376 28.6711 93.2434 30.4779 96.8288 30.4779C99.6784 30.4779 100.842 29.4294 100.842 28.3516C100.842 27.1974 100.004 26.7114 97.5022 25.9194C92.0907 24.2094 89.0226 21.9369 89.0226 17.5179C89.0226 13.4836 92.2936 9.56413 98.9091 9.56413C104.798 9.56413 108.457 11.4991 108.874 11.7241L106.608 16.9509C106.392 16.8204 103.752 15.0586 100.385 15.0586C98.18 15.0586 97.2435 15.9744 97.2435 17.0814C97.2435 18.5034 98.5167 19.0299 101.17 19.8421C107.902 21.9054 109.478 24.7359 109.478 27.9286C109.478 32.0866 105.935 35.9791 97.8277 35.9791Z" fill="#EE3224"/>
<path d="M77.9703 35.184V18.9885C77.9703 17.1975 77.2055 15.6697 74.7617 15.6697C72.9712 15.6697 71.3881 17.211 71.0648 17.4967V35.184H63.4727V10.326H70.766L70.8419 13.3545C71.183 12.8887 73.4216 9.55196 77.4329 9.55196C83.0718 9.55196 85.5758 13.5862 85.5758 18.3045V35.184H77.9703Z" fill="#EE3224"/>
<path fill-rule="evenodd" clip-rule="evenodd" d="M135.84 9.54674C129.139 9.54674 123.824 14.5147 123.824 22.7542C123.824 31.0027 128.932 35.964 136.955 35.964C142.11 35.964 146.029 33.9615 146.611 33.6352L144.087 28.5727C144.078 28.5787 144.063 28.5883 144.043 28.6013C143.634 28.868 141.062 30.5437 137.722 30.5437C133.376 30.5437 131.683 27.666 131.568 25.101L147.726 25.101C147.731 25.0536 147.737 25.0014 147.744 24.9444C147.794 24.5067 147.876 23.7855 147.876 22.7542C147.876 14.7195 142.743 9.54674 135.84 9.54674ZM135.857 14.967C138.609 14.967 140.197 17.262 140.197 20.2905H131.503C131.503 17.487 132.914 14.967 135.857 14.967Z" fill="#EE3224"/>
<path fill-rule="evenodd" clip-rule="evenodd" d="M47.9854 9.54674C41.2851 9.54674 35.9695 14.5147 35.9695 22.7542C35.9695 31.0027 41.0755 35.964 49.1003 35.964C54.2531 35.964 58.1752 33.9615 58.7549 33.6352L56.2331 28.5727C56.2227 28.5792 56.2062 28.5899 56.1838 28.6044C55.7579 28.8808 53.195 30.5437 49.8695 30.5437C45.5216 30.5437 43.8292 27.666 43.7133 25.101L59.872 25.101C59.8771 25.0536 59.8831 25.0014 59.8896 24.9444C59.9394 24.5067 60.0214 23.7855 60.0214 22.7542C60.0214 14.7195 54.8886 9.54674 47.9854 9.54674ZM48.001 14.967C50.7547 14.967 52.3423 17.262 52.3423 20.2905H43.6486C43.6486 17.487 45.06 14.967 48.001 14.967Z" fill="#EE3224"/>
<path d="M25.5614 32.0805C25.2939 32.3595 22.1076 36 15.996 36C7.71258 36 0 29.1015 0 18C0 7.137 7.23319 0 17.2379 0C26.8903 0 30.3486 6.4935 31.0287 7.56L24.6651 11.5627C24.266 10.899 22.1522 6.858 17.2134 6.858C11.8888 6.858 8.41494 11.3715 8.41494 18C8.41494 24.2887 11.5811 29.1398 17.2134 29.1398C22.3529 29.1398 24.9304 24.8693 25.2916 21.4875L17.2201 21.4875V16.1325H32.5159V35.181L25.9115 35.181L25.6261 32.0805H25.5614Z" fill="#EE3224"/>
</svg>
