<svg xmlns="http://www.w3.org/2000/svg" width="142" height="101" viewBox="0 0 142 101"><path fill-rule="evenodd" d="M71.0254015 68.9958753 71.0254015 82.9909095C71.0254015 83.6914151 71.624314 84.2707169 72.3561918 84.2707169L85.7756666 84.2114641 85.7756666 81.6515847 73.6868196 81.6515847 73.6868196 77.2673539 83.0471971 77.2673539 83.0471971 74.7191663 73.6868196 74.7191663 73.6868196 70.2756828 85.7756666 70.2756828 85.7756666 67.7159091 72.3561918 67.7159091C71.624314 67.7159091 71.0254015 68.2952639 71.0254015 68.9958753ZM2.62962562 67.7159091 2.62962562 74.7191663 11.5386252 74.7191663 11.5386252 67.7159091 14.2000433 67.7159091 14.2000433 84.2114641 11.5386252 84.2114641 11.5386252 77.2673539 2.62962562 77.2673539 2.62962562 84.2114641 0 84.2114641 0 67.7159091 2.62962562 67.7159091ZM120.946476 72.6069099 111.613125 83.7159626C110.878647 84.7301906 109.18812 84.2438416 109.18812 82.9909095L109.18812 67.7159091 111.849375 67.7159091 111.849375 79.379769 121.182943 68.2708221C121.917366 67.2564354 123.607732 67.7429432 123.607732 68.9958753L123.607732 84.2114641 120.946476 84.2114641 120.946476 72.6069099ZM129.910936 74.7191663 139.271368 74.7191663 139.271368 77.2673539 129.910936 77.2673539 129.910936 81.7109433 142 81.7109433 142 84.2114641 128.580309 84.2114641C127.848485 84.2114641 127.249681 83.6321623 127.249681 82.931498L127.249681 68.9958753C127.249681 68.2952639 127.848485 67.7159091 128.580309 67.7159091L142 67.7159091 142 70.2756828 129.910936 70.2756828 129.910936 74.7191663ZM103.868587 87.2272727 103.868587 84.2351653 90.98991 84.2351653 90.98991 87.2272727 88.3294668 87.2272727C88.2973493 85.8163684 88.3360744 84.370706 88.3360744 82.9551991 88.3360744 82.2484508 88.9283793 81.6753916 89.6593364 81.6753916L90.2852211 81.6753916C90.6065584 81.6753916 90.7986133 81.6889351 90.9208547 81.4870523 91.3211046 80.8901862 91.4896537 79.7830054 91.6327471 79.0234587L93.5642914 68.7716669C93.6840414 68.132689 94.2841455 67.691626 94.9448015 67.7288177L103.202569 67.7216228C103.93748 67.7216228 104.533197 68.2920896 104.533197 68.9958753L104.533197 81.6753916 105.199323 81.6753916C105.930118 81.6753916 106.522585 82.2484508 106.522585 82.9551991 106.522585 83.8357908 106.52811 86.0191505 106.52968 87.2272727L103.868587 87.2272727ZM93.7280743 81.6753916 101.871941 81.6753916 101.871941 70.2699691 95.975594 70.2699691 94.2777003 79.2816845C94.1252912 80.0907496 94.0026165 80.8890223 93.7280743 81.6753916ZM49.437904 81.4074314C47.8312717 83.1797248 45.4815502 84.2114641 43.0294102 84.2114641 38.3418826 84.2114641 34.54135 80.44706 34.54135 75.9582904 34.54135 71.469415 38.3417202 67.8301823 43.0294102 67.8301823 45.5419939 67.8301823 47.9399728 68.9124981 49.5474176 70.7599157L47.5096094 72.3829661C46.3976296 71.1048516 44.7654874 70.3791635 43.0294102 70.3791635 39.8113251 70.3791635 37.2032014 72.8768276 37.2032014 75.9582904 37.2032014 79.0399119 39.8113251 81.6626417 43.0294102 81.6626417 44.7248125 81.6626417 46.3190419 80.9713414 47.4310218 79.7447556L49.437904 81.4074314ZM56.8503806 68.7716669C56.9699681 68.132689 57.5702888 67.691626 58.2308907 67.7288177L66.4886582 67.7216228C67.2234607 67.7216228 67.8191236 68.2920896 67.8191236 68.9958753L67.8191236 84.2114641 65.1580304 84.2114641 65.1580304 70.2106105 59.2615207 70.2106105 57.405206 80.0631336C57.2564799 80.853312 56.9592442 84.2617232 53.3278565 84.1958574L52.009794 84.1958574 52.009794 81.7175563 53.3069503 81.7169744C54.4164929 81.6758677 54.6103893 80.6350818 54.7898789 79.6852383L56.8503806 68.7716669ZM20.1360365 68.8814433C20.1962093 68.2313555 20.7666873 67.7216228 21.4612482 67.7216228L28.9065463 67.7372295C29.6031111 67.6506781 30.2551556 68.1025336 30.38043 68.7716669L33.2804274 84.2114641 30.5893832 84.2114641 29.9671273 80.8745795 20.5698662 80.8745795 19.9333659 84.2114641 17.2369598 84.2114641 20.1360365 68.8814433ZM27.9691275 70.2699691 22.5680285 70.2699691 21.0497869 78.3262331 29.4872066 78.3262331 27.9691275 70.2699691ZM52.6576796 9.1261517C50.4620136 7.43481413 47.4283751 6.73922011 44.7120711 6.27727833L44.7120711 19.8704542C47.8601723 19.9728815 50.3641647 21.4089553 52.6576796 23.3846761L52.6576796 9.1261517ZM94.3434547 33.0575676C93.1800026 33.0575676 92.2359822 33.9689024 92.2359822 35.0956028 92.2359822 36.222464 93.1794092 37.1341207 94.3434547 37.1341207 95.5072306 37.1341207 96.4510891 36.2223568 96.4510891 35.0956028 96.4510891 33.9694923 95.5065833 33.0575676 94.3434547 33.0575676ZM87.1614342 37.5574511 87.7601786 38.2851676 86.9137374 38.9331946 88.8501093 41.3650655 90.8099995 38.9041288 89.9797405 38.2691868 90.5813977 37.5428646 91.4057232 38.1564095 92.1608964 37.2076967C91.7226802 36.8287157 91.2337055 36.0230257 91.2560371 35.0956028 91.2560371 33.7714483 92.159386 32.6059221 93.4659435 32.2318211L84.234383 32.2318211C85.5411023 32.6059221 86.4442894 33.7714483 86.4442894 35.0956028 86.4442894 35.9198476 86.0983122 36.6664944 85.5399156 37.2070532L86.3181755 38.1852608 87.1614342 37.5574511ZM95.2208042 32.2318211C96.2008032 32.5122896 96.9793867 33.2520186 97.2876053 34.1949397L97.2876053 32.2318211 95.2208042 32.2318211ZM97.2876053 35.9961587C96.8827246 37.2350464 95.6914389 38.0819218 94.3434547 38.0819218 93.8429907 38.0819218 93.3702523 37.9662487 92.9524797 37.7620912L92.1760538 38.7372421 93.0093874 39.3686983 92.4378292 40.1237646 91.5804919 39.4848541 89.4666003 42.1388475 97.2475811 51.9086963C97.2626845 51.927573 97.276008 51.9476294 97.2876053 51.9676859L97.2876053 35.9961587ZM97.2876053 52.4275362C97.2571826 52.4799833 97.2165111 52.5275503 97.1651593 52.5669124L94.9053575 54.3059779 97.2876053 54.3059779 97.2876053 52.4275362ZM93.9579928 54.3059779 92.995147 53.1584167C92.8251251 52.9559217 92.8564648 52.6584535 93.0656478 52.4939799L93.882907 51.8467037 93.426189 51.2881799 92.5916687 51.9219422C92.3788178 52.08293 92.071786 52.0476435 91.9047848 51.8424672L90.8855707 50.6255664C90.7149016 50.4230714 90.7471583 50.1256032 90.9560176 49.9614514L93.1651688 48.3303368 88.8505408 42.9128976 84.5353195 48.3303368 86.7443089 49.9614514C86.9531682 50.1256032 86.9854249 50.4230714 86.8149715 50.6255664L85.8091348 51.8248239C85.6403536 52.0423345 85.3324048 52.0911349 85.1087117 51.9219422L84.2741374 51.2881799 83.8175813 51.8467037 84.6346787 52.4939799C84.8440235 52.6584535 84.875525 52.9559217 84.7053413 53.1584167L83.7423337 54.3059779 93.9579928 54.3059779ZM82.7949689 54.3059779 80.5345738 52.5672342C80.4748072 52.5210078 80.4290653 52.4637343 80.3982111 52.4007764L80.3982111 54.3059779 82.7949689 54.3059779ZM80.3982111 51.9947674C80.4130449 51.9649509 80.4309533 51.9360997 80.4529612 51.9086963L88.2340498 42.1388475 86.143245 39.5134372 85.2873101 40.1477894 84.7183411 39.3962089 85.5473594 38.7659861 84.7478468 37.7620912C84.3301281 37.9662487 83.8573358 38.0819218 83.3568717 38.0819218 81.9913029 38.0819218 80.7871792 37.2120941 80.3982111 35.9503613L80.3982111 51.9947674ZM80.3982111 34.2406834C80.6954257 33.2770623 81.4832331 32.5170088 82.479846 32.2318211L80.3982111 32.2318211 80.3982111 34.2406834ZM96.1810608 52.1166613 93.7618096 49.079933 91.9607755 50.408324 92.3654944 50.8905367 93.2049233 50.2545222C93.4164257 50.0941242 93.7220551 50.1288208 93.8890563 50.3326565L94.9399337 51.6180924C95.1111962 51.819354 95.0810432 52.1166613 94.8728311 52.2823683L94.059186 52.9272313 94.4784689 53.4264438 96.1810608 52.1166613ZM83.3568717 33.5239604C84.2528847 33.5239604 84.9822741 34.2280811 84.9822741 35.0956028 84.9822741 35.9636072 84.2532083 36.6672988 83.3568717 36.6672988 82.4601036 36.6672988 81.7324403 35.9639289 81.7324403 35.0956028 81.7324403 34.228671 82.4613442 33.5239604 83.3568717 33.5239604ZM83.3568717 34.4717615C82.9999985 34.4717615 82.7121157 34.7497632 82.7121157 35.0956028 82.7121157 35.4406916 83.0003221 35.7196049 83.3568717 35.7196049 83.7134753 35.7196049 84.0020054 35.4406916 84.0020054 35.0956028 84.0020054 34.7509966 83.712828 34.4717615 83.3568717 34.4717615ZM83.3568717 33.0575676C82.1937432 33.0575676 81.2493992 33.9694923 81.2493992 35.0956028 81.2493992 36.2218741 82.1931499 37.1341207 83.3568717 37.1341207 84.5209172 37.1341207 85.4643443 36.222464 85.4643443 35.0956028 85.4643443 33.9689024 84.5203239 33.0575676 83.3568717 33.0575676ZM83.9385169 49.079933 81.5195893 52.1166613 83.2221812 53.4264438 83.641572 52.9272313 82.8277111 52.2823683C82.6194451 52.1166613 82.5892921 51.819354 82.7607164 51.6180924L83.811486 50.3326565C83.9784332 50.1288208 84.2839547 50.0941242 84.4954032 50.2545222L85.3351557 50.8905367 85.7396049 50.408324 83.9385169 49.079933ZM94.3434547 34.4717615C93.9874985 34.4717615 93.6986447 34.7506748 93.6986447 35.0956028 93.6986447 35.4406916 93.9869051 35.7196049 94.3434547 35.7196049 94.7001662 35.7196049 94.9886963 35.4406916 94.9886963 35.0956028 94.9886963 34.7953996 94.6849009 34.4717615 94.3434547 34.4717615ZM94.3434547 33.5239604C95.2388744 33.5239604 95.9682098 34.228671 95.9682098 35.0956028 95.9682098 35.9636072 95.2400611 36.6672988 94.3434547 36.6672988 93.4470102 36.6672988 92.7185378 35.9636072 92.7185378 35.0956028 92.7185378 34.2279202 93.4471181 33.5239604 94.3434547 33.5239604ZM63.5984128 23.0406598 78.4015872 23.0406598 78.4015872 1.44978828C78.4015872-.127484968 80.6498995-.552370589 81.2786351.8850438L83.9345792 5.71526882C84.1817905 6.16460829 84.4691339 6.55619163 84.4633083 7.08323642 84.4504704 8.24200564 83.394037 8.14247419 83.394037 9.2427365 83.394037 9.97999859 84.0108517 10.5768119 84.7727675 10.5768119 85.5374343 10.5768119 86.1560829 9.98364522 86.1560829 9.2427365 86.1560829 8.14247419 85.0997035 8.24200564 85.0868116 7.08323642 85.081957 6.62172366 85.3510683 6.09012058 85.5251897 5.65676191 86.1530083 4.09450419 86.7796402 2.53315813 87.4086995.969559733 87.9048482-.272706508 89.7149444-.244230644 90.1956661.976584852 90.8006677 2.50886516 91.3916446 4.03036647 92.0027955 5.55138513 92.1784811 5.99589819 92.4885876 6.61185631 92.4835172 7.08323642 92.4706792 8.24200564 91.414138 8.14247419 91.414138 9.2427365 91.414138 9.97999859 92.0311145 10.5768119 92.7925448 10.5768119 93.5572116 10.5768119 94.1761839 9.98364522 94.1761839 9.2427365 94.1761839 8.14247419 93.1197506 8.24200564 93.1070744 7.08323642 93.1015725 6.58616905 93.3225146 6.04180278 93.6069451 5.56597164L96.5000136.719497679C97.2700205-.551780694 99.2774866-.00526935072 99.2790509 1.44978828L99.2845528 54.7895313C99.2845528 55.5898586 98.6142288 56.2386364 97.7868287 56.2386364L79.8992574 56.2386364C79.0719112 56.2386364 78.4015872 55.5898586 78.4015872 54.7895313L78.4015872 33.1981772 63.5984128 33.1981772 63.5984128 54.7895313C63.5984128 55.5898586 62.9279269 56.2386364 62.1006887 56.2386364L44.2130095 56.2386364C43.3859331 56.2386364 42.7154472 55.5898586 42.7154472 54.7895313L42.7154472 1.44978828C42.7154472.507886085 43.6253769-.17510562 44.560551.0397235859 47.5196971.525261188 50.6298778 1.20321197 53.156903 2.84419392 55.7140812 1.18347728 58.8615891.511425458 61.8551495.0233137663 62.7696642-.124481863 63.5947449.559743259 63.5953382 1.44978828L63.5984128 23.0406598ZM71.1622274 24.9733718 62.6002357 28.4436733 62.6002357 31.0269865 77.5181424 24.9733718 71.1622274 24.9733718ZM62.6002357 27.3979495 68.5822861 24.9733718 62.6002357 24.9733718 62.6002357 27.3979495ZM70.9556336 31.265626 79.3997643 27.8389768 79.3997643 25.2558245 64.5892 31.265626 70.9556336 31.265626ZM79.3997643 28.8851296 73.5333093 31.265626 79.3997643 31.265626 79.3997643 28.8851296ZM61.6014653 28.6028378 44.7120711 28.6028378 44.7120711 31.265626 61.6014653 31.265626 61.6014653 28.6028378ZM44.7120711 27.6363209 61.6014653 27.6363209 61.6014653 24.9733718 44.7120711 24.9733718 44.7120711 27.6363209ZM91.3144551 24.9733718 97.2876053 27.3944638 97.2876053 24.9733718 91.3144551 24.9733718ZM97.2876053 28.4401875 88.7347836 24.9733718 82.3783291 24.9733718 97.2876053 31.0235007 97.2876053 28.4401875ZM86.3634319 31.265626 80.3982111 28.845124 80.3982111 31.265626 86.3634319 31.265626ZM80.3982111 27.7989712 88.9409458 31.265626 95.3075412 31.265626 80.3982111 25.2158189 80.3982111 27.7989712ZM53.156903 46.9447259C48.8338602 46.9447259 45.006265 50.0450556 44.7281455 54.3059779L61.5855527 54.3059779C61.3071635 50.0450556 57.4795143 46.9447259 53.156903 46.9447259ZM59.2476983 48.0573224 61.6014653 43.162477 61.6014653 35.3318291 58.2005968 47.3405994C58.567557 47.5573592 58.9172561 47.7969104 59.2476983 48.0573224ZM61.6014653 45.4516468 60.0202944 48.7392416C60.6510259 49.3620639 61.185257 50.070582 61.6014653 50.8435596L61.6014653 45.4516468ZM44.7120711 43.162477 47.0659998 48.0573224C47.4646234 47.7428009 47.8916738 47.4586858 48.3432134 47.2089455L44.7120711 35.1319618 44.7120711 43.162477ZM46.2930801 48.7392416 44.7120711 45.4516468 44.7120711 50.8435596C45.1281176 50.070582 45.6626723 49.3620639 46.2930801 48.7392416ZM58.3112836 32.2318211 56.0481914 46.399448C56.480582 46.5294395 56.8995413 46.6875315 57.302588 46.8714716L61.4485966 32.2318211 58.3112836 32.2318211ZM55.0798436 46.1613984 57.3050693 32.2318211 53.6642715 32.2318211 53.6541846 45.9902214C54.1404082 46.0139781 54.6162213 46.0717342 55.0798436 46.1613984ZM49.4159909 32.2318211 51.3652007 46.1371054C51.7875044 46.0613843 52.2196252 46.0116722 52.6598373 45.9902214L52.6697624 32.2318211 49.4159909 32.2318211ZM50.3921061 46.36266 48.4112869 32.2318211 44.8761594 32.2318211 49.2465624 46.76765C49.6162736 46.6104697 49.9987149 46.4751691 50.3921061 46.36266ZM80.3982111 19.8760314 97.2876053 19.8760314 97.2876053 3.22558816 95.0798565 6.87055229C95.7526079 7.48699306 96.1371529 8.34432569 96.1371529 9.2427365 96.1371529 11.0463687 94.6255659 12.5097921 92.7619603 12.5097921 90.8979232 12.5097921 89.3863362 11.0463687 89.3863362 9.2427365 89.3863362 8.35998474 89.7511388 7.52329845 90.4032848 6.9075012L88.7959526 2.83159161 87.1521024 6.92257035C87.791842 7.53563263 88.1528687 8.36985208 88.1528687 9.2427365 88.1528687 11.0463687 86.6412278 12.5097921 84.7773525 12.5097921 82.9133154 12.5097921 81.4017284 11.0463687 81.4017284 9.2427365 81.4017284 8.38175724 81.7526142 7.5587458 82.3767648 6.94718508L80.3982111 3.37150685 80.3982111 19.8760314ZM97.2876053 20.8423875 80.3982111 20.8423875 80.3982111 21.9443658 97.2876053 21.9443658 97.2876053 20.8423875ZM97.2876053 22.9106683 80.3982111 22.9106683 80.3982111 24.0073376 97.2876053 24.0073376 97.2876053 22.9106683ZM44.7120711 20.8339144 44.7120711 24.0073376 51.8820089 24.0073376C49.8065233 22.2422631 47.5448875 20.9370925 44.7120711 20.8339144ZM54.4645393 24.0073376 61.6014653 24.0073376 61.6014653 20.8543999C58.7798146 21.0609706 56.5787545 22.2691837 54.4645393 24.0073376ZM61.6014653 19.8889555 61.6014653 6.27727833C58.8855928 6.73922011 55.8518464 7.43481413 53.6561804 9.1261517L53.6561804 23.4079501C56.0004537 21.4481565 58.4478621 20.1005671 61.6014653 19.8889555ZM61.6014653 5.29831997 61.6014653 4.19698512C58.8855928 4.65876603 55.8518464 5.35500357 53.6561804 7.04612664L53.6561804 7.9332758C55.9706783 6.4105947 58.8794975 5.7549527 61.6014653 5.29831997ZM61.6014653 3.21829491 61.6014653 2.02209414C58.8853231 2.48408955 55.8518464 3.18000533 53.6561804 4.87096752L53.6561804 5.85346524C55.9706783 4.33040876 58.8794975 3.67449862 61.6014653 3.21829491ZM44.7120711 5.29831997C47.4345243 5.7549527 50.3425884 6.4105947 52.6576796 7.93359756L52.6576796 7.04612664C50.4620136 5.35484269 47.4283751 4.65876603 44.7120711 4.19698512L44.7120711 5.29831997ZM52.6576796 5.85346524 52.6576796 4.87096752C50.4620136 3.18000533 47.4286987 2.48408955 44.7120711 2.02209414L44.7120711 3.21829491C47.4345243 3.67449862 50.3425884 4.33040876 52.6576796 5.85346524L52.6576796 5.85346524ZM45.2790443 93.9259174 46.0089731 93.9259174 44.1110072 96.2829466 46.1651322 98.8087073 45.3873038 98.8087073 43.3810244 96.3360758 43.3810244 98.8087073 42.7154472 98.8087073 42.7154472 93.9259174 43.3810244 93.9259174 43.3810244 96.3012753 45.2790443 93.9259174ZM50.8590729 98.8087073 50.1854045 98.8087073 50.1854045 94.5583758 48.8652539 94.5583758C48.7925954 95.6153283 48.6927507 96.4547329 48.5639937 97.0751519 48.4366391 97.6970683 48.2695301 98.1502533 48.0655255 98.4392591 47.8600644 98.7267076 47.5999612 98.8710008 47.285 98.8710008 47.139845 98.8710008 47.024735 98.8528518 46.9398859 98.8178717L46.9398859 98.2704678C46.9987355 98.2871193 47.065838 98.2962836 47.139845 98.2962836 47.4477938 98.2962836 47.6930633 97.9358201 47.8738194 97.2135153 48.055924 96.4927678 48.1942825 95.3962829 48.2873846 93.9259174L50.8590729 93.9259174 50.8590729 98.8087073ZM52.1762028 93.9259174 52.8896257 93.9259174 53.8523096 96.7103158C54.0647291 97.345829 54.1946728 97.8050637 54.2466719 98.0864025L54.2781734 98.0864025C54.3124259 97.9358201 54.3864328 97.6758646 54.4974433 97.3092915 54.6082919 96.942898 54.9710987 95.8144877 55.5859715 93.9259174L56.3009047 93.9259174 54.4110299 99.4853103C54.2234233 100.035949 54.0043152 100.425283 53.7551081 100.65481 53.5044985 100.885895 53.1977363 101 52.8335271 101 52.6307631 101 52.4294016 100.975682 52.2323014 100.925428L52.2323014 100.332382C52.3788049 100.367362 52.543163 100.385511 52.7252676 100.385511 53.1826329 100.385511 53.508598 100.101297 53.7044575 99.5309522L53.9495652 98.8360206 52.1762028 93.9259174ZM57.3877608 95.881573C57.3877608 94.8124014 57.5288703 93.9792262 57.8123838 93.3800708 58.0958435 92.7824129 58.5449558 92.4083526 59.161285 92.2592675 59.9253584 92.078317 60.5990268 91.9322867 61.182506 91.8181818L61.3071635 92.4691486C60.378732 92.6409947 59.7158518 92.7778008 59.3172282 92.8796865 58.9297704 92.9769602 58.6380578 93.2082247 58.4451111 93.5746181 58.2506 93.9396938 58.143743 94.4368436 58.1259965 95.0663671L58.1740039 95.0663671C58.3396026 94.8169536 58.5532087 94.620849 58.8161708 94.4779334 59.0777844 94.3364553 59.3516425 94.2649975 59.6377453 94.2649975 60.178719 94.2649975 60.5990268 94.4597245 60.9017973 94.848879 61.204406 95.2367158 61.3550091 95.7766325 61.3550091 96.4654545 61.3550091 97.228849 61.179755 97.82477 60.8291389 98.2536366 60.4786846 98.682563 59.9911124 98.898374 59.3652896 98.898374 58.7476658 98.898374 58.2628446 98.6353638 57.9123903 98.1091636 57.5631228 97.5830234 57.3877608 96.8410123 57.3877608 95.881573ZM59.4254877 98.2781347C60.241722 98.2781347 60.6484367 97.7001231 60.6484367 96.5459569 60.6484367 95.4434822 60.2787255 94.8930235 59.5379006 94.8930235 59.3351366 94.8930235 59.1378746 94.9402228 58.950268 95.0329443 58.7613129 95.1271631 58.5888097 95.2502526 58.4327047 95.4054472 58.2765996 95.5591444 58.154747 95.7187115 58.069844 95.881573 58.069844 96.6630566 58.1807465 97.2576598 58.4026056 97.6667003 58.6244647 98.0741834 58.9654254 98.2781347 59.4254877 98.2781347ZM63.7826212 93.9259174 63.7826212 95.9711798 66.2462118 95.9711798 66.2462118 93.9259174 66.9117891 93.9259174 66.9117891 98.8087073 66.2462118 98.8087073 66.2462118 96.6082503 63.7826212 96.6082503 63.7826212 98.8087073 63.1170439 98.8087073 63.1170439 93.9259174 63.7826212 93.9259174ZM69.5928157 95.9438665 70.7923543 95.9438665C71.3510746 95.9438665 71.7646398 96.0592891 72.0345603 96.2890562 72.3028625 96.520141 72.4371215 96.8637734 72.4371215 97.3200131 72.4371215 97.8111732 72.2946096 98.1806813 72.0097474 98.4315922 71.7250472 98.682563 71.30598 98.8087073 70.7527617 98.8087073L68.9272384 98.8087073 68.9272384 93.9259174 69.5928157 93.9259174 69.5928157 95.9438665ZM73.8407727 98.8087073 73.1751954 98.8087073 73.1751954 93.9259174 73.8407727 93.9259174 73.8407727 98.8087073ZM69.5928157 96.580937 69.5928157 98.1898456 70.7196959 98.1898456C71.4264301 98.1898456 71.7797972 97.9146163 71.7797972 97.3656551 71.7797972 97.0918034 71.6975373 96.892644 71.5346896 96.7679971 71.3716801 96.6432305 71.0937224 96.580937 70.7006008 96.580937L69.5928157 96.580937ZM76.4820448 93.9259174 76.4820448 97.0220227 76.4532943 97.8324368 76.4408879 98.0864025 78.8210319 93.9259174 79.6508054 93.9259174 79.6508054 98.8087073 79.0290821 98.8087073 79.0290821 95.8236521 79.0413267 95.2351584 79.0605836 94.6573865 76.6859955 98.8087073 75.8560602 98.8087073 75.8560602 93.9259174 76.4820448 93.9259174ZM77.7376821 93.2796825C77.2419648 93.2796825 76.881909 93.1732445 76.654494 92.961866 76.4272948 92.7489301 76.2997784 92.3991882 76.2724303 91.9125804L76.8982531 91.9125804C76.9228502 92.2212326 76.9955086 92.4372232 77.1173612 92.5588153 77.2392138 92.6805271 77.4515793 92.7413232 77.7528395 92.7413232 78.0294486 92.7413232 78.2319968 92.675915 78.3649073 92.5452185 78.4977639 92.4142824 78.5785134 92.2030836 78.607264 91.9125804L79.2371863 91.9125804C79.2058466 92.3808596 79.0702391 92.726229 78.831874 92.9480896 78.5950194 93.1701898 78.2292459 93.2796825 77.7376821 93.2796825ZM87.6204716 100.496741 86.9741512 100.496741 86.9741512 98.8087073 83.9012437 98.8087073 83.9012437 100.496741 83.258861 100.496741 83.258861 98.1714571 83.6039752 98.1714571C83.9626824 97.6317201 84.243445 96.9975845 84.4461551 96.2691702 84.6501597 95.5423132 84.7556682 94.7607697 84.7639212 93.9259174L86.9906572 93.9259174 86.9906572 98.1714571 87.6204716 98.1714571 87.6204716 100.496741ZM86.3482745 98.1714571 86.3482745 94.5098588 85.3609935 94.5098588C85.326741 95.1682529 85.211631 95.8358712 85.0186303 96.5124741 84.8241732 97.1877593 84.5830033 97.7412128 84.2942035 98.1714571L86.3482745 98.1714571ZM92.8965429 96.3635688C92.8965429 97.1588887 92.715625 97.7808051 92.3555692 98.2278806 91.994111 98.6748962 91.4956428 98.898374 90.858816 98.898374 90.4656944 98.898374 90.1165887 98.7949309 89.811229 98.5896619 89.50711 98.3859503 89.2716578 98.0910147 89.1058972 97.70779 88.9387882 97.3245654 88.8566901 96.8759925 88.8566901 96.3635688 88.8566901 95.5667514 89.0362055 94.9462126 89.3935103 94.5023716 89.7523794 94.0581712 90.2493373 93.8361309 90.8861641 93.8361309 91.5023854 93.8361309 91.9899575 94.0642808 92.3528183 94.5190231 92.715625 94.9737056 92.8965429 95.588015 92.8965429 96.3635688ZM89.5468644 96.3635688C89.5468644 96.9868629 89.6592774 97.4614313 89.8837256 97.788472 90.1083357 98.1152732 90.4382924 98.2781347 90.8753219 98.2781347 91.3106253 98.2781347 91.6420924 98.1152732 91.8679431 97.7913471 92.0939557 97.4660434 92.2063147 96.9900973 92.2063147 96.3635688 92.2063147 95.7414726 92.0939557 95.2701386 91.8679431 94.94771 91.6420924 94.6269585 91.3080362 94.4656544 90.867069 94.4656544 90.4302013 94.4656544 90.1014852 94.6239038 89.8795722 94.9417802 89.6578749 95.259417 89.5468644 95.7339854 89.5468644 96.3635688ZM96.9497192 98.0954471 97.0729203 97.6819742 97.2454234 97.1558339 98.4382195 93.9350817 99.2845528 93.9350817 99.2845528 98.8087073 98.6943311 98.8087073 98.6943311 94.7774212 98.6134197 95.035999 98.3821209 95.7172141 97.2454234 98.8087073 96.6881056 98.8087073 95.5527567 95.7080498C95.411809 95.3097309 95.313151 94.9995214 95.2596416 94.7774212L95.2596416 98.8087073 94.6667228 98.8087073 94.6667228 93.9350817 95.480314 93.9350817 96.6319531 97.0310074C96.7469552 97.3580481 96.8523019 97.7124021 96.9497192 98.0954471L96.9497192 98.0954471Z"/></svg>