<svg xmlns="http://www.w3.org/2000/svg" width="184" height="50" viewBox="0 0 184 50"><g><g><path d="M179.322 47.32a3.388 3.388 0 0 0 2.55-.834 3.279 3.279 0 0 0 1.009-2.405 3.297 3.297 0 0 0-1.051-2.387 3.477 3.477 0 0 0-2.508-.78h-.653v6.405h.653zm-1.554-7.246h1.522a4.716 4.716 0 0 1 3.15.926c.85.829 1.336 1.932 1.34 3.09a4.145 4.145 0 0 1-1.318 3.048 4.302 4.302 0 0 1-3.193 1.02h-1.5zm-8.616 0h4.19v.834h-3.291v2.401h3.194v.835h-3.194v3.175h3.29v.834h-4.19zM163 48.155h-.858V40.91h-1.95v-.834H165v.834h-2zm-9.208-6.367L152.412 45h2.733zM152 45.861l-.932 2.294h-.985l3.73-8.468 3.632 8.468h-.997l-.953-2.294zm-8.486-2.047h.276c1.017 0 2.046-.192 2.046-1.447 0-1.367-.975-1.458-2.058-1.458h-.264zm0 4.342h-.901v-8.082h1.168c1.533 0 2.958.407 2.958 2.225a2.128 2.128 0 0 1-.548 1.542c-.38.42-.912.668-1.476.688l2.576 3.624h-1.104l-2.443-3.549h-.23zm-5.397-4.062a3.843 3.843 0 0 1-.836 2.85 3.993 3.993 0 0 1-2.99 1.351 4.158 4.158 0 0 1-3.974-3.384c-.371-1.911.683-3.858 2.433-4.635a4.13 4.13 0 0 1 5.013 1.406l-.652.611a3.285 3.285 0 0 0-2.777-1.522A3.386 3.386 0 0 0 131 44.148c0 .852.375 1.677 1 2.282a3.29 3.29 0 0 0 2.27 1.03c1.478.07 2.73-1.046 2.883-2.53h-2.4v-.835h3.364zM122 40.075h4.179v.834h-3.29v2.401h3.192v.834h-3.193v3.175h3.29v.834H122zm-6.282 8.081h-.9V40.91h-1.951v-.834h4.823v.834h-1.972zm-14.244-8.425l6.301 6.601v-6.258h.9v8.446l-6.3-6.59v6.226h-.904V39.73zm-4.909 8.425h-.898v-8.083h.898zm-7.127-.9L88.228 50l-.579-.234.996-2.766zm-8.605-7.18H85v.833h-3.267v2.401h3.193v.834h-3.193v3.175H85v.834h-4.167zm-4.578 1.767a3.462 3.462 0 0 0-2.463-1.07c-1.792.035-3.26 1.528-3.254 3.353.006 1.874 1.462 3.31 3.274 3.334a3.54 3.54 0 0 0 2.443-1.072V47.5a4.134 4.134 0 0 1-4.91.013 4.209 4.209 0 0 1-1.5-4.71c.57-1.732 2.155-2.892 3.998-2.87a3.906 3.906 0 0 1 2.412.793zm-17.78-2.113v.002zm6.301 6.603v-6.259h.9v8.446l-6.3-6.59v6.226h-.9v-8.424zm-14.97-6.257H54v.834h-3.295v2.401H53.9v.834h-3.194v3.174H54v.834h-4.194zM45 48.157h-1v-8.084h1zm-8.499-4.34c1.017 0 2.046-.194 2.046-1.448 0-1.369-.975-1.458-2.057-1.458h-.268v2.905zm-.276 4.341h-.899v-8.084h1.169c1.505 0 2.957.407 2.957 2.225a2.128 2.128 0 0 1-.548 1.543 2.08 2.08 0 0 1-1.476.687L40 48.153h-1.1l-2.444-3.549h-.225v3.549zm-9.517-8.082h4.19v.834h-3.29v2.401h3.195v.834h-3.194v3.174h3.29v.834h-4.19v-8.079zm-7.384 3.708h.6c.997 0 1.84-.3 1.84-1.458 0-1.326-1.06-1.415-2.11-1.415h-.333v2.874zm0 4.374h-.899v-8.084h1.328a3.353 3.353 0 0 1 2.004.427 2.23 2.23 0 0 1 .91 1.844c.01.655-.273 1.3-.771 1.737a2.886 2.886 0 0 1-1.896.536h-.676zM8.532 40.076h1.03l1.649 3.043 1.65-3.043h1.03L11.706 44l2.392 4.158h-1.035l-1.854-3.324-1.854 3.324h-1.03L10.719 44zm-8.307 0h4.19v.834h-3.29v2.401h3.193v.834H1.125v3.174h3.29v.834H.226zm116.867-12.514c.532.438 1.105.833 1.711 1.166H114.7a4.54 4.54 0 0 1-2.78-.921L96.26 14.428v14.297h-3.405V.36h3.404V13.9L111 1.28a4.677 4.677 0 0 1 2.808-.921h3.67c-.606.333-1.18.724-1.713 1.167L101.19 14l15.902 13.561zm66.68-.562c.01.723.087 1.412.228 2.09L158.817 7.578v21.146h-3.404V2.057c-.01-.691-.085-1.38-.225-2.057l25.18 21.513V.36h3.405V27zM130.3 15.396v10.492h14.535l-.92 2.836h-17.019V.36h17.94l-.92 2.837H130.3v9.362h12.834l-.92 2.838h-11.912zM83 27.562c.581.438 1.154.834 1.76 1.166h-4.105a4.54 4.54 0 0 1-2.78-.921l-15.66-13.379v14.297H58.81V.36h3.404V13.9L77 1.283a4.44 4.44 0 0 1 2.76-.921h3.673c-.606.332-1.18.723-1.713 1.165L67.145 14 83 27.56zM42 .36h3.4v28.364H42zM28.585 27V.36h-3.404v21.153L0 0c.14.677.216 1.366.225 2.057v26.667H3.63V7.578L28.812 29.09a10.932 10.932 0 0 1-.227-2.09"/></g></g></svg>