<svg xmlns="http://www.w3.org/2000/svg" width="201" height="77" viewBox="0 0 201 77"><g><g><path d="M186.292 21.18v14.638h-2.513V21.16h-14.688v-2.504H183.8V4h2.513v14.676H201v2.504zM166.92 68.78a14.618 14.618 0 0 1-2.277 4.117 11.519 11.519 0 0 1-3.774 2.874 12.801 12.801 0 0 1-10.87 0 11.296 11.296 0 0 1-3.792-2.874 14.746 14.746 0 0 1-2.282-4.117 16.604 16.604 0 0 1-.809-5.579c-.049-1.892.225-3.778.81-5.579a14.72 14.72 0 0 1 2.28-4.111 11.306 11.306 0 0 1 3.793-2.88 12.68 12.68 0 0 1 10.87 0c1.445.689 2.73 1.67 3.774 2.88a14.583 14.583 0 0 1 2.277 4.111c.589 1.8.864 3.687.814 5.58a16.433 16.433 0 0 1-.814 5.578zm-5.618-5.579c0-1.202-.116-2.424-.357-3.61a6.172 6.172 0 0 0-1.508-3.005c-.438-.497-1.046-.9-1.673-1.187a6.02 6.02 0 0 0-2.332-.481 5.396 5.396 0 0 0-4 1.668 6.087 6.087 0 0 0-1.507 3.004 18.463 18.463 0 0 0 0 7.222c.21 1.123.732 2.187 1.508 3.005a5.563 5.563 0 0 0 2.98 1.602 5.54 5.54 0 0 0 5.024-1.602c.772-.818 1.294-1.884 1.508-3.005.241-1.187.357-2.399.357-3.61zM157.74 36.48l-.01-16.136a6.273 6.273 0 0 0-.915-3.63c-.618-.877-1.815-1.317-3.442-1.317a4.205 4.205 0 0 0-2.789.936 6.787 6.787 0 0 0-1.768 2.399 9.635 9.635 0 0 0-.764 3.405c-.052 1.297-.052 2.5-.052 3.611V36.45h-6.38V10.232H147l.409 3.386a7.076 7.076 0 0 1 3.316-3.055c1.387-.651 2.9-.992 4.432-1.002a9.509 9.509 0 0 1 3.774.706 7.962 7.962 0 0 1 2.784 1.943 8.507 8.507 0 0 1 1.748 2.98c.412 1.207.618 2.484.608 3.81v17.48zm-32.115 20.919l.025.03c-.08.789.35 1.572 1.005 1.943.639.346 1.345.629 2.05.681l1.508.175 1.216.156c.407.05.83.11 1.266.175l1.623.25c1.926.261 3.682 1.098 5.166 2.4a6.549 6.549 0 0 1 2.01 5.007 8.138 8.138 0 0 1-.633 3.33A8.47 8.47 0 0 1 139.218 74a9.59 9.59 0 0 1-3.95 2.293 17.95 17.95 0 0 1-5.07.707c-1.598 0-3.198-.231-4.708-.732a10.065 10.065 0 0 1-5.774-4.973 7.337 7.337 0 0 1-.81-3.43h5.9c.006.594.194 1.135.407 1.712.23.523.573.989 1.005 1.363a4.97 4.97 0 0 0 1.699.886c.748.174 1.527.295 2.306.275.588 0 1.166-.045 1.777-.101a7.87 7.87 0 0 0 1.715-.525c.523-.22.984-.563 1.342-1.001a2.6 2.6 0 0 0 .533-1.718 2.53 2.53 0 0 0-.709-1.868c-.527-.496-1.2-.816-1.881-.888a64.715 64.715 0 0 0-3.691-.45 35.831 35.831 0 0 1-3.649-.55c-1.66-.376-3.226-1.277-4.356-2.58a6.809 6.809 0 0 1-1.669-4.42 7.385 7.385 0 0 1 .76-3.507A9.264 9.264 0 0 1 122.318 52a11.206 11.206 0 0 1 3.517-1.899c1.457-.47 2.99-.701 4.523-.681 1.56-.004 3.109.253 4.583.761a8.898 8.898 0 0 1 3.673 2.319 10.494 10.494 0 0 1 1.693 2.5 7.15 7.15 0 0 1 .633 2.904h-6.03c.01-.471-.095-.904-.306-1.362a4.843 4.843 0 0 0-.759-1.112c-.427-.43-.945-.706-1.507-.887a6.01 6.01 0 0 0-1.95-.325c-.472 0-.93.015-1.389.05-.45.041-.912.162-1.345.355a3.587 3.587 0 0 0-1.447 1.057 2.624 2.624 0 0 0-.583 1.718zm12.754-33.193l.01 1.086H120.74c0 .982.17 1.954.502 2.88.293.829.757 1.64 1.448 2.269a7.135 7.135 0 0 0 1.643 1.136c.666.345 1.475.517 2.256.501a7.678 7.678 0 0 0 2.251-.28 3.822 3.822 0 0 0 1.598-1.002 4.859 4.859 0 0 0 1.266-2.223h6.11A6.628 6.628 0 0 1 137 31.12c-.356.82-.84 1.591-1.41 2.298a9.513 9.513 0 0 1-4.02 2.825c-1.57.576-3.206.866-4.864.861A11.387 11.387 0 0 1 122 36.22a12.358 12.358 0 0 1-3.6-2.344c-1.328-1.296-2.4-2.875-3.016-4.597a16.133 16.133 0 0 1-1.04-5.905c-.02-1.998.297-3.986.94-5.88a11.963 11.963 0 0 1 2.859-4.622 10.767 10.767 0 0 1 3.573-2.418 12.096 12.096 0 0 1 4.839-.912c1.888-.015 3.756.391 5.445 1.187a9.915 9.915 0 0 1 4.178 3.66A11.208 11.208 0 0 1 138 18.832c.298 1.558.434 3.169.429 4.718-.03.215-.05.451-.05.656zm-6.282-3.506a6.672 6.672 0 0 0-1.618-4.592A4.714 4.714 0 0 0 128.831 15a6.08 6.08 0 0 0-2.352-.41 5.697 5.697 0 0 0-2.587.555 5.315 5.315 0 0 0-1.82 1.462 5.299 5.299 0 0 0-1.004 1.818 8.941 8.941 0 0 0-.357 2.274zM130 1.469c.17.194.21.43.156.653-.054.223-.156.416-.395.533l-7.09 4.137c-.391.208-.901.125-1.153-.256a.845.845 0 0 1 .218-1.156l6.633-4.853c.19-.138.43-.191.631-.148.26.044.463.18.59.378zM111.66 15.8c-2.225 0-3.914.706-5.064 2.119a8.16 8.16 0 0 0-1.724 5.303v13.226H98.49V10.212h5.357l.558 3.937a5.871 5.871 0 0 1 3.015-3.28 10.134 10.134 0 0 1 4.432-1.002c.663 0 1.321.05 1.975.133v6.067a10.335 10.335 0 0 0-2.181-.25zm-10.024 34.28l.01.035c1.457-.47 2.99-.701 4.522-.68a14.013 14.013 0 0 1 4.588.76 8.933 8.933 0 0 1 3.674 2.319 9.859 9.859 0 0 1 1.693 2.55c.417.935.633 1.867.633 2.854h-6.03a3.054 3.054 0 0 0-.306-1.362c-.201-.401-.42-.777-.76-1.112-.426-.445-.944-.706-1.507-.887a6.01 6.01 0 0 0-1.95-.325c-.477 0-.929.015-1.371.05a4.282 4.282 0 0 0-1.367.355A3.846 3.846 0 0 0 102 55.695a2.733 2.733 0 0 0-.56 1.718c-.08.789.314 1.587 1.005 1.943.638.346 1.332.58 2.05.644l1.505.212 1.219.156c.407.05.781.11 1.266.175l1.623.25a9.742 9.742 0 0 1 5.166 2.4 6.549 6.549 0 0 1 2.01 5.007 8.138 8.138 0 0 1-.633 3.33A8.643 8.643 0 0 1 115 74c-1.1 1-2.457 1.843-3.947 2.278-1.638.48-3.342.722-5.053.722-1.595 0-3.188-.251-4.706-.752a9.994 9.994 0 0 1-5.773-4.973c-.521-1.06-.826-2.275-.814-3.43h5.929c.006.593.143 1.155.364 1.712.267.523.61.988 1 1.363a5.54 5.54 0 0 0 1.741.886c.75.194 1.528.29 2.259.275.626 0 1.214-.081 1.792-.081.603-.129 1.208-.294 1.748-.545a3.516 3.516 0 0 0 1.342-1.001c.374-.454.562-1.101.533-1.718a2.466 2.466 0 0 0-.709-1.868 3.18 3.18 0 0 0-1.925-.868c-1.185-.209-2.401-.349-3.648-.47a29.118 29.118 0 0 1-3.648-.58 7.861 7.861 0 0 1-4.356-2.55c-1.129-1.237-1.675-2.825-1.669-4.466a7.32 7.32 0 0 1 .759-3.46A8.877 8.877 0 0 1 98.144 52a10.79 10.79 0 0 1 3.492-1.919zM88.742 20.123c0-1.618-.282-2.87-.834-3.76C87.355 15.47 86.28 15 84.692 15c-.824 0-1.638.23-2.332.676a5.231 5.231 0 0 0-1.598 1.668 7.402 7.402 0 0 0-.934 2.293 10.29 10.29 0 0 0-.302 2.474V36.45h-6.281V20.123c.075-1.307-.245-2.61-.84-3.761C71.854 15.471 70.779 15 69.19 15a4.36 4.36 0 0 0-2.332.676 5.478 5.478 0 0 0-1.618 1.668 7.598 7.598 0 0 0-.965 2.293c-.2.812-.275 1.643-.275 2.474V36.45h-6.308V10.177h5.216l.503 3.506a9.03 9.03 0 0 1 3.015-2.98 8.34 8.34 0 0 1 4.522-1.162 8.853 8.853 0 0 1 4.659 1.137 7.581 7.581 0 0 1 2.889 3.155 7.976 7.976 0 0 1 3.216-3.18A9.797 9.797 0 0 1 86.45 9.54c2.835 0 4.975.846 6.407 2.55C94.29 13.792 95 16 95 18.73v17.718h-6.273zM57 39.85c1.582 2.203 1 4.477-.267 5.749a4.216 4.216 0 0 1-2.965 1.222A4.622 4.622 0 0 1 51 45.884a1.286 1.286 0 0 1-.403-.365C49 43.31 49.567 41 50.833 39.745c1.267-1.282 3.573-1.853 5.79-.24l.377.37zm-1.338 4.702c.754-.741 1.231-2.178.131-3.746l-.116-.115c-1.572-1.112-3-.691-3.768.12-.77.767-1.252 2.189-.086 3.811l.03.03c1.593 1.142 3.046.661 3.81-.1zm-1.22-19.26H36.813c0 .98.186 1.953.502 2.879a5.87 5.87 0 0 0 1.442 2.269 7.044 7.044 0 0 0 1.648 1.136c.7.345 1.472.517 2.252.501a7.69 7.69 0 0 0 2.256-.28 3.846 3.846 0 0 0 1.593-1.002 4.859 4.859 0 0 0 1.266-2.223h6.1a7.278 7.278 0 0 1-.783 2.549c-.39.82-.876 1.592-1.448 2.298a9.446 9.446 0 0 1-4.02 2.825 13.907 13.907 0 0 1-4.864.861A11.785 11.785 0 0 1 38 36.22c-3-1.303-5.426-3.817-6.558-6.941a16.133 16.133 0 0 1-1.04-5.905c-.012-2 .313-3.986.96-5.88a11.973 11.973 0 0 1 2.864-4.622 10.77 10.77 0 0 1 3.573-2.418 12.197 12.197 0 0 1 4.834-.912c1.889-.015 3.763.386 5.472 1.187a10.04 10.04 0 0 1 4.155 3.66 11.502 11.502 0 0 1 1.835 4.443c.276 1.558.412 3.169.407 4.718-.036.215-.05.451-.05.656zm-6.272-4.593c-.035-1.918-.573-3.45-1.623-4.592A4.502 4.502 0 0 0 44.904 15a6.105 6.105 0 0 0-2.357-.41 5.432 5.432 0 0 0-2.547.555 5.154 5.154 0 0 0-1.86 1.462 5.563 5.563 0 0 0-1.005 1.818 8.718 8.718 0 0 0-.352 2.274zm-9.422 19.837l.02 35.787h-6.331v-25.54l-9.321 25.04h-4.83L9 50.481v25.846H2.684V40.536h8.814L20.92 66l9.472-25.464zM8.488 13.342l.02.005a4.864 4.864 0 0 0 2.638 1.187c1.146.17 2.462.32 3.854.466 1.432.125 2.764.275 3.945.446a15.11 15.11 0 0 1 3.824 1.081 9.707 9.707 0 0 1 3.11 2.084A9.333 9.333 0 0 1 28 21.71c.543 1.289.814 2.689.794 4.091A11.033 11.033 0 0 1 28 30.144a11.851 11.851 0 0 1-2.196 3.13 11.782 11.782 0 0 1-5.025 2.95c-2.045.6-4.17.901-6.306.886-1.93 0-3.85-.28-5.699-.831a12.886 12.886 0 0 1-5.025-2.855 11.928 11.928 0 0 1-2.683-3.61A10.723 10.723 0 0 1 0 25.096h6.714a5.752 5.752 0 0 0 .502 2.449 6.983 6.983 0 0 0 1.327 1.938A5.43 5.43 0 0 0 11.377 31c2.226.555 4.546.537 6.764 0a5.607 5.607 0 0 0 3.688-2.91 4.326 4.326 0 0 0 .407-2.09c.075-1.085-.4-2.18-1.236-2.897a7.146 7.146 0 0 0-3-1.287 33.328 33.328 0 0 0-4-.501 41.973 41.973 0 0 1-4-.456 13.609 13.609 0 0 1-3.492-1.061 9.786 9.786 0 0 1-2.884-2.004 9.04 9.04 0 0 1-1.975-2.974 10.04 10.04 0 0 1-.739-3.967A8.464 8.464 0 0 1 1.774 7a11.346 11.346 0 0 1 2.277-3.213A12.317 12.317 0 0 1 8.613 1c1.915-.679 3.93-1 5.96-1 1.893 0 3.773.304 5.568.902a11.91 11.91 0 0 1 4.482 2.604 12.48 12.48 0 0 1 2.603 3.41 9.49 9.49 0 0 1 1.04 4.193h-6.658a5.166 5.166 0 0 0-.502-1.893C20.824 8.605 20.437 8 20 7.558a5.996 5.996 0 0 0-2.462-1.412 9.96 9.96 0 0 0-3.015-.501 12.602 12.602 0 0 0-3.116.406A5.238 5.238 0 0 0 7.81 8.925a4.183 4.183 0 0 0-.326 1.718 3.499 3.499 0 0 0 1.005 2.7zM42.37 65.431l-.02-.005a7.585 7.585 0 0 1 1.9-2.504c.832-.721 1.749-1.279 2.834-1.643 1.135-.4 2.316-.646 3.517-.731L58.351 60v-1.62a4.76 4.76 0 0 0-.885-3.005c-.593-.757-1.784-1.137-3.572-1.137a5.54 5.54 0 0 0-3.468.956A3.594 3.594 0 0 0 49.08 58H43c0-1.365.394-2.674 1-3.862a7.933 7.933 0 0 1 2.371-2.65 10.349 10.349 0 0 1 3.392-1.542 16.36 16.36 0 0 1 4.156-.5c2.081-.034 4.081.37 6.03 1.186a7.196 7.196 0 0 1 3.824 4.167c.331.841.547 1.722.633 2.624.08.906.125 1.803.125 2.674v9.72c-.04.454.075.908.327 1.288.31.281.724.418 1.142.375.185.01.376-.005.557-.05a.65.65 0 0 0 .256-.05V76c-.452.228-.92.403-1.397.554-.568.14-1.156.2-1.744.18a4.33 4.33 0 0 1-3.196-1.112A4.276 4.276 0 0 1 59.21 73a7.219 7.219 0 0 1-3.015 2.822C54.667 76.624 53 77 51.23 77c-1.417 0-2.824-.216-4.155-.697a9.388 9.388 0 0 1-2.96-1.818 7.498 7.498 0 0 1-1.799-2.624 8.122 8.122 0 0 1-.608-3.105 7.77 7.77 0 0 1 .663-3.325zm5.498 3.18A2.854 2.854 0 0 0 49 71c.748.59 1.668.9 2.612.891 1.753.109 3.477-.466 4.864-1.537 1.252-1.027 1.875-2.52 1.875-4.473v-1.207l-6.684.501c-.953.06-1.87.395-2.667.962a2.937 2.937 0 0 0-1.131 2.474zm27.526-15.164c.745-1.35 1.909-2.447 3.317-3.055a10.58 10.58 0 0 1 4.432-1.002 9.476 9.476 0 0 1 3.774.706A8.063 8.063 0 0 1 91.45 55a11.58 11.58 0 0 1 .608 3.78v17.528h-6.331V60.202a6.293 6.293 0 0 0-.91-3.63c-.623-.877-1.817-1.313-3.447-1.313a4.2 4.2 0 0 0-2.784.932 6.637 6.637 0 0 0-1.773 2.399 9.49 9.49 0 0 0-.76 3.41C76 63.292 76 64.494 76 65.606v10.727h-6.378V50.081h5.316zm101.43 0c.744-1.35 1.908-2.447 3.316-3.055a10.442 10.442 0 0 1 4.432-1.002 9.475 9.475 0 0 1 3.774.706A8.685 8.685 0 0 1 191.136 52a9.032 9.032 0 0 1 1.744 3 11.58 11.58 0 0 1 .608 3.78v17.528h-6.332V60.202a6.293 6.293 0 0 0-.91-3.63c-.617-.877-1.768-1.313-3.441-1.313a4.274 4.274 0 0 0-2.805.932 6.78 6.78 0 0 0-1.758 2.399 9.492 9.492 0 0 0-.759 3.41c-.07 1.292-.1 2.494-.1 3.606v10.727h-6.322V50.081h5.317z"/></g></g></svg>