<svg xmlns="http://www.w3.org/2000/svg" width="229" height="140" viewBox="0 0 229 140"><g><g><g><path fill="#00754a" d="M227.138 54.11A5.226 5.226 0 0 1 229 58.118v76.646c0 2.886-2.343 5.236-5.224 5.236H5.224C2.344 140 0 137.65 0 134.764V58.118c0-1.55.68-3.01 1.863-4.008L64.636 1.229a5.218 5.218 0 0 1 6.725 0L114.5 37.57l43.14-36.342a5.218 5.218 0 0 1 6.725 0zm-96.368 83.664a3.009 3.009 0 0 0 3.005-3.01V58.118c0-.889-.392-1.733-1.07-2.305L69.932 2.932a3.024 3.024 0 0 0-3.867 0L3.292 55.813a3.013 3.013 0 0 0-1.072 2.305v76.646a3.008 3.008 0 0 0 3.004 3.01zm96.01-79.656c0-.889-.391-1.733-1.07-2.305L162.936 2.932a3.024 3.024 0 0 0-3.867 0L116.227 39l17.908 15.11A5.236 5.236 0 0 1 136 58.118v76.646a4.982 4.982 0 0 1-1 3.01h88.776a3.008 3.008 0 0 0 3.004-3.01z"/></g><g><path fill="#00754a" d="M147.455 105.798c.146.364.345.675.618.953.454.483 1.2.95 2.382.95 1.654 0 2.727-1.02 3.037-2.596h-3.765v-1.297h3.746c-.291-1.471-1.364-2.51-3.018-2.51-1.163 0-1.872.433-2.31.867-.254.26-.454.536-.6.835h-1.453c.163-.524.436-1 .816-1.477.637-.743 1.71-1.523 3.547-1.523 2.545 0 4.545 1.905 4.545 4.502 0 2.593-2 4.498-4.545 4.498-1.854 0-2.982-.796-3.619-1.592a4.31 4.31 0 0 1-.836-1.61z"/></g><g><path fill="#00754a" d="M156 100h1.422v3.6h1.778l2.8-3.6h1.733l-3.289 4.23L164 109h-1.778l-3.022-4.051h-1.778V109H156z"/></g><g><path fill="#00754a" d="M170.5 100c2.595 0 4.5 1.903 4.5 4.5s-1.905 4.5-4.5 4.5c-2.595 0-4.5-1.903-4.5-4.5s1.905-4.5 4.5-4.5m0 7.703c1.8 0 3.115-1.315 3.115-3.202 0-1.886-1.316-3.204-3.115-3.204-1.8 0-3.115 1.318-3.115 3.204 0 1.887 1.316 3.202 3.115 3.202"/></g><g><path fill="#00754a" d="M147 115h1.422v3.6h1.778l2.8-3.6h1.733l-3.289 4.23L155 124h-1.778l-3.022-4.051h-1.778V124H147z"/></g><g><path fill="#00754a" d="M156 115h4.723c1.852 0 2.891 1 2.891 2.25 0 1.621-1.291 1.963-1.446 1.963v.017c.098 0 1.832.343 1.832 2.16 0 1.53-1.157 2.61-3.257 2.61H156zm4.627 3.69c.983 0 1.445-.45 1.445-1.17s-.462-1.17-1.445-1.17h-3.085v2.34zm.096 3.961c1.157 0 1.736-.54 1.736-1.349 0-.811-.579-1.352-1.736-1.352h-3.18v2.701z"/></g><g><path fill="#00754a" d="M170.32 115c1.68 0 2.68.866 3.06 1.316l.161.259h.02v-1.403H175v8.656h-1.439v-1.385h-.02l-.16.242c-.324.468-1.381 1.315-3.06 1.315-2.321 0-4.321-1.903-4.321-4.5s2-4.5 4.32-4.5m.18 7.703c1.729 0 3.061-1.315 3.061-3.202 0-1.886-1.332-3.204-3.061-3.204-1.729 0-3.06 1.318-3.06 3.204 0 1.887 1.331 3.202 3.06 3.202"/></g><g><path fill="#00754a" d="M178 115.17h1.44v1.372h.019l.179-.257c.288-.427 1.362-1.285 3.041-1.285 2.321 0 4.321 1.885 4.321 4.457 0 2.543-2 4.456-4.32 4.456-1.68 0-2.754-.84-3.042-1.302l-.18-.24h-.018V127H178zm7.56 4.287c0-1.867-1.331-3.172-3.06-3.172s-3.06 1.305-3.06 3.172c0 1.87 1.331 3.171 3.06 3.171s3.06-1.302 3.06-3.17z"/></g><g><path fill="#00754a" d="M186 115h8v1.35h-3.255V124h-1.49v-7.65H186z"/></g><g><path fill="#00754a" d="M199.32 115c1.68 0 2.68.866 3.06 1.316l.161.259h.02v-1.403H204v8.656h-1.439v-1.385h-.02l-.16.242c-.324.468-1.381 1.315-3.06 1.315-2.321 0-4.321-1.903-4.321-4.5s2-4.5 4.32-4.5m.18 7.703c1.729 0 3.061-1.315 3.061-3.202 0-1.886-1.332-3.204-3.061-3.204-1.729 0-3.06 1.318-3.06 3.204 0 1.887 1.331 3.202 3.06 3.202"/></g><g><path fill="#00754a" d="M208.572 115h3.856l2.572 9h-1.56l-2.114-7.65h-1.652L207.56 124H206z"/></g><g><path fill="#00754a" d="M40.241 99.058l-3.7-6.13a1.297 1.297 0 0 1 .007-1.362L40 86h4.722l-3.953 6.16 4.347 6.898zm32.66-.002v-1.754h-.264c-.263.426-.637.776-1.001 1.078-.712.527-1.713 1.053-3.084 1.053-3.267 0-6.06-2.608-6.06-6.897 0-4.287 2.793-6.895 6.06-6.895 1.37 0 2.372.552 3.084 1.08.364.279.738.65 1 1.053h.265v-6.892h4.48v18.174zM70 95.796c1.714 0 2.9-1.127 2.9-3.26 0-2.13-1.186-3.258-2.9-3.258-1.71 0-2.897 1.129-2.897 3.258 0 2.133 1.187 3.26 2.897 3.26zM30.798 80.882h4.481v18.174H30.8zm-7.443 10.527v-.501c0-1.18-.818-1.908-2.108-1.908-.922 0-1.449.353-1.792.655a2.28 2.28 0 0 0-.455.626h-4.473A5.05 5.05 0 0 1 15.633 88c.924-1.18 2.582-2.359 5.614-2.359 4.322 0 6.589 2.107 6.589 5.359v8.056h-4.481v-1.754h-.21a3.245 3.245 0 0 1-.975 1.078c-.712.527-1.845 1.053-3.559 1.053-2.925 0-4.611-1.606-4.611-3.887 0-2.382 1.845-4.137 5.271-4.137zM20.457 96c1.87 0 2.898-1 2.898-2.46H20.35c-1.238 0-1.74.46-1.74 1.254 0 .778.502 1.206 1.846 1.206zm66.847-10.359c4.322 0 7.511 3.16 7.511 6.895v.752h-10.41C84.696 95.07 85.724 96 87.305 96c1.055 0 1.696-.253 2.108-.63a2 2 0 0 0 .528-.701h4.743a6.682 6.682 0 0 1-1.424 2.382c-1.053 1.204-2.952 2.382-5.955 2.382-4.217 0-7.511-3.16-7.511-6.897 0-3.735 3.294-6.895 7.511-6.895zm2.768 5.517C89.78 90 88.78 89 87.304 89c-1.476 0-2.477 1-2.766 2.158zm-68.693-7.393c-1.872 0-3.164-1.254-3.164-2.883S19.507 78 21.38 78c1.87 0 3.162 1.253 3.162 2.882 0 1.63-1.292 2.883-3.162 2.883zm0-4.011c-.658 0-1.187.501-1.187 1.128 0 .626.529 1.118 1.187 1.118.621 0 1.185-.492 1.185-1.118 0-.627-.564-1.128-1.185-1.128zm34.07 17.548h-.21a3.26 3.26 0 0 1-.977 1.078c-.712.527-1.843 1.053-3.557 1.053-2.926 0-4.613-1.606-4.613-3.887 0-2.382 1.846-4.137 5.272-4.137h4.085v-.501c0-1.18-.817-1.908-2.108-1.908-.922 0-1.45.353-1.793.655-.184.175-.343.399-.448.626h-4.481A5.07 5.07 0 0 1 47.727 88c.923-1.18 2.582-2.359 5.614-2.359 4.32 0 6.587 2.107 6.587 5.359v8.056h-4.48zM52.55 96c1.87 0 2.898-1 2.898-2.46h-3.005c-1.239 0-1.739.46-1.739 1.254 0 .778.5 1.206 1.846 1.206zm62.31-10.359C118 85.641 120 87.497 120 91v8.056h-4.48v-7.397c0-1.659-.765-2.381-2.109-2.381-1.475 0-2.503.978-2.503 2.722v7.056h-4.481v-7.397c0-1.659-.764-2.381-2.108-2.381-1.476 0-2.504.978-2.504 2.722v7.056h-4.479V86h4.48v1.774h.263c.238-.403.527-.774.921-1.053.607-.528 1.556-1.08 3-1.08 1.745 0 2.825.601 3.484 1.204.396.351.685.754.896 1.155h.264c.212-.401.501-.804.87-1.155.632-.603 1.66-1.204 3.347-1.204zm-100.165 19.81h4.481v18.172h-4.48zm16.104 0h4.48v18.174H30.8zm33.477 4.759c3.268 0 6.06 2.608 6.06 6.895 0 4.287-2.792 6.895-6.06 6.895-1.397 0-2.372-.526-3.082-1.053-.396-.3-.74-.652-1.003-1.076h-.264v1.754h-4.48V105.45h4.48v6.89h.264c.263-.4.607-.75 1.003-1.052.71-.526 1.685-1.078 3.082-1.078zm-1.592 10.155c1.713 0 2.9-1.128 2.9-3.26 0-2.105-1.187-3.26-2.9-3.26-1.685 0-2.897 1.155-2.897 3.26 0 2.132 1.212 3.26 2.897 3.26zm-38.02-3.635L29 123.623h-4.863l-3.7-6.126a1.303 1.303 0 0 1 .007-1.364l3.43-5.546h4.744zm57.064-6.519c3.271 0 6.06 2.607 6.06 6.894S85 124 81.73 124c-1.397 0-2.372-.525-3.082-1.053-.396-.3-.739-.65-1.003-1.076h-.262v1.754H72.9V105.45h4.48v6.89h.263c.264-.4.607-.75 1.003-1.052.71-.526 1.685-1.077 3.082-1.077zm-1.449 10.155c1.72 0 2.9-1.129 2.9-3.261 0-2.105-1.18-3.26-2.9-3.26-1.713 0-2.898 1.155-2.898 3.26 0 2.132 1.185 3.261 2.898 3.261zm-32.506-9.78h4.481v13.039h-4.48v-1.754h-.265c-.237.426-.51.776-.948 1.076-.658.528-1.66 1.053-3.137 1.053-3.189 0-5.14-1.854-5.14-5.39v-8.023h4.482V118c0 1.489.896 2.366 2.371 2.366 1.476 0 2.636-1.105 2.636-2.884z"/></g></g></g></svg>