<svg xmlns="http://www.w3.org/2000/svg" width="62" height="54"><path fill="none" stroke="#fff" stroke-linecap="round" stroke-linejoin="round" stroke-miterlimit="20" stroke-width="2.17" d="M51.24 25.123v0l4.075-4.033v0l4.076 4.033v0M10.48 29.16v0l-4.075 4.033v0L2.33 29.16v0"/><path fill="none" stroke="#fff" stroke-linecap="round" stroke-linejoin="round" stroke-miterlimit="20" stroke-width="2.17" d="M7 32.485c-.364-1.72-.59-3.485-.59-5.345 0-13.364 10.95-24.2 24.452-24.2 8.22 0 15.46 4.06 19.894 10.19m3.953 8.66c.391 1.72.617 3.506.617 5.346 0 13.363-10.95 24.2-24.453 24.2A24.389 24.389 0 0111 41.144"/><path fill="none" stroke="#fff" stroke-linecap="round" stroke-linejoin="round" stroke-miterlimit="20" stroke-width="2.17" d="M20.51 21.71v13.21a2.708 2.708 0 002.708 2.708H39.63a2.708 2.708 0 002.708-2.708v-13 0"/><path fill="none" stroke="#fff" stroke-linecap="round" stroke-linejoin="round" stroke-miterlimit="20" stroke-width="2.17" d="M44.843 24.083v0L33.073 13.91a2.64 2.64 0 00-3.542 0L17.76 24.083v0"/></svg>