<svg xmlns="http://www.w3.org/2000/svg" width="20" height="20" viewBox="0 0 20 20"><g><g><path fill="none" stroke="#fff" stroke-linecap="round" stroke-linejoin="round" stroke-miterlimit="20" stroke-width="1.5" d="M5.496 1v0h9.009C17 1 19 3 19 5.496v9.009C19 17 17 19 14.504 19H5.496A4.48 4.48 0 0 1 1 14.504V5.496C1 3 3 1 5.496 1z"/></g><g><path fill="none" stroke="#fff" stroke-linecap="round" stroke-linejoin="round" stroke-miterlimit="20" stroke-width="1.5" d="M14.95 4.712a.339.339 0 0 0-.337.338c0 .186.152.338.387.338.136 0 .287-.152.287-.338a.337.337 0 0 0-.338-.338"/></g><g><path fill="none" stroke="#fff" stroke-linecap="round" stroke-linejoin="round" stroke-miterlimit="20" stroke-width="1.5" d="M12.546 7.455a3.515 3.515 0 0 1 0 5.09 3.515 3.515 0 0 1-5.092 0 3.515 3.515 0 0 1 0-5.09 3.515 3.515 0 0 1 5.092 0"/></g></g></svg>