<svg xmlns="http://www.w3.org/2000/svg" width="20" height="20" viewBox="0 0 20 20"><g><g/><g><path fill="none" stroke="#fff" stroke-linecap="round" stroke-linejoin="round" stroke-miterlimit="20" stroke-width="1.5" d="M5.5 1v0h9.004C17 1 19 3 19 5.496v9.009C19 17 17 19 14.504 19H5.496A4.48 4.48 0 0 1 1 14.504V5.5C1 3 3 1 5.5 1z"/></g><g><path fill="none" stroke="#fff" stroke-linecap="round" stroke-linejoin="round" stroke-miterlimit="20" stroke-width="1.5" d="M8.095 13.49v0l-.812-2.674L5 10.09c-.31-.09-.322-.456-.061-.556l8.85-3.414a.444.444 0 0 1 .593.504l-1.487 7.008c-.087.368-.57.594-.895.368l-2.124-1.584v0L8.63 13.628a.325.325 0 0 1-.536-.138z"/></g></g></svg>